<?xml version="1.0" encoding="UTF-8" standalone="no"?>
<!DOCTYPE svg PUBLIC "-//W3C//DTD SVG 1.1//EN"
 "http://www.w3.org/Graphics/SVG/1.1/DTD/svg11.dtd">
<!-- Generated by graphviz version 2.40.1 (20161225.0304)
 -->
<!-- Title: dependencies Pages: 1 -->
<svg width="6502pt" height="366pt"
 viewBox="0.00 0.00 6502.00 366.00" xmlns="http://www.w3.org/2000/svg" xmlns:xlink="http://www.w3.org/1999/xlink">
<g id="graph0" class="graph" transform="scale(1 1) rotate(0) translate(4 362)">
<title>dependencies</title>
<polygon fill="#ffffff" stroke="transparent" points="-4,4 -4,-362 6498,-362 6498,4 -4,4"/>
<text text-anchor="start" x="3226.0091" y="-42.4" font-family="sans-serif" font-weight="bold" font-size="14.00" fill="#000000">Legend</text>
<polygon fill="#ffffb3" stroke="transparent" points="3013,-10 3013,-30 3033,-30 3033,-10 3013,-10"/>
<text text-anchor="start" x="3036.629" y="-15.4" font-family="sans-serif" font-size="14.00" fill="#000000"> &#160;Declarations</text>
<polygon fill="#8dd3c7" stroke="transparent" points="3126,-10 3126,-30 3146,-30 3146,-10 3126,-10"/>
<text text-anchor="start" x="3149.7251" y="-15.4" font-family="sans-serif" font-size="14.00" fill="#000000"> &#160;Module</text>
<polygon fill="#80b1d3" stroke="transparent" points="3212,-10 3212,-30 3232,-30 3232,-10 3212,-10"/>
<text text-anchor="start" x="3235.7812" y="-15.4" font-family="sans-serif" font-size="14.00" fill="#000000"> &#160;Bootstrap</text>
<polygon fill="#fdb462" stroke="transparent" points="3309,-10 3309,-30 3329,-30 3329,-10 3309,-10"/>
<text text-anchor="start" x="3332.6732" y="-15.4" font-family="sans-serif" font-size="14.00" fill="#000000"> &#160;Providers</text>
<polygon fill="#fb8072" stroke="transparent" points="3405,-10 3405,-30 3425,-30 3425,-10 3405,-10"/>
<text text-anchor="start" x="3428.7258" y="-15.4" font-family="sans-serif" font-size="14.00" fill="#000000"> &#160;Exports</text>
<g id="clust1" class="cluster">
<title>cluster_AppModule</title>
<polygon fill="none" stroke="#000000" stroke-dasharray="1,5" points="1648,-70 1648,-350 2726,-350 2726,-70 1648,-70"/>
</g>
<g id="clust2" class="cluster">
<title>cluster_AppModule_declarations</title>
<polygon fill="none" stroke="#000000" points="2596,-154 2596,-206 2718,-206 2718,-154 2596,-154"/>
</g>
<g id="clust4" class="cluster">
<title>cluster_AppModule_imports</title>
<polygon fill="none" stroke="#000000" points="2226,-78 2226,-206 2588,-206 2588,-78 2226,-78"/>
</g>
<g id="clust6" class="cluster">
<title>cluster_AppModule_bootstrap</title>
<polygon fill="none" stroke="#000000" points="2256,-290 2256,-342 2380,-342 2380,-290 2256,-290"/>
</g>
<g id="clust7" class="cluster">
<title>cluster_AppModule_providers</title>
<polygon fill="none" stroke="#000000" points="1656,-154 1656,-206 2218,-206 2218,-154 1656,-154"/>
</g>
<g id="clust14" class="cluster">
<title>cluster_CategoryModule</title>
<polygon fill="none" stroke="#000000" stroke-dasharray="1,5" points="4673,-70 4673,-206 5623,-206 5623,-70 4673,-70"/>
</g>
<g id="clust15" class="cluster">
<title>cluster_CategoryModule_declarations</title>
<polygon fill="none" stroke="#000000" points="4861,-78 4861,-130 5615,-130 5615,-78 4861,-78"/>
</g>
<g id="clust20" class="cluster">
<title>cluster_CategoryModule_imports</title>
<polygon fill="none" stroke="#000000" points="4681,-78 4681,-130 4853,-130 4853,-78 4681,-78"/>
</g>
<g id="clust30" class="cluster">
<title>cluster_CheckoutModule</title>
<polygon fill="none" stroke="#000000" stroke-dasharray="1,5" points="5631,-70 5631,-206 6486,-206 6486,-70 5631,-70"/>
</g>
<g id="clust31" class="cluster">
<title>cluster_CheckoutModule_declarations</title>
<polygon fill="none" stroke="#000000" points="5821,-78 5821,-130 6478,-130 6478,-78 5821,-78"/>
</g>
<g id="clust36" class="cluster">
<title>cluster_CheckoutModule_imports</title>
<polygon fill="none" stroke="#000000" points="5639,-78 5639,-130 5813,-130 5813,-78 5639,-78"/>
</g>
<g id="clust46" class="cluster">
<title>cluster_CoreModule</title>
<polygon fill="none" stroke="#000000" stroke-dasharray="1,5" points="2734,-70 2734,-138 3920,-138 3920,-70 2734,-70"/>
</g>
<g id="clust47" class="cluster">
<title>cluster_CoreModule_declarations</title>
<polygon fill="none" stroke="#000000" points="2742,-78 2742,-130 2882,-130 2882,-78 2742,-78"/>
</g>
<g id="clust50" class="cluster">
<title>cluster_CoreModule_exports</title>
<polygon fill="none" stroke="#000000" points="2890,-78 2890,-130 3088,-130 3088,-78 2890,-78"/>
</g>
<g id="clust52" class="cluster">
<title>cluster_CoreModule_providers</title>
<polygon fill="none" stroke="#000000" points="3096,-78 3096,-130 3912,-130 3912,-78 3096,-78"/>
</g>
<g id="clust59" class="cluster">
<title>cluster_ProductModule</title>
<polygon fill="none" stroke="#000000" stroke-dasharray="1,5" points="3928,-70 3928,-282 4665,-282 4665,-70 3928,-70"/>
</g>
<g id="clust60" class="cluster">
<title>cluster_ProductModule_declarations</title>
<polygon fill="none" stroke="#000000" points="3942,-78 3942,-130 4650,-130 4650,-78 3942,-78"/>
</g>
<g id="clust66" class="cluster">
<title>cluster_ProductModule_exports</title>
<polygon fill="none" stroke="#000000" points="3936,-222 3936,-274 4657,-274 4657,-222 3936,-222"/>
</g>
<g id="clust69" class="cluster">
<title>cluster_UIModule</title>
<polygon fill="none" stroke="#000000" stroke-dasharray="1,5" points="8,-146 8,-214 1640,-214 1640,-146 8,-146"/>
</g>
<g id="clust70" class="cluster">
<title>cluster_UIModule_declarations</title>
<polygon fill="none" stroke="#000000" points="837,-154 837,-206 1632,-206 1632,-154 837,-154"/>
</g>
<g id="clust77" class="cluster">
<title>cluster_UIModule_exports</title>
<polygon fill="none" stroke="#000000" points="16,-154 16,-206 829,-206 829,-154 16,-154"/>
</g>
<!-- AppComponent -->
<g id="node1" class="node">
<title>AppComponent</title>
<polygon fill="#ffffb3" stroke="#000000" points="2709.9399,-198 2604.0601,-198 2604.0601,-162 2709.9399,-162 2709.9399,-198"/>
<text text-anchor="middle" x="2657" y="-175.8" font-family="Times,serif" font-size="14.00" fill="#000000">AppComponent</text>
</g>
<!-- AppModule -->
<g id="node2" class="node">
<title>AppModule</title>
<polygon fill="#8dd3c7" stroke="#000000" points="2359.6571,-266 2356.6571,-270 2335.6571,-270 2332.6571,-266 2276.3429,-266 2276.3429,-230 2359.6571,-230 2359.6571,-266"/>
<text text-anchor="middle" x="2318" y="-243.8" font-family="Times,serif" font-size="14.00" fill="#000000">AppModule</text>
</g>
<!-- AppComponent&#45;&gt;AppModule -->
<g id="edge1" class="edge">
<title>AppComponent&#45;&gt;AppModule</title>
<path fill="none" stroke="#000000" d="M2657,-198.2921C2657,-220.2057 2657,-254 2657,-254 2657,-254 2369.9081,-254 2369.9081,-254"/>
<polygon fill="#000000" stroke="#000000" points="2369.9081,-250.5001 2359.9081,-254 2369.908,-257.5001 2369.9081,-250.5001"/>
</g>
<!-- AppComponent  -->
<g id="node7" class="node">
<title>AppComponent </title>
<polygon fill="#80b1d3" stroke="#000000" points="2372.439,-334 2263.561,-334 2263.561,-298 2372.439,-298 2372.439,-334"/>
<text text-anchor="middle" x="2318" y="-311.8" font-family="Times,serif" font-size="14.00" fill="#000000">AppComponent </text>
</g>
<!-- AppModule&#45;&gt;AppComponent  -->
<g id="edge6" class="edge">
<title>AppModule&#45;&gt;AppComponent </title>
<path fill="none" stroke="#000000" stroke-dasharray="1,5" d="M2318,-266.2228C2318,-266.2228 2318,-287.7269 2318,-287.7269"/>
<polygon fill="#000000" stroke="#000000" points="2314.5001,-287.7269 2318,-297.7269 2321.5001,-287.727 2314.5001,-287.7269"/>
</g>
<!-- UIModule -->
<g id="node3" class="node">
<title>UIModule</title>
<polygon fill="#8dd3c7" stroke="#000000" points="2308.3177,-122 2305.3177,-126 2284.3177,-126 2281.3177,-122 2233.6823,-122 2233.6823,-86 2308.3177,-86 2308.3177,-122"/>
<text text-anchor="middle" x="2271" y="-99.8" font-family="Times,serif" font-size="14.00" fill="#000000">UIModule</text>
</g>
<!-- UIModule&#45;&gt;AppModule -->
<g id="edge2" class="edge">
<title>UIModule&#45;&gt;AppModule</title>
<path fill="none" stroke="#000000" d="M2297.4963,-122.2377C2297.4963,-122.2377 2297.4963,-219.9104 2297.4963,-219.9104"/>
<polygon fill="#000000" stroke="#000000" points="2293.9964,-219.9103 2297.4963,-229.9104 2300.9964,-219.9104 2293.9964,-219.9103"/>
</g>
<!-- AbstractFormComponent  -->
<g id="node45" class="node">
<title>AbstractFormComponent </title>
<polygon fill="#fb8072" stroke="#000000" points="327.0889,-198 164.9111,-198 164.9111,-162 327.0889,-162 327.0889,-198"/>
<text text-anchor="middle" x="246" y="-175.8" font-family="Times,serif" font-size="14.00" fill="#000000">AbstractFormComponent </text>
</g>
<!-- UIModule&#45;&gt;AbstractFormComponent  -->
<g id="edge46" class="edge">
<title>UIModule&#45;&gt;AbstractFormComponent </title>
<path fill="none" stroke="#000000" stroke-dasharray="5,2" d="M2233.6855,-93C1957.8502,-93 246,-93 246,-93 246,-93 246,-151.9735 246,-151.9735"/>
<polygon fill="#000000" stroke="#000000" points="242.5001,-151.9735 246,-161.9735 249.5001,-151.9736 242.5001,-151.9735"/>
</g>
<!-- ProfileComponent  -->
<g id="node46" class="node">
<title>ProfileComponent </title>
<polygon fill="#fb8072" stroke="#000000" points="146.432,-198 23.568,-198 23.568,-162 146.432,-162 146.432,-198"/>
<text text-anchor="middle" x="85" y="-175.8" font-family="Times,serif" font-size="14.00" fill="#000000">ProfileComponent </text>
</g>
<!-- UIModule&#45;&gt;ProfileComponent  -->
<g id="edge47" class="edge">
<title>UIModule&#45;&gt;ProfileComponent </title>
<path fill="none" stroke="#000000" stroke-dasharray="5,2" d="M2233.5178,-90C1944.7483,-90 85,-90 85,-90 85,-90 85,-151.7872 85,-151.7872"/>
<polygon fill="#000000" stroke="#000000" points="81.5001,-151.7871 85,-161.7872 88.5001,-151.7872 81.5001,-151.7871"/>
</g>
<!-- WelcomeComponent  -->
<g id="node47" class="node">
<title>WelcomeComponent </title>
<polygon fill="#fb8072" stroke="#000000" points="821.4728,-198 682.5272,-198 682.5272,-162 821.4728,-162 821.4728,-198"/>
<text text-anchor="middle" x="752" y="-175.8" font-family="Times,serif" font-size="14.00" fill="#000000">WelcomeComponent </text>
</g>
<!-- UIModule&#45;&gt;WelcomeComponent  -->
<g id="edge48" class="edge">
<title>UIModule&#45;&gt;WelcomeComponent </title>
<path fill="none" stroke="#000000" stroke-dasharray="5,2" d="M2233.8287,-103C2000.8828,-103 752,-103 752,-103 752,-103 752,-151.7521 752,-151.7521"/>
<polygon fill="#000000" stroke="#000000" points="748.5001,-151.752 752,-161.7521 755.5001,-151.7521 748.5001,-151.752"/>
</g>
<!-- RegisterComponent  -->
<g id="node48" class="node">
<title>RegisterComponent </title>
<polygon fill="#fb8072" stroke="#000000" points="664.9855,-198 533.0145,-198 533.0145,-162 664.9855,-162 664.9855,-198"/>
<text text-anchor="middle" x="599" y="-175.8" font-family="Times,serif" font-size="14.00" fill="#000000">RegisterComponent </text>
</g>
<!-- UIModule&#45;&gt;RegisterComponent  -->
<g id="edge49" class="edge">
<title>UIModule&#45;&gt;RegisterComponent </title>
<path fill="none" stroke="#000000" stroke-dasharray="5,2" d="M2233.7336,-100C1987.0325,-100 599,-100 599,-100 599,-100 599,-151.8468 599,-151.8468"/>
<polygon fill="#000000" stroke="#000000" points="595.5001,-151.8467 599,-161.8468 602.5001,-151.8468 595.5001,-151.8467"/>
</g>
<!-- ConfirmDialogComponent  -->
<g id="node49" class="node">
<title>ConfirmDialogComponent </title>
<polygon fill="#fb8072" stroke="#000000" points="515.3742,-198 344.6258,-198 344.6258,-162 515.3742,-162 515.3742,-198"/>
<text text-anchor="middle" x="430" y="-175.8" font-family="Times,serif" font-size="14.00" fill="#000000">ConfirmDialogComponent </text>
</g>
<!-- UIModule&#45;&gt;ConfirmDialogComponent  -->
<g id="edge50" class="edge">
<title>UIModule&#45;&gt;ConfirmDialogComponent </title>
<path fill="none" stroke="#000000" stroke-dasharray="5,2" d="M2233.8093,-96C1973.1084,-96 430,-96 430,-96 430,-96 430,-151.7733 430,-151.7733"/>
<polygon fill="#000000" stroke="#000000" points="426.5001,-151.7732 430,-161.7733 433.5001,-151.7733 426.5001,-151.7732"/>
</g>
<!-- AppRoutingModule -->
<g id="node4" class="node">
<title>AppRoutingModule</title>
<polygon fill="#8dd3c7" stroke="#000000" points="2455.2744,-122 2452.2744,-126 2431.2744,-126 2428.2744,-122 2326.7256,-122 2326.7256,-86 2455.2744,-86 2455.2744,-122"/>
<text text-anchor="middle" x="2391" y="-99.8" font-family="Times,serif" font-size="14.00" fill="#000000">AppRoutingModule</text>
</g>
<!-- AppRoutingModule&#45;&gt;AppModule -->
<g id="edge3" class="edge">
<title>AppRoutingModule&#45;&gt;AppModule</title>
<path fill="none" stroke="#000000" d="M2337.6847,-122.2377C2337.6847,-122.2377 2337.6847,-219.9104 2337.6847,-219.9104"/>
<polygon fill="#000000" stroke="#000000" points="2334.1848,-219.9103 2337.6847,-229.9104 2341.1848,-219.9104 2334.1848,-219.9103"/>
</g>
<!-- CoreModule -->
<g id="node5" class="node">
<title>CoreModule</title>
<polygon fill="#8dd3c7" stroke="#000000" points="2580.2619,-198 2577.2619,-202 2556.2619,-202 2553.2619,-198 2493.7381,-198 2493.7381,-162 2580.2619,-162 2580.2619,-198"/>
<text text-anchor="middle" x="2537" y="-175.8" font-family="Times,serif" font-size="14.00" fill="#000000">CoreModule</text>
</g>
<!-- CoreModule&#45;&gt;AppModule -->
<g id="edge4" class="edge">
<title>CoreModule&#45;&gt;AppModule</title>
<path fill="none" stroke="#000000" d="M2493.34,-174C2437.7309,-174 2348.7564,-174 2348.7564,-174 2348.7564,-174 2348.7564,-219.7079 2348.7564,-219.7079"/>
<polygon fill="#000000" stroke="#000000" points="2345.2565,-219.7078 2348.7564,-229.7079 2352.2565,-219.7079 2345.2565,-219.7078"/>
</g>
<!-- MaterialModule  -->
<g id="node24" class="node">
<title>MaterialModule </title>
<polygon fill="#fb8072" stroke="#000000" points="3080.4716,-122 2969.5284,-122 2969.5284,-86 3080.4716,-86 3080.4716,-122"/>
<text text-anchor="middle" x="3025" y="-99.8" font-family="Times,serif" font-size="14.00" fill="#000000">MaterialModule </text>
</g>
<!-- CoreModule&#45;&gt;MaterialModule  -->
<g id="edge24" class="edge">
<title>CoreModule&#45;&gt;MaterialModule </title>
<path fill="none" stroke="#000000" stroke-dasharray="5,2" d="M2556.7185,-161.9489C2556.7185,-147.627 2556.7185,-130 2556.7185,-130 2556.7185,-130 3025,-130 3025,-130 3025,-130 3025,-129.2058 3025,-129.2058"/>
<polygon fill="#000000" stroke="#000000" points="3028.5001,-132.0578 3025,-122.0579 3021.5001,-132.0579 3028.5001,-132.0578"/>
</g>
<!-- []  -->
<g id="node25" class="node">
<title>[] </title>
<polygon fill="#fb8072" stroke="#000000" points="2952,-122 2898,-122 2898,-86 2952,-86 2952,-122"/>
<text text-anchor="middle" x="2925" y="-99.8" font-family="Times,serif" font-size="14.00" fill="#000000">[] </text>
</g>
<!-- CoreModule&#45;&gt;[]  -->
<g id="edge25" class="edge">
<title>CoreModule&#45;&gt;[] </title>
<path fill="none" stroke="#000000" stroke-dasharray="5,2" d="M2548.8311,-161.7181C2548.8311,-146.0522 2548.8311,-126 2548.8311,-126 2548.8311,-126 2925,-126 2925,-126 2925,-126 2925,-125.6168 2925,-125.6168"/>
<polygon fill="#000000" stroke="#000000" points="2928.5003,-132.1678 2925,-122.1679 2921.5003,-132.168 2928.5003,-132.1678"/>
</g>
<!-- MaterialModule -->
<g id="node6" class="node">
<title>MaterialModule</title>
<polygon fill="#8dd3c7" stroke="#000000" points="2580.4706,-122 2577.4706,-126 2556.4706,-126 2553.4706,-122 2473.5294,-122 2473.5294,-86 2580.4706,-86 2580.4706,-122"/>
<text text-anchor="middle" x="2527" y="-99.8" font-family="Times,serif" font-size="14.00" fill="#000000">MaterialModule</text>
</g>
<!-- MaterialModule&#45;&gt;AppModule -->
<g id="edge5" class="edge">
<title>MaterialModule&#45;&gt;AppModule</title>
<path fill="none" stroke="#000000" d="M2483.567,-122.0411C2483.567,-159.4476 2483.567,-242 2483.567,-242 2483.567,-242 2369.7795,-242 2369.7795,-242"/>
<polygon fill="#000000" stroke="#000000" points="2369.7796,-238.5001 2359.7795,-242 2369.7795,-245.5001 2369.7796,-238.5001"/>
</g>
<!-- MaterialModule&#45;&gt;CoreModule -->
<g id="edge23" class="edge">
<title>MaterialModule&#45;&gt;CoreModule</title>
<path fill="none" stroke="#000000" d="M2501.5066,-122.0109C2501.5066,-122.0109 2501.5066,-151.855 2501.5066,-151.855"/>
<polygon fill="#000000" stroke="#000000" points="2498.0067,-151.8549 2501.5066,-161.855 2505.0067,-151.855 2498.0067,-151.8549"/>
</g>
<!-- CategoryModule -->
<g id="node15" class="node">
<title>CategoryModule</title>
<polygon fill="#8dd3c7" stroke="#000000" points="5093.3669,-198 5090.3669,-202 5069.3669,-202 5066.3669,-198 4982.6331,-198 4982.6331,-162 5093.3669,-162 5093.3669,-198"/>
<text text-anchor="middle" x="5038" y="-175.8" font-family="Times,serif" font-size="14.00" fill="#000000">CategoryModule</text>
</g>
<!-- MaterialModule&#45;&gt;CategoryModule -->
<g id="edge15" class="edge">
<title>MaterialModule&#45;&gt;CategoryModule</title>
<path fill="none" stroke="#000000" d="M2564.606,-122.2819C2564.606,-137.9478 2564.606,-158 2564.606,-158 2564.606,-158 4998.0213,-158 4998.0213,-158 4998.0213,-158 4998.0213,-158.3832 4998.0213,-158.3832"/>
<polygon fill="#000000" stroke="#000000" points="4994.5216,-151.832 4998.0213,-161.8321 5001.5216,-151.8322 4994.5216,-151.832"/>
</g>
<!-- CheckoutModule -->
<g id="node21" class="node">
<title>CheckoutModule</title>
<polygon fill="#8dd3c7" stroke="#000000" points="6039.7064,-198 6036.7064,-202 6015.7064,-202 6012.7064,-198 5926.2936,-198 5926.2936,-162 6039.7064,-162 6039.7064,-198"/>
<text text-anchor="middle" x="5983" y="-175.8" font-family="Times,serif" font-size="14.00" fill="#000000">CheckoutModule</text>
</g>
<!-- MaterialModule&#45;&gt;CheckoutModule -->
<g id="edge20" class="edge">
<title>MaterialModule&#45;&gt;CheckoutModule</title>
<path fill="none" stroke="#000000" d="M2572.4934,-122.0511C2572.4934,-136.373 2572.4934,-154 2572.4934,-154 2572.4934,-154 5946.6484,-154 5946.6484,-154 5946.6484,-154 5946.6484,-154.7942 5946.6484,-154.7942"/>
<polygon fill="#000000" stroke="#000000" points="5943.1486,-151.9421 5946.6484,-161.9421 5950.1486,-151.9422 5943.1486,-151.9421"/>
</g>
<!-- ProductModule -->
<g id="node35" class="node">
<title>ProductModule</title>
<polygon fill="#8dd3c7" stroke="#000000" points="4242.5982,-198 4239.5982,-202 4218.5982,-202 4215.5982,-198 4139.4018,-198 4139.4018,-162 4242.5982,-162 4242.5982,-198"/>
<text text-anchor="middle" x="4191" y="-175.8" font-family="Times,serif" font-size="14.00" fill="#000000">ProductModule</text>
</g>
<!-- MaterialModule&#45;&gt;ProductModule -->
<g id="edge35" class="edge">
<title>MaterialModule&#45;&gt;ProductModule</title>
<path fill="none" stroke="#000000" d="M2580.5072,-98C2640.5445,-98 2729.6434,-98 2729.6434,-98 2729.6434,-98 2729.6434,-184 2729.6434,-184 2729.6434,-184 4129.4188,-184 4129.4188,-184"/>
<polygon fill="#000000" stroke="#000000" points="4129.4188,-187.5001 4139.4188,-184 4129.4188,-180.5001 4129.4188,-187.5001"/>
</g>
<!-- StellarAccountService -->
<g id="node8" class="node">
<title>StellarAccountService</title>
<ellipse fill="#fdb462" stroke="#000000" cx="2112" cy="-180" rx="97.8266" ry="18"/>
<text text-anchor="middle" x="2112" y="-175.8" font-family="Times,serif" font-size="14.00" fill="#000000">StellarAccountService</text>
</g>
<!-- StellarAccountService&#45;&gt;AppModule -->
<g id="edge7" class="edge">
<title>StellarAccountService&#45;&gt;AppModule</title>
<path fill="none" stroke="#000000" d="M2204.5365,-186C2246.4736,-186 2286.834,-186 2286.834,-186 2286.834,-186 2286.834,-219.7333 2286.834,-219.7333"/>
<polygon fill="#000000" stroke="#000000" points="2283.3341,-219.7333 2286.834,-229.7333 2290.3341,-219.7333 2283.3341,-219.7333"/>
</g>
<!-- StellarPaymentService -->
<g id="node9" class="node">
<title>StellarPaymentService</title>
<ellipse fill="#fdb462" stroke="#000000" cx="1897" cy="-180" rx="98.9878" ry="18"/>
<text text-anchor="middle" x="1897" y="-175.8" font-family="Times,serif" font-size="14.00" fill="#000000">StellarPaymentService</text>
</g>
<!-- StellarPaymentService&#45;&gt;AppModule -->
<g id="edge8" class="edge">
<title>StellarPaymentService&#45;&gt;AppModule</title>
<path fill="none" stroke="#000000" d="M1897,-198.2667C1897,-216.5552 1897,-242 1897,-242 1897,-242 2266.0938,-242 2266.0938,-242"/>
<polygon fill="#000000" stroke="#000000" points="2266.0938,-245.5001 2276.0938,-242 2266.0937,-238.5001 2266.0938,-245.5001"/>
</g>
<!-- UserService -->
<g id="node10" class="node">
<title>UserService</title>
<ellipse fill="#fdb462" stroke="#000000" cx="1722" cy="-180" rx="58.4415" ry="18"/>
<text text-anchor="middle" x="1722" y="-175.8" font-family="Times,serif" font-size="14.00" fill="#000000">UserService</text>
</g>
<!-- UserService&#45;&gt;AppModule -->
<g id="edge9" class="edge">
<title>UserService&#45;&gt;AppModule</title>
<path fill="none" stroke="#000000" d="M1722,-198.2921C1722,-220.2057 1722,-254 1722,-254 1722,-254 2266.0904,-254 2266.0904,-254"/>
<polygon fill="#000000" stroke="#000000" points="2266.0905,-257.5001 2276.0904,-254 2266.0904,-250.5001 2266.0905,-257.5001"/>
</g>
<!-- CategoryFeedComponent -->
<g id="node11" class="node">
<title>CategoryFeedComponent</title>
<polygon fill="#ffffb3" stroke="#000000" points="5206.8613,-122 5047.1387,-122 5047.1387,-86 5206.8613,-86 5206.8613,-122"/>
<text text-anchor="middle" x="5127" y="-99.8" font-family="Times,serif" font-size="14.00" fill="#000000">CategoryFeedComponent</text>
</g>
<!-- CategoryFeedComponent&#45;&gt;CategoryModule -->
<g id="edge10" class="edge">
<title>CategoryFeedComponent&#45;&gt;CategoryModule</title>
<path fill="none" stroke="#000000" d="M5070.2514,-122.0109C5070.2514,-122.0109 5070.2514,-151.855 5070.2514,-151.855"/>
<polygon fill="#000000" stroke="#000000" points="5066.7515,-151.8549 5070.2514,-161.855 5073.7515,-151.855 5066.7515,-151.8549"/>
</g>
<!-- CategoryPageComponent -->
<g id="node12" class="node">
<title>CategoryPageComponent</title>
<polygon fill="#ffffb3" stroke="#000000" points="5028.8613,-122 4869.1387,-122 4869.1387,-86 5028.8613,-86 5028.8613,-122"/>
<text text-anchor="middle" x="4949" y="-99.8" font-family="Times,serif" font-size="14.00" fill="#000000">CategoryPageComponent</text>
</g>
<!-- CategoryPageComponent&#45;&gt;CategoryModule -->
<g id="edge11" class="edge">
<title>CategoryPageComponent&#45;&gt;CategoryModule</title>
<path fill="none" stroke="#000000" d="M5013.4759,-122.0109C5013.4759,-122.0109 5013.4759,-151.855 5013.4759,-151.855"/>
<polygon fill="#000000" stroke="#000000" points="5009.976,-151.8549 5013.4759,-161.855 5016.976,-151.855 5009.976,-151.8549"/>
</g>
<!-- CategoryCardComponent -->
<g id="node13" class="node">
<title>CategoryCardComponent</title>
<polygon fill="#ffffb3" stroke="#000000" points="5606.8613,-122 5447.1387,-122 5447.1387,-86 5606.8613,-86 5606.8613,-122"/>
<text text-anchor="middle" x="5527" y="-99.8" font-family="Times,serif" font-size="14.00" fill="#000000">CategoryCardComponent</text>
</g>
<!-- CategoryCardComponent&#45;&gt;CategoryModule -->
<g id="edge12" class="edge">
<title>CategoryCardComponent&#45;&gt;CategoryModule</title>
<path fill="none" stroke="#000000" d="M5527,-122.0109C5527,-144.4852 5527,-180 5527,-180 5527,-180 5103.6184,-180 5103.6184,-180"/>
<polygon fill="#000000" stroke="#000000" points="5103.6185,-176.5001 5093.6184,-180 5103.6184,-183.5001 5103.6185,-176.5001"/>
</g>
<!-- CategoryProductCardComponent -->
<g id="node14" class="node">
<title>CategoryProductCardComponent</title>
<polygon fill="#ffffb3" stroke="#000000" points="5428.91,-122 5225.09,-122 5225.09,-86 5428.91,-86 5428.91,-122"/>
<text text-anchor="middle" x="5327" y="-99.8" font-family="Times,serif" font-size="14.00" fill="#000000">CategoryProductCardComponent</text>
</g>
<!-- CategoryProductCardComponent&#45;&gt;CategoryModule -->
<g id="edge13" class="edge">
<title>CategoryProductCardComponent&#45;&gt;CategoryModule</title>
<path fill="none" stroke="#000000" d="M5327,-122.308C5327,-142.1455 5327,-171 5327,-171 5327,-171 5103.3802,-171 5103.3802,-171"/>
<polygon fill="#000000" stroke="#000000" points="5103.3802,-167.5001 5093.3802,-171 5103.3801,-174.5001 5103.3802,-167.5001"/>
</g>
<!-- CategoryRoutingModule -->
<g id="node16" class="node">
<title>CategoryRoutingModule</title>
<polygon fill="#8dd3c7" stroke="#000000" points="4844.9846,-122 4841.9846,-126 4820.9846,-126 4817.9846,-122 4689.0154,-122 4689.0154,-86 4844.9846,-86 4844.9846,-122"/>
<text text-anchor="middle" x="4767" y="-99.8" font-family="Times,serif" font-size="14.00" fill="#000000">CategoryRoutingModule</text>
</g>
<!-- CategoryRoutingModule&#45;&gt;CategoryModule -->
<g id="edge14" class="edge">
<title>CategoryRoutingModule&#45;&gt;CategoryModule</title>
<path fill="none" stroke="#000000" d="M4767,-122.1686C4767,-141.0898 4767,-168 4767,-168 4767,-168 4972.5052,-168 4972.5052,-168"/>
<polygon fill="#000000" stroke="#000000" points="4972.5052,-171.5001 4982.5052,-168 4972.5051,-164.5001 4972.5052,-171.5001"/>
</g>
<!-- CartComponent -->
<g id="node17" class="node">
<title>CartComponent</title>
<polygon fill="#ffffb3" stroke="#000000" points="6110.9357,-122 6005.0643,-122 6005.0643,-86 6110.9357,-86 6110.9357,-122"/>
<text text-anchor="middle" x="6058" y="-99.8" font-family="Times,serif" font-size="14.00" fill="#000000">CartComponent</text>
</g>
<!-- CartComponent&#45;&gt;CheckoutModule -->
<g id="edge16" class="edge">
<title>CartComponent&#45;&gt;CheckoutModule</title>
<path fill="none" stroke="#000000" d="M6022.4429,-122.0109C6022.4429,-122.0109 6022.4429,-151.855 6022.4429,-151.855"/>
<polygon fill="#000000" stroke="#000000" points="6018.9429,-151.8549 6022.4429,-161.855 6025.9429,-151.855 6018.9429,-151.8549"/>
</g>
<!-- CartItemCardComponent -->
<g id="node18" class="node">
<title>CartItemCardComponent</title>
<polygon fill="#ffffb3" stroke="#000000" points="5987.3033,-122 5828.6967,-122 5828.6967,-86 5987.3033,-86 5987.3033,-122"/>
<text text-anchor="middle" x="5908" y="-99.8" font-family="Times,serif" font-size="14.00" fill="#000000">CartItemCardComponent</text>
</g>
<!-- CartItemCardComponent&#45;&gt;CheckoutModule -->
<g id="edge17" class="edge">
<title>CartItemCardComponent&#45;&gt;CheckoutModule</title>
<path fill="none" stroke="#000000" d="M5966.9,-122.0109C5966.9,-122.0109 5966.9,-151.855 5966.9,-151.855"/>
<polygon fill="#000000" stroke="#000000" points="5963.4001,-151.8549 5966.9,-161.855 5970.4001,-151.855 5963.4001,-151.8549"/>
</g>
<!-- CheckoutComponent -->
<g id="node19" class="node">
<title>CheckoutComponent</title>
<polygon fill="#ffffb3" stroke="#000000" points="6470.4888,-122 6335.5112,-122 6335.5112,-86 6470.4888,-86 6470.4888,-122"/>
<text text-anchor="middle" x="6403" y="-99.8" font-family="Times,serif" font-size="14.00" fill="#000000">CheckoutComponent</text>
</g>
<!-- CheckoutComponent&#45;&gt;CheckoutModule -->
<g id="edge18" class="edge">
<title>CheckoutComponent&#45;&gt;CheckoutModule</title>
<path fill="none" stroke="#000000" d="M6403,-122.1985C6403,-146.3563 6403,-186 6403,-186 6403,-186 6049.6431,-186 6049.6431,-186"/>
<polygon fill="#000000" stroke="#000000" points="6049.6431,-182.5001 6039.6431,-186 6049.643,-189.5001 6049.6431,-182.5001"/>
</g>
<!-- OrderConfirmationComponent -->
<g id="node20" class="node">
<title>OrderConfirmationComponent</title>
<polygon fill="#ffffb3" stroke="#000000" points="6317.91,-122 6128.09,-122 6128.09,-86 6317.91,-86 6317.91,-122"/>
<text text-anchor="middle" x="6223" y="-99.8" font-family="Times,serif" font-size="14.00" fill="#000000">OrderConfirmationComponent</text>
</g>
<!-- OrderConfirmationComponent&#45;&gt;CheckoutModule -->
<g id="edge19" class="edge">
<title>OrderConfirmationComponent&#45;&gt;CheckoutModule</title>
<path fill="none" stroke="#000000" d="M6223,-122.0267C6223,-142.7672 6223,-174 6223,-174 6223,-174 6049.8766,-174 6049.8766,-174"/>
<polygon fill="#000000" stroke="#000000" points="6049.8767,-170.5001 6039.8766,-174 6049.8766,-177.5001 6049.8767,-170.5001"/>
</g>
<!-- CheckoutRoutingModule -->
<g id="node22" class="node">
<title>CheckoutRoutingModule</title>
<polygon fill="#8dd3c7" stroke="#000000" points="5805.3243,-122 5802.3243,-126 5781.3243,-126 5778.3243,-122 5646.6757,-122 5646.6757,-86 5805.3243,-86 5805.3243,-122"/>
<text text-anchor="middle" x="5726" y="-99.8" font-family="Times,serif" font-size="14.00" fill="#000000">CheckoutRoutingModule</text>
</g>
<!-- CheckoutRoutingModule&#45;&gt;CheckoutModule -->
<g id="edge21" class="edge">
<title>CheckoutRoutingModule&#45;&gt;CheckoutModule</title>
<path fill="none" stroke="#000000" d="M5726,-122.0263C5726,-146.9773 5726,-189 5726,-189 5726,-189 5916.2821,-189 5916.2821,-189"/>
<polygon fill="#000000" stroke="#000000" points="5916.2821,-192.5001 5926.2821,-189 5916.2821,-185.5001 5916.2821,-192.5001"/>
</g>
<!-- NavBarComponent -->
<g id="node23" class="node">
<title>NavBarComponent</title>
<polygon fill="#ffffb3" stroke="#000000" points="2874.3655,-122 2749.6345,-122 2749.6345,-86 2874.3655,-86 2874.3655,-122"/>
<text text-anchor="middle" x="2812" y="-99.8" font-family="Times,serif" font-size="14.00" fill="#000000">NavBarComponent</text>
</g>
<!-- NavBarComponent&#45;&gt;CoreModule -->
<g id="edge22" class="edge">
<title>NavBarComponent&#45;&gt;CoreModule</title>
<path fill="none" stroke="#000000" d="M2749.3605,-110C2684.4476,-110 2592.3829,-110 2592.3829,-110 2592.3829,-110 2592.3829,-180 2592.3829,-180 2592.3829,-180 2590.3656,-180 2590.3656,-180"/>
<polygon fill="#000000" stroke="#000000" points="2590.3657,-176.5001 2580.3656,-180 2590.3656,-183.5001 2590.3657,-176.5001"/>
</g>
<!-- AuthGuardService -->
<g id="node26" class="node">
<title>AuthGuardService</title>
<ellipse fill="#fdb462" stroke="#000000" cx="3187" cy="-104" rx="83.3674" ry="18"/>
<text text-anchor="middle" x="3187" y="-99.8" font-family="Times,serif" font-size="14.00" fill="#000000">AuthGuardService</text>
</g>
<!-- AuthGuardService&#45;&gt;CoreModule -->
<g id="edge26" class="edge">
<title>AuthGuardService&#45;&gt;CoreModule</title>
<path fill="none" stroke="#000000" d="M3187,-122.1432C3187,-128.4611 3187,-134 3187,-134 3187,-134 2509.394,-134 2509.394,-134 2509.394,-134 2509.394,-151.8196 2509.394,-151.8196"/>
<polygon fill="#000000" stroke="#000000" points="2505.8941,-151.8195 2509.394,-161.8196 2512.8941,-151.8196 2505.8941,-151.8195"/>
</g>
<!-- EventEmitterService -->
<g id="node27" class="node">
<title>EventEmitterService</title>
<ellipse fill="#fdb462" stroke="#000000" cx="3654" cy="-104" rx="91.4654" ry="18"/>
<text text-anchor="middle" x="3654" y="-99.8" font-family="Times,serif" font-size="14.00" fill="#000000">EventEmitterService</text>
</g>
<!-- EventEmitterService&#45;&gt;CoreModule -->
<g id="edge27" class="edge">
<title>EventEmitterService&#45;&gt;CoreModule</title>
<path fill="none" stroke="#000000" d="M3654,-122.0555C3654,-133.439 3654,-146 3654,-146 3654,-146 2533.0563,-146 2533.0563,-146 2533.0563,-146 2533.0563,-151.8056 2533.0563,-151.8056"/>
<polygon fill="#000000" stroke="#000000" points="2529.5564,-151.8055 2533.0563,-161.8056 2536.5564,-151.8056 2529.5564,-151.8055"/>
</g>
<!-- ProductService -->
<g id="node28" class="node">
<title>ProductService</title>
<ellipse fill="#fdb462" stroke="#000000" cx="3834" cy="-104" rx="70.0616" ry="18"/>
<text text-anchor="middle" x="3834" y="-99.8" font-family="Times,serif" font-size="14.00" fill="#000000">ProductService</text>
</g>
<!-- ProductService&#45;&gt;CoreModule -->
<g id="edge28" class="edge">
<title>ProductService&#45;&gt;CoreModule</title>
<path fill="none" stroke="#000000" d="M3810.6564,-121.1287C3810.6564,-134.2072 3810.6564,-150 3810.6564,-150 3810.6564,-150 2540.9437,-150 2540.9437,-150 2540.9437,-150 2540.9437,-151.8568 2540.9437,-151.8568"/>
<polygon fill="#000000" stroke="#000000" points="2537.4438,-151.8568 2540.9437,-161.8568 2544.4438,-151.8568 2537.4438,-151.8568"/>
</g>
<!-- ProductService&#45;&gt;ProductModule -->
<g id="edge40" class="edge">
<title>ProductService&#45;&gt;ProductModule</title>
<path fill="none" stroke="#000000" d="M3857.3436,-121.3C3857.3436,-142.8871 3857.3436,-177 3857.3436,-177 3857.3436,-177 4129.2323,-177 4129.2323,-177"/>
<polygon fill="#000000" stroke="#000000" points="4129.2323,-180.5001 4139.2323,-177 4129.2322,-173.5001 4129.2323,-180.5001"/>
</g>
<!-- CartService -->
<g id="node29" class="node">
<title>CartService</title>
<ellipse fill="#fdb462" stroke="#000000" cx="3345" cy="-104" rx="56.7348" ry="18"/>
<text text-anchor="middle" x="3345" y="-99.8" font-family="Times,serif" font-size="14.00" fill="#000000">CartService</text>
</g>
<!-- CartService&#45;&gt;CoreModule -->
<g id="edge29" class="edge">
<title>CartService&#45;&gt;CoreModule</title>
<path fill="none" stroke="#000000" d="M3345,-122.1944C3345,-130.2782 3345,-138 3345,-138 3345,-138 2517.2815,-138 2517.2815,-138 2517.2815,-138 2517.2815,-151.9445 2517.2815,-151.9445"/>
<polygon fill="#000000" stroke="#000000" points="2513.7816,-151.9444 2517.2815,-161.9445 2520.7816,-151.9445 2513.7816,-151.9444"/>
</g>
<!-- OrderService -->
<g id="node30" class="node">
<title>OrderService</title>
<ellipse fill="#fdb462" stroke="#000000" cx="3482" cy="-104" rx="62.516" ry="18"/>
<text text-anchor="middle" x="3482" y="-99.8" font-family="Times,serif" font-size="14.00" fill="#000000">OrderService</text>
</g>
<!-- OrderService&#45;&gt;CoreModule -->
<g id="edge30" class="edge">
<title>OrderService&#45;&gt;CoreModule</title>
<path fill="none" stroke="#000000" d="M3482,-122.1097C3482,-131.897 3482,-142 3482,-142 3482,-142 2525.1689,-142 2525.1689,-142 2525.1689,-142 2525.1689,-151.8903 2525.1689,-151.8903"/>
<polygon fill="#000000" stroke="#000000" points="2521.669,-151.8903 2525.1689,-161.8903 2528.669,-151.8904 2521.669,-151.8903"/>
</g>
<!-- ProductCardComponent -->
<g id="node31" class="node">
<title>ProductCardComponent</title>
<polygon fill="#ffffb3" stroke="#000000" points="4262.0926,-122 4109.9074,-122 4109.9074,-86 4262.0926,-86 4262.0926,-122"/>
<text text-anchor="middle" x="4186" y="-99.8" font-family="Times,serif" font-size="14.00" fill="#000000">ProductCardComponent</text>
</g>
<!-- ProductCardComponent&#45;&gt;ProductModule -->
<g id="edge31" class="edge">
<title>ProductCardComponent&#45;&gt;ProductModule</title>
<path fill="none" stroke="#000000" d="M4191,-122.0109C4191,-122.0109 4191,-151.855 4191,-151.855"/>
<polygon fill="#000000" stroke="#000000" points="4187.5001,-151.8549 4191,-161.855 4194.5001,-151.855 4187.5001,-151.8549"/>
</g>
<!-- SellerPageComponent -->
<g id="node32" class="node">
<title>SellerPageComponent</title>
<polygon fill="#ffffb3" stroke="#000000" points="4091.6979,-122 3950.3021,-122 3950.3021,-86 4091.6979,-86 4091.6979,-122"/>
<text text-anchor="middle" x="4021" y="-99.8" font-family="Times,serif" font-size="14.00" fill="#000000">SellerPageComponent</text>
</g>
<!-- SellerPageComponent&#45;&gt;ProductModule -->
<g id="edge32" class="edge">
<title>SellerPageComponent&#45;&gt;ProductModule</title>
<path fill="none" stroke="#000000" d="M4021,-122.0348C4021,-141.5762 4021,-170 4021,-170 4021,-170 4129.0707,-170 4129.0707,-170"/>
<polygon fill="#000000" stroke="#000000" points="4129.0707,-173.5001 4139.0707,-170 4129.0706,-166.5001 4129.0707,-173.5001"/>
</g>
<!-- ProductsHomePageComponent -->
<g id="node33" class="node">
<title>ProductsHomePageComponent</title>
<polygon fill="#ffffb3" stroke="#000000" points="4641.7492,-122 4450.2508,-122 4450.2508,-86 4641.7492,-86 4641.7492,-122"/>
<text text-anchor="middle" x="4546" y="-99.8" font-family="Times,serif" font-size="14.00" fill="#000000">ProductsHomePageComponent</text>
</g>
<!-- ProductsHomePageComponent&#45;&gt;ProductModule -->
<g id="edge33" class="edge">
<title>ProductsHomePageComponent&#45;&gt;ProductModule</title>
<path fill="none" stroke="#000000" d="M4468.375,-122.0109C4468.375,-144.4852 4468.375,-180 4468.375,-180 4468.375,-180 4252.8467,-180 4252.8467,-180"/>
<polygon fill="#000000" stroke="#000000" points="4252.8468,-176.5001 4242.8467,-180 4252.8467,-183.5001 4252.8468,-176.5001"/>
</g>
<!-- ProductPageComponent -->
<g id="node34" class="node">
<title>ProductPageComponent</title>
<polygon fill="#ffffb3" stroke="#000000" points="4432.0926,-122 4279.9074,-122 4279.9074,-86 4432.0926,-86 4432.0926,-122"/>
<text text-anchor="middle" x="4356" y="-99.8" font-family="Times,serif" font-size="14.00" fill="#000000">ProductPageComponent</text>
</g>
<!-- ProductPageComponent&#45;&gt;ProductModule -->
<g id="edge34" class="edge">
<title>ProductPageComponent&#45;&gt;ProductModule</title>
<path fill="none" stroke="#000000" d="M4285.6646,-122.0267C4285.6646,-142.7672 4285.6646,-174 4285.6646,-174 4285.6646,-174 4252.7639,-174 4252.7639,-174"/>
<polygon fill="#000000" stroke="#000000" points="4252.764,-170.5001 4242.7639,-174 4252.7639,-177.5001 4252.764,-170.5001"/>
</g>
<!-- ProductCardComponent  -->
<g id="node36" class="node">
<title>ProductCardComponent </title>
<polygon fill="#fb8072" stroke="#000000" points="4099.5931,-266 3944.4069,-266 3944.4069,-230 4099.5931,-230 4099.5931,-266"/>
<text text-anchor="middle" x="4022" y="-243.8" font-family="Times,serif" font-size="14.00" fill="#000000">ProductCardComponent </text>
</g>
<!-- ProductModule&#45;&gt;ProductCardComponent  -->
<g id="edge36" class="edge">
<title>ProductModule&#45;&gt;ProductCardComponent </title>
<path fill="none" stroke="#000000" stroke-dasharray="5,2" d="M4139.4438,-191C4116.9885,-191 4095.6976,-191 4095.6976,-191 4095.6976,-191 4095.6976,-219.9648 4095.6976,-219.9648"/>
<polygon fill="#000000" stroke="#000000" points="4092.1977,-219.9648 4095.6976,-229.9648 4099.1977,-219.9649 4092.1977,-219.9648"/>
</g>
<!-- SellerPageComponent  -->
<g id="node37" class="node">
<title>SellerPageComponent </title>
<polygon fill="#fb8072" stroke="#000000" points="4649.1981,-266 4504.8019,-266 4504.8019,-230 4649.1981,-230 4649.1981,-266"/>
<text text-anchor="middle" x="4577" y="-243.8" font-family="Times,serif" font-size="14.00" fill="#000000">SellerPageComponent </text>
</g>
<!-- ProductModule&#45;&gt;SellerPageComponent  -->
<g id="edge37" class="edge">
<title>ProductModule&#45;&gt;SellerPageComponent </title>
<path fill="none" stroke="#000000" stroke-dasharray="5,2" d="M4242.5537,-186C4346.895,-186 4573.2628,-186 4573.2628,-186 4573.2628,-186 4573.2628,-219.7333 4573.2628,-219.7333"/>
<polygon fill="#000000" stroke="#000000" points="4569.7629,-219.7333 4573.2628,-229.7333 4576.7629,-219.7333 4569.7629,-219.7333"/>
</g>
<!-- ProductsHomePageComponent  -->
<g id="node38" class="node">
<title>ProductsHomePageComponent </title>
<polygon fill="#fb8072" stroke="#000000" points="4486.7492,-266 4291.2508,-266 4291.2508,-230 4486.7492,-230 4486.7492,-266"/>
<text text-anchor="middle" x="4389" y="-243.8" font-family="Times,serif" font-size="14.00" fill="#000000">ProductsHomePageComponent </text>
</g>
<!-- ProductModule&#45;&gt;ProductsHomePageComponent  -->
<g id="edge38" class="edge">
<title>ProductModule&#45;&gt;ProductsHomePageComponent </title>
<path fill="none" stroke="#000000" stroke-dasharray="5,2" d="M4242.6822,-192C4292.9268,-192 4361.7109,-192 4361.7109,-192 4361.7109,-192 4361.7109,-219.973 4361.7109,-219.973"/>
<polygon fill="#000000" stroke="#000000" points="4358.211,-219.973 4361.7109,-229.973 4365.211,-219.973 4358.211,-219.973"/>
</g>
<!-- ProductPageComponent  -->
<g id="node39" class="node">
<title>ProductPageComponent </title>
<polygon fill="#fb8072" stroke="#000000" points="4273.5931,-266 4118.4069,-266 4118.4069,-230 4273.5931,-230 4273.5931,-266"/>
<text text-anchor="middle" x="4196" y="-243.8" font-family="Times,serif" font-size="14.00" fill="#000000">ProductPageComponent </text>
</g>
<!-- ProductModule&#45;&gt;ProductPageComponent  -->
<g id="edge39" class="edge">
<title>ProductModule&#45;&gt;ProductPageComponent </title>
<path fill="none" stroke="#000000" stroke-dasharray="5,2" d="M4191,-198.2228C4191,-198.2228 4191,-219.7269 4191,-219.7269"/>
<polygon fill="#000000" stroke="#000000" points="4187.5001,-219.7269 4191,-229.7269 4194.5001,-219.727 4187.5001,-219.7269"/>
</g>
<!-- AbstractFormComponent -->
<g id="node40" class="node">
<title>AbstractFormComponent</title>
<polygon fill="#ffffb3" stroke="#000000" points="1141.5884,-198 982.4116,-198 982.4116,-162 1141.5884,-162 1141.5884,-198"/>
<text text-anchor="middle" x="1062" y="-175.8" font-family="Times,serif" font-size="14.00" fill="#000000">AbstractFormComponent</text>
</g>
<!-- AbstractFormComponent&#45;&gt;UIModule -->
<g id="edge41" class="edge">
<title>AbstractFormComponent&#45;&gt;UIModule</title>
<path fill="none" stroke="#000000" d="M1062,-161.7157C1062,-140.6789 1062,-109 1062,-109 1062,-109 2223.8248,-109 2223.8248,-109"/>
<polygon fill="#000000" stroke="#000000" points="2223.8248,-112.5001 2233.8248,-109 2223.8247,-105.5001 2223.8248,-112.5001"/>
</g>
<!-- ProfileComponent -->
<g id="node41" class="node">
<title>ProfileComponent</title>
<polygon fill="#ffffb3" stroke="#000000" points="964.9328,-198 845.0672,-198 845.0672,-162 964.9328,-162 964.9328,-198"/>
<text text-anchor="middle" x="905" y="-175.8" font-family="Times,serif" font-size="14.00" fill="#000000">ProfileComponent</text>
</g>
<!-- ProfileComponent&#45;&gt;UIModule -->
<g id="edge42" class="edge">
<title>ProfileComponent&#45;&gt;UIModule</title>
<path fill="none" stroke="#000000" d="M905,-161.7079C905,-139.7943 905,-106 905,-106 905,-106 2223.7544,-106 2223.7544,-106"/>
<polygon fill="#000000" stroke="#000000" points="2223.7544,-109.5001 2233.7544,-106 2223.7543,-102.5001 2223.7544,-109.5001"/>
</g>
<!-- WelcomeComponent -->
<g id="node42" class="node">
<title>WelcomeComponent</title>
<polygon fill="#ffffb3" stroke="#000000" points="1624.472,-198 1489.528,-198 1489.528,-162 1624.472,-162 1624.472,-198"/>
<text text-anchor="middle" x="1557" y="-175.8" font-family="Times,serif" font-size="14.00" fill="#000000">WelcomeComponent</text>
</g>
<!-- WelcomeComponent&#45;&gt;UIModule -->
<g id="edge43" class="edge">
<title>WelcomeComponent&#45;&gt;UIModule</title>
<path fill="none" stroke="#000000" d="M1557,-161.698C1557,-143.7301 1557,-119 1557,-119 1557,-119 2223.6175,-119 2223.6175,-119"/>
<polygon fill="#000000" stroke="#000000" points="2223.6176,-122.5001 2233.6175,-119 2223.6175,-115.5001 2223.6176,-122.5001"/>
</g>
<!-- RegisterComponent -->
<g id="node43" class="node">
<title>RegisterComponent</title>
<polygon fill="#ffffb3" stroke="#000000" points="1471.9846,-198 1344.0154,-198 1344.0154,-162 1471.9846,-162 1471.9846,-198"/>
<text text-anchor="middle" x="1408" y="-175.8" font-family="Times,serif" font-size="14.00" fill="#000000">RegisterComponent</text>
</g>
<!-- RegisterComponent&#45;&gt;UIModule -->
<g id="edge44" class="edge">
<title>RegisterComponent&#45;&gt;UIModule</title>
<path fill="none" stroke="#000000" d="M1408,-161.8314C1408,-142.9102 1408,-116 1408,-116 1408,-116 2223.641,-116 2223.641,-116"/>
<polygon fill="#000000" stroke="#000000" points="2223.641,-119.5001 2233.641,-116 2223.6409,-112.5001 2223.641,-119.5001"/>
</g>
<!-- ConfirmDialogComponent -->
<g id="node44" class="node">
<title>ConfirmDialogComponent</title>
<polygon fill="#ffffb3" stroke="#000000" points="1326.3738,-198 1159.6262,-198 1159.6262,-162 1326.3738,-162 1326.3738,-198"/>
<text text-anchor="middle" x="1243" y="-175.8" font-family="Times,serif" font-size="14.00" fill="#000000">ConfirmDialogComponent</text>
</g>
<!-- ConfirmDialogComponent&#45;&gt;UIModule -->
<g id="edge45" class="edge">
<title>ConfirmDialogComponent&#45;&gt;UIModule</title>
<path fill="none" stroke="#000000" d="M1243,-161.692C1243,-141.8545 1243,-113 1243,-113 1243,-113 2223.8056,-113 2223.8056,-113"/>
<polygon fill="#000000" stroke="#000000" points="2223.8057,-116.5001 2233.8056,-113 2223.8056,-109.5001 2223.8057,-116.5001"/>
</g>
</g>
</svg>
