<?xml version="1.0" encoding="UTF-8" standalone="no"?>
<!DOCTYPE svg PUBLIC "-//W3C//DTD SVG 1.1//EN"
 "http://www.w3.org/Graphics/SVG/1.1/DTD/svg11.dtd">
<!-- Generated by graphviz version 2.40.1 (20161225.0304)
 -->
<!-- Title: dependencies Pages: 1 -->
<svg width="723pt" height="284pt"
 viewBox="0.00 0.00 723.00 284.00" xmlns="http://www.w3.org/2000/svg" xmlns:xlink="http://www.w3.org/1999/xlink">
<g id="graph0" class="graph" transform="scale(1 1) rotate(0) translate(4 280)">
<title>dependencies</title>
<polygon fill="#ffffff" stroke="transparent" points="-4,4 -4,-280 719,-280 719,4 -4,4"/>
<text text-anchor="start" x="336.5091" y="-42.4" font-family="sans-serif" font-weight="bold" font-size="14.00" fill="#000000">Legend</text>
<polygon fill="#ffffb3" stroke="transparent" points="123.5,-10 123.5,-30 143.5,-30 143.5,-10 123.5,-10"/>
<text text-anchor="start" x="147.129" y="-15.4" font-family="sans-serif" font-size="14.00" fill="#000000"> &#160;Declarations</text>
<polygon fill="#8dd3c7" stroke="transparent" points="236.5,-10 236.5,-30 256.5,-30 256.5,-10 236.5,-10"/>
<text text-anchor="start" x="260.2251" y="-15.4" font-family="sans-serif" font-size="14.00" fill="#000000"> &#160;Module</text>
<polygon fill="#80b1d3" stroke="transparent" points="322.5,-10 322.5,-30 342.5,-30 342.5,-10 322.5,-10"/>
<text text-anchor="start" x="346.2812" y="-15.4" font-family="sans-serif" font-size="14.00" fill="#000000"> &#160;Bootstrap</text>
<polygon fill="#fdb462" stroke="transparent" points="419.5,-10 419.5,-30 439.5,-30 439.5,-10 419.5,-10"/>
<text text-anchor="start" x="443.1732" y="-15.4" font-family="sans-serif" font-size="14.00" fill="#000000"> &#160;Providers</text>
<polygon fill="#fb8072" stroke="transparent" points="515.5,-10 515.5,-30 535.5,-30 535.5,-10 515.5,-10"/>
<text text-anchor="start" x="539.2258" y="-15.4" font-family="sans-serif" font-size="14.00" fill="#000000"> &#160;Exports</text>
<g id="clust1" class="cluster">
<title>cluster_UserModule</title>
<polygon fill="none" stroke="#000000" stroke-dasharray="1,5" points="8,-70 8,-268 707,-268 707,-70 8,-70"/>
</g>
<g id="clust2" class="cluster">
<title>cluster_UserModule_declarations</title>
<polygon fill="none" stroke="#000000" points="263,-78 263,-130 699,-130 699,-78 263,-78"/>
</g>
<g id="clust6" class="cluster">
<title>cluster_UserModule_imports</title>
<polygon fill="none" stroke="#000000" points="16,-78 16,-130 255,-130 255,-78 16,-78"/>
</g>
<g id="clust7" class="cluster">
<title>cluster_UserModule_exports</title>
<polygon fill="none" stroke="#000000" points="107,-208 107,-260 554,-260 554,-208 107,-208"/>
</g>
<!-- ProfileComponent -->
<g id="node1" class="node">
<title>ProfileComponent</title>
<polygon fill="#ffffb3" stroke="#000000" points="690.9328,-122 571.0672,-122 571.0672,-86 690.9328,-86 690.9328,-122"/>
<text text-anchor="middle" x="631" y="-99.8" font-family="Times,serif" font-size="14.00" fill="#000000">ProfileComponent</text>
</g>
<!-- UserModule -->
<g id="node4" class="node">
<title>UserModule</title>
<polygon fill="#8dd3c7" stroke="#000000" points="378.9762,-187 375.9762,-191 354.9762,-191 351.9762,-187 293.0238,-187 293.0238,-151 378.9762,-151 378.9762,-187"/>
<text text-anchor="middle" x="336" y="-164.8" font-family="Times,serif" font-size="14.00" fill="#000000">UserModule</text>
</g>
<!-- ProfileComponent&#45;&gt;UserModule -->
<g id="edge1" class="edge">
<title>ProfileComponent&#45;&gt;UserModule</title>
<path fill="none" stroke="#000000" d="M631,-122.1061C631,-141.3391 631,-169 631,-169 631,-169 389.2115,-169 389.2115,-169"/>
<polygon fill="#000000" stroke="#000000" points="389.2115,-165.5001 379.2115,-169 389.2114,-172.5001 389.2115,-165.5001"/>
</g>
<!-- UserCardComponent -->
<g id="node2" class="node">
<title>UserCardComponent</title>
<polygon fill="#ffffb3" stroke="#000000" points="553.4706,-122 418.5294,-122 418.5294,-86 553.4706,-86 553.4706,-122"/>
<text text-anchor="middle" x="486" y="-99.8" font-family="Times,serif" font-size="14.00" fill="#000000">UserCardComponent</text>
</g>
<!-- UserCardComponent&#45;&gt;UserModule -->
<g id="edge2" class="edge">
<title>UserCardComponent&#45;&gt;UserModule</title>
<path fill="none" stroke="#000000" d="M464.5113,-122.027C464.5113,-138.3976 464.5113,-160 464.5113,-160 464.5113,-160 389.1499,-160 389.1499,-160"/>
<polygon fill="#000000" stroke="#000000" points="389.15,-156.5001 379.1499,-160 389.1499,-163.5001 389.15,-156.5001"/>
</g>
<!-- UserListComponent -->
<g id="node3" class="node">
<title>UserListComponent</title>
<polygon fill="#ffffb3" stroke="#000000" points="400.538,-122 271.462,-122 271.462,-86 400.538,-86 400.538,-122"/>
<text text-anchor="middle" x="336" y="-99.8" font-family="Times,serif" font-size="14.00" fill="#000000">UserListComponent</text>
</g>
<!-- UserListComponent&#45;&gt;UserModule -->
<g id="edge3" class="edge">
<title>UserListComponent&#45;&gt;UserModule</title>
<path fill="none" stroke="#000000" d="M336,-122.1061C336,-122.1061 336,-140.991 336,-140.991"/>
<polygon fill="#000000" stroke="#000000" points="332.5001,-140.9909 336,-150.991 339.5001,-140.991 332.5001,-140.9909"/>
</g>
<!-- ProfileComponent  -->
<g id="node7" class="node">
<title>ProfileComponent </title>
<polygon fill="#fb8072" stroke="#000000" points="546.432,-252 423.568,-252 423.568,-216 546.432,-216 546.432,-252"/>
<text text-anchor="middle" x="485" y="-229.8" font-family="Times,serif" font-size="14.00" fill="#000000">ProfileComponent </text>
</g>
<!-- UserModule&#45;&gt;ProfileComponent  -->
<g id="edge6" class="edge">
<title>UserModule&#45;&gt;ProfileComponent </title>
<path fill="none" stroke="#000000" stroke-dasharray="5,2" d="M379.2077,-178C429.4229,-178 505.4887,-178 505.4887,-178 505.4887,-178 505.4887,-205.973 505.4887,-205.973"/>
<polygon fill="#000000" stroke="#000000" points="501.9888,-205.973 505.4887,-215.973 508.9888,-205.973 501.9888,-205.973"/>
</g>
<!-- UserCardComponent  -->
<g id="node8" class="node">
<title>UserCardComponent </title>
<polygon fill="#fb8072" stroke="#000000" points="405.4714,-252 266.5286,-252 266.5286,-216 405.4714,-216 405.4714,-252"/>
<text text-anchor="middle" x="336" y="-229.8" font-family="Times,serif" font-size="14.00" fill="#000000">UserCardComponent </text>
</g>
<!-- UserModule&#45;&gt;UserCardComponent  -->
<g id="edge7" class="edge">
<title>UserModule&#45;&gt;UserCardComponent </title>
<path fill="none" stroke="#000000" stroke-dasharray="5,2" d="M336,-187.1061C336,-187.1061 336,-205.991 336,-205.991"/>
<polygon fill="#000000" stroke="#000000" points="332.5001,-205.9909 336,-215.991 339.5001,-205.991 332.5001,-205.9909"/>
</g>
<!-- UserListComponent  -->
<g id="node9" class="node">
<title>UserListComponent </title>
<polygon fill="#fb8072" stroke="#000000" points="248.5372,-252 115.4628,-252 115.4628,-216 248.5372,-216 248.5372,-252"/>
<text text-anchor="middle" x="182" y="-229.8" font-family="Times,serif" font-size="14.00" fill="#000000">UserListComponent </text>
</g>
<!-- UserModule&#45;&gt;UserListComponent  -->
<g id="edge8" class="edge">
<title>UserModule&#45;&gt;UserListComponent </title>
<path fill="none" stroke="#000000" stroke-dasharray="5,2" d="M292.7481,-178C245.4143,-178 176.1716,-178 176.1716,-178 176.1716,-178 176.1716,-205.973 176.1716,-205.973"/>
<polygon fill="#000000" stroke="#000000" points="172.6717,-205.973 176.1716,-215.973 179.6717,-205.973 172.6717,-205.973"/>
</g>
<!-- MaterialModule -->
<g id="node5" class="node">
<title>MaterialModule</title>
<polygon fill="#8dd3c7" stroke="#000000" points="247.4706,-122 244.4706,-126 223.4706,-126 220.4706,-122 140.5294,-122 140.5294,-86 247.4706,-86 247.4706,-122"/>
<text text-anchor="middle" x="194" y="-99.8" font-family="Times,serif" font-size="14.00" fill="#000000">MaterialModule</text>
</g>
<!-- MaterialModule&#45;&gt;UserModule -->
<g id="edge4" class="edge">
<title>MaterialModule&#45;&gt;UserModule</title>
<path fill="none" stroke="#000000" d="M211.8284,-122.027C211.8284,-138.3976 211.8284,-160 211.8284,-160 211.8284,-160 282.9193,-160 282.9193,-160"/>
<polygon fill="#000000" stroke="#000000" points="282.9193,-163.5001 292.9193,-160 282.9193,-156.5001 282.9193,-163.5001"/>
</g>
<!-- SharedModule -->
<g id="node6" class="node">
<title>SharedModule</title>
<polygon fill="#8dd3c7" stroke="#000000" points="122.4231,-122 119.4231,-126 98.4231,-126 95.4231,-122 23.5769,-122 23.5769,-86 122.4231,-86 122.4231,-122"/>
<text text-anchor="middle" x="73" y="-99.8" font-family="Times,serif" font-size="14.00" fill="#000000">SharedModule</text>
</g>
<!-- SharedModule&#45;&gt;UserModule -->
<g id="edge5" class="edge">
<title>SharedModule&#45;&gt;UserModule</title>
<path fill="none" stroke="#000000" d="M69.6352,-122.1061C69.6352,-141.3391 69.6352,-169 69.6352,-169 69.6352,-169 282.9078,-169 282.9078,-169"/>
<polygon fill="#000000" stroke="#000000" points="282.9079,-172.5001 292.9078,-169 282.9078,-165.5001 282.9079,-172.5001"/>
</g>
</g>
</svg>
