<?xml version="1.0" encoding="UTF-8" standalone="no"?>
<!DOCTYPE svg PUBLIC "-//W3C//DTD SVG 1.1//EN"
 "http://www.w3.org/Graphics/SVG/1.1/DTD/svg11.dtd">
<!-- Generated by graphviz version 2.40.1 (20161225.0304)
 -->
<!-- Title: dependencies Pages: 1 -->
<svg width="1071pt" height="284pt"
 viewBox="0.00 0.00 1071.00 284.00" xmlns="http://www.w3.org/2000/svg" xmlns:xlink="http://www.w3.org/1999/xlink">
<g id="graph0" class="graph" transform="scale(1 1) rotate(0) translate(4 280)">
<title>dependencies</title>
<polygon fill="#ffffff" stroke="transparent" points="-4,4 -4,-280 1067,-280 1067,4 -4,4"/>
<text text-anchor="start" x="510.5091" y="-42.4" font-family="sans-serif" font-weight="bold" font-size="14.00" fill="#000000">Legend</text>
<polygon fill="#ffffb3" stroke="transparent" points="297.5,-10 297.5,-30 317.5,-30 317.5,-10 297.5,-10"/>
<text text-anchor="start" x="321.129" y="-15.4" font-family="sans-serif" font-size="14.00" fill="#000000"> &#160;Declarations</text>
<polygon fill="#8dd3c7" stroke="transparent" points="410.5,-10 410.5,-30 430.5,-30 430.5,-10 410.5,-10"/>
<text text-anchor="start" x="434.2251" y="-15.4" font-family="sans-serif" font-size="14.00" fill="#000000"> &#160;Module</text>
<polygon fill="#80b1d3" stroke="transparent" points="496.5,-10 496.5,-30 516.5,-30 516.5,-10 496.5,-10"/>
<text text-anchor="start" x="520.2812" y="-15.4" font-family="sans-serif" font-size="14.00" fill="#000000"> &#160;Bootstrap</text>
<polygon fill="#fdb462" stroke="transparent" points="593.5,-10 593.5,-30 613.5,-30 613.5,-10 593.5,-10"/>
<text text-anchor="start" x="617.1732" y="-15.4" font-family="sans-serif" font-size="14.00" fill="#000000"> &#160;Providers</text>
<polygon fill="#fb8072" stroke="transparent" points="689.5,-10 689.5,-30 709.5,-30 709.5,-10 689.5,-10"/>
<text text-anchor="start" x="713.2258" y="-15.4" font-family="sans-serif" font-size="14.00" fill="#000000"> &#160;Exports</text>
<g id="clust1" class="cluster">
<title>cluster_AppModule</title>
<polygon fill="none" stroke="#000000" stroke-dasharray="1,5" points="8,-70 8,-268 1055,-268 1055,-70 8,-70"/>
</g>
<g id="clust2" class="cluster">
<title>cluster_AppModule_declarations</title>
<polygon fill="none" stroke="#000000" points="799,-78 799,-130 1047,-130 1047,-78 799,-78"/>
</g>
<g id="clust5" class="cluster">
<title>cluster_AppModule_imports</title>
<polygon fill="none" stroke="#000000" points="452,-78 452,-130 791,-130 791,-78 452,-78"/>
</g>
<g id="clust7" class="cluster">
<title>cluster_AppModule_bootstrap</title>
<polygon fill="none" stroke="#000000" points="566,-208 566,-260 690,-260 690,-208 566,-208"/>
</g>
<g id="clust8" class="cluster">
<title>cluster_AppModule_providers</title>
<polygon fill="none" stroke="#000000" points="16,-78 16,-130 444,-130 444,-78 16,-78"/>
</g>
<!-- AppComponent -->
<g id="node1" class="node">
<title>AppComponent</title>
<polygon fill="#ffffb3" stroke="#000000" points="1038.9399,-122 933.0601,-122 933.0601,-86 1038.9399,-86 1038.9399,-122"/>
<text text-anchor="middle" x="986" y="-99.8" font-family="Times,serif" font-size="14.00" fill="#000000">AppComponent</text>
</g>
<!-- AppModule -->
<g id="node3" class="node">
<title>AppModule</title>
<polygon fill="#8dd3c7" stroke="#000000" points="669.6571,-187 666.6571,-191 645.6571,-191 642.6571,-187 586.3429,-187 586.3429,-151 669.6571,-151 669.6571,-187"/>
<text text-anchor="middle" x="628" y="-164.8" font-family="Times,serif" font-size="14.00" fill="#000000">AppModule</text>
</g>
<!-- AppComponent&#45;&gt;AppModule -->
<g id="edge1" class="edge">
<title>AppComponent&#45;&gt;AppModule</title>
<path fill="none" stroke="#000000" d="M986,-122.2921C986,-144.2057 986,-178 986,-178 986,-178 679.7678,-178 679.7678,-178"/>
<polygon fill="#000000" stroke="#000000" points="679.7678,-174.5001 669.7678,-178 679.7678,-181.5001 679.7678,-174.5001"/>
</g>
<!-- BaseComponent -->
<g id="node2" class="node">
<title>BaseComponent</title>
<polygon fill="#ffffb3" stroke="#000000" points="915.0438,-122 806.9562,-122 806.9562,-86 915.0438,-86 915.0438,-122"/>
<text text-anchor="middle" x="861" y="-99.8" font-family="Times,serif" font-size="14.00" fill="#000000">BaseComponent</text>
</g>
<!-- BaseComponent&#45;&gt;AppModule -->
<g id="edge2" class="edge">
<title>BaseComponent&#45;&gt;AppModule</title>
<path fill="none" stroke="#000000" d="M861,-122.1061C861,-141.3391 861,-169 861,-169 861,-169 679.9248,-169 679.9248,-169"/>
<polygon fill="#000000" stroke="#000000" points="679.9249,-165.5001 669.9248,-169 679.9248,-172.5001 679.9249,-165.5001"/>
</g>
<!-- AppComponent  -->
<g id="node7" class="node">
<title>AppComponent </title>
<polygon fill="#80b1d3" stroke="#000000" points="682.439,-252 573.561,-252 573.561,-216 682.439,-216 682.439,-252"/>
<text text-anchor="middle" x="628" y="-229.8" font-family="Times,serif" font-size="14.00" fill="#000000">AppComponent </text>
</g>
<!-- AppModule&#45;&gt;AppComponent  -->
<g id="edge6" class="edge">
<title>AppModule&#45;&gt;AppComponent </title>
<path fill="none" stroke="#000000" stroke-dasharray="1,5" d="M628,-187.1061C628,-187.1061 628,-205.991 628,-205.991"/>
<polygon fill="#000000" stroke="#000000" points="624.5001,-205.9909 628,-215.991 631.5001,-205.991 624.5001,-205.9909"/>
</g>
<!-- HomeModule -->
<g id="node4" class="node">
<title>HomeModule</title>
<polygon fill="#8dd3c7" stroke="#000000" points="782.7619,-122 779.7619,-126 758.7619,-126 755.7619,-122 689.2381,-122 689.2381,-86 782.7619,-86 782.7619,-122"/>
<text text-anchor="middle" x="736" y="-99.8" font-family="Times,serif" font-size="14.00" fill="#000000">HomeModule</text>
</g>
<!-- HomeModule&#45;&gt;AppModule -->
<g id="edge3" class="edge">
<title>HomeModule&#45;&gt;AppModule</title>
<path fill="none" stroke="#000000" d="M736,-122.027C736,-138.3976 736,-160 736,-160 736,-160 679.7556,-160 679.7556,-160"/>
<polygon fill="#000000" stroke="#000000" points="679.7557,-156.5001 669.7556,-160 679.7556,-163.5001 679.7557,-156.5001"/>
</g>
<!-- CoreModule -->
<g id="node5" class="node">
<title>CoreModule</title>
<polygon fill="#8dd3c7" stroke="#000000" points="671.2619,-122 668.2619,-126 647.2619,-126 644.2619,-122 584.7381,-122 584.7381,-86 671.2619,-86 671.2619,-122"/>
<text text-anchor="middle" x="628" y="-99.8" font-family="Times,serif" font-size="14.00" fill="#000000">CoreModule</text>
</g>
<!-- CoreModule&#45;&gt;AppModule -->
<g id="edge4" class="edge">
<title>CoreModule&#45;&gt;AppModule</title>
<path fill="none" stroke="#000000" d="M628,-122.1061C628,-122.1061 628,-140.991 628,-140.991"/>
<polygon fill="#000000" stroke="#000000" points="624.5001,-140.9909 628,-150.991 631.5001,-140.991 624.5001,-140.9909"/>
</g>
<!-- MaterialModule -->
<g id="node6" class="node">
<title>MaterialModule</title>
<polygon fill="#8dd3c7" stroke="#000000" points="566.4706,-122 563.4706,-126 542.4706,-126 539.4706,-122 459.5294,-122 459.5294,-86 566.4706,-86 566.4706,-122"/>
<text text-anchor="middle" x="513" y="-99.8" font-family="Times,serif" font-size="14.00" fill="#000000">MaterialModule</text>
</g>
<!-- MaterialModule&#45;&gt;AppModule -->
<g id="edge5" class="edge">
<title>MaterialModule&#45;&gt;AppModule</title>
<path fill="none" stroke="#000000" d="M513,-122.027C513,-138.3976 513,-160 513,-160 513,-160 576.157,-160 576.157,-160"/>
<polygon fill="#000000" stroke="#000000" points="576.1571,-163.5001 586.157,-160 576.157,-156.5001 576.1571,-163.5001"/>
</g>
<!-- StellarAccountService -->
<g id="node8" class="node">
<title>StellarAccountService</title>
<ellipse fill="#fdb462" stroke="#000000" cx="338" cy="-104" rx="97.8266" ry="18"/>
<text text-anchor="middle" x="338" y="-99.8" font-family="Times,serif" font-size="14.00" fill="#000000">StellarAccountService</text>
</g>
<!-- StellarAccountService&#45;&gt;AppModule -->
<g id="edge7" class="edge">
<title>StellarAccountService&#45;&gt;AppModule</title>
<path fill="none" stroke="#000000" d="M338,-122.1061C338,-141.3391 338,-169 338,-169 338,-169 576.1412,-169 576.1412,-169"/>
<polygon fill="#000000" stroke="#000000" points="576.1413,-172.5001 586.1412,-169 576.1412,-165.5001 576.1413,-172.5001"/>
</g>
<!-- StellarPaymentService -->
<g id="node9" class="node">
<title>StellarPaymentService</title>
<ellipse fill="#fdb462" stroke="#000000" cx="123" cy="-104" rx="98.9878" ry="18"/>
<text text-anchor="middle" x="123" y="-99.8" font-family="Times,serif" font-size="14.00" fill="#000000">StellarPaymentService</text>
</g>
<!-- StellarPaymentService&#45;&gt;AppModule -->
<g id="edge8" class="edge">
<title>StellarPaymentService&#45;&gt;AppModule</title>
<path fill="none" stroke="#000000" d="M123,-122.2921C123,-144.2057 123,-178 123,-178 123,-178 576.2441,-178 576.2441,-178"/>
<polygon fill="#000000" stroke="#000000" points="576.2441,-181.5001 586.2441,-178 576.2441,-174.5001 576.2441,-181.5001"/>
</g>
</g>
</svg>
