<?xml version="1.0" encoding="UTF-8" standalone="no"?>
<!DOCTYPE svg PUBLIC "-//W3C//DTD SVG 1.1//EN"
 "http://www.w3.org/Graphics/SVG/1.1/DTD/svg11.dtd">
<!-- Generated by graphviz version 2.40.1 (20161225.0304)
 -->
<!-- Title: dependencies Pages: 1 -->
<svg width="1207pt" height="284pt"
 viewBox="0.00 0.00 1207.00 284.00" xmlns="http://www.w3.org/2000/svg" xmlns:xlink="http://www.w3.org/1999/xlink">
<g id="graph0" class="graph" transform="scale(1 1) rotate(0) translate(4 280)">
<title>dependencies</title>
<polygon fill="#ffffff" stroke="transparent" points="-4,4 -4,-280 1203,-280 1203,4 -4,4"/>
<text text-anchor="start" x="578.5091" y="-42.4" font-family="sans-serif" font-weight="bold" font-size="14.00" fill="#000000">Legend</text>
<polygon fill="#ffffb3" stroke="transparent" points="365.5,-10 365.5,-30 385.5,-30 385.5,-10 365.5,-10"/>
<text text-anchor="start" x="389.129" y="-15.4" font-family="sans-serif" font-size="14.00" fill="#000000"> &#160;Declarations</text>
<polygon fill="#8dd3c7" stroke="transparent" points="478.5,-10 478.5,-30 498.5,-30 498.5,-10 478.5,-10"/>
<text text-anchor="start" x="502.2251" y="-15.4" font-family="sans-serif" font-size="14.00" fill="#000000"> &#160;Module</text>
<polygon fill="#80b1d3" stroke="transparent" points="564.5,-10 564.5,-30 584.5,-30 584.5,-10 564.5,-10"/>
<text text-anchor="start" x="588.2812" y="-15.4" font-family="sans-serif" font-size="14.00" fill="#000000"> &#160;Bootstrap</text>
<polygon fill="#fdb462" stroke="transparent" points="661.5,-10 661.5,-30 681.5,-30 681.5,-10 661.5,-10"/>
<text text-anchor="start" x="685.1732" y="-15.4" font-family="sans-serif" font-size="14.00" fill="#000000"> &#160;Providers</text>
<polygon fill="#fb8072" stroke="transparent" points="757.5,-10 757.5,-30 777.5,-30 777.5,-10 757.5,-10"/>
<text text-anchor="start" x="781.2258" y="-15.4" font-family="sans-serif" font-size="14.00" fill="#000000"> &#160;Exports</text>
<g id="clust1" class="cluster">
<title>cluster_AppModule</title>
<polygon fill="none" stroke="#000000" stroke-dasharray="1,5" points="8,-70 8,-268 1191,-268 1191,-70 8,-70"/>
</g>
<g id="clust2" class="cluster">
<title>cluster_AppModule_declarations</title>
<polygon fill="none" stroke="#000000" points="1061,-78 1061,-130 1183,-130 1183,-78 1061,-78"/>
</g>
<g id="clust4" class="cluster">
<title>cluster_AppModule_imports</title>
<polygon fill="none" stroke="#000000" points="586,-78 586,-130 1053,-130 1053,-78 586,-78"/>
</g>
<g id="clust6" class="cluster">
<title>cluster_AppModule_bootstrap</title>
<polygon fill="none" stroke="#000000" points="642,-208 642,-260 766,-260 766,-208 642,-208"/>
</g>
<g id="clust7" class="cluster">
<title>cluster_AppModule_providers</title>
<polygon fill="none" stroke="#000000" points="16,-78 16,-130 578,-130 578,-78 16,-78"/>
</g>
<!-- AppComponent -->
<g id="node1" class="node">
<title>AppComponent</title>
<polygon fill="#ffffb3" stroke="#000000" points="1174.9399,-122 1069.0601,-122 1069.0601,-86 1174.9399,-86 1174.9399,-122"/>
<text text-anchor="middle" x="1122" y="-99.8" font-family="Times,serif" font-size="14.00" fill="#000000">AppComponent</text>
</g>
<!-- AppModule -->
<g id="node2" class="node">
<title>AppModule</title>
<polygon fill="#8dd3c7" stroke="#000000" points="745.6571,-187 742.6571,-191 721.6571,-191 718.6571,-187 662.3429,-187 662.3429,-151 745.6571,-151 745.6571,-187"/>
<text text-anchor="middle" x="704" y="-164.8" font-family="Times,serif" font-size="14.00" fill="#000000">AppModule</text>
</g>
<!-- AppComponent&#45;&gt;AppModule -->
<g id="edge1" class="edge">
<title>AppComponent&#45;&gt;AppModule</title>
<path fill="none" stroke="#000000" d="M1122,-122.2921C1122,-144.2057 1122,-178 1122,-178 1122,-178 755.9933,-178 755.9933,-178"/>
<polygon fill="#000000" stroke="#000000" points="755.9933,-174.5001 745.9933,-178 755.9932,-181.5001 755.9933,-174.5001"/>
</g>
<!-- AppComponent  -->
<g id="node7" class="node">
<title>AppComponent </title>
<polygon fill="#80b1d3" stroke="#000000" points="758.439,-252 649.561,-252 649.561,-216 758.439,-216 758.439,-252"/>
<text text-anchor="middle" x="704" y="-229.8" font-family="Times,serif" font-size="14.00" fill="#000000">AppComponent </text>
</g>
<!-- AppModule&#45;&gt;AppComponent  -->
<g id="edge6" class="edge">
<title>AppModule&#45;&gt;AppComponent </title>
<path fill="none" stroke="#000000" stroke-dasharray="1,5" d="M704,-187.1061C704,-187.1061 704,-205.991 704,-205.991"/>
<polygon fill="#000000" stroke="#000000" points="700.5001,-205.9909 704,-215.991 707.5001,-205.991 700.5001,-205.9909"/>
</g>
<!-- UIModule -->
<g id="node3" class="node">
<title>UIModule</title>
<polygon fill="#8dd3c7" stroke="#000000" points="1045.3177,-122 1042.3177,-126 1021.3177,-126 1018.3177,-122 970.6823,-122 970.6823,-86 1045.3177,-86 1045.3177,-122"/>
<text text-anchor="middle" x="1008" y="-99.8" font-family="Times,serif" font-size="14.00" fill="#000000">UIModule</text>
</g>
<!-- UIModule&#45;&gt;AppModule -->
<g id="edge2" class="edge">
<title>UIModule&#45;&gt;AppModule</title>
<path fill="none" stroke="#000000" d="M1008,-122.1061C1008,-141.3391 1008,-169 1008,-169 1008,-169 755.9507,-169 755.9507,-169"/>
<polygon fill="#000000" stroke="#000000" points="755.9508,-165.5001 745.9507,-169 755.9507,-172.5001 755.9508,-165.5001"/>
</g>
<!-- AppRoutingModule -->
<g id="node4" class="node">
<title>AppRoutingModule</title>
<polygon fill="#8dd3c7" stroke="#000000" points="952.2744,-122 949.2744,-126 928.2744,-126 925.2744,-122 823.7256,-122 823.7256,-86 952.2744,-86 952.2744,-122"/>
<text text-anchor="middle" x="888" y="-99.8" font-family="Times,serif" font-size="14.00" fill="#000000">AppRoutingModule</text>
</g>
<!-- AppRoutingModule&#45;&gt;AppModule -->
<g id="edge3" class="edge">
<title>AppRoutingModule&#45;&gt;AppModule</title>
<path fill="none" stroke="#000000" d="M888,-122.027C888,-138.3976 888,-160 888,-160 888,-160 755.7524,-160 755.7524,-160"/>
<polygon fill="#000000" stroke="#000000" points="755.7525,-156.5001 745.7524,-160 755.7524,-163.5001 755.7525,-156.5001"/>
</g>
<!-- CoreModule -->
<g id="node5" class="node">
<title>CoreModule</title>
<polygon fill="#8dd3c7" stroke="#000000" points="805.2619,-122 802.2619,-126 781.2619,-126 778.2619,-122 718.7381,-122 718.7381,-86 805.2619,-86 805.2619,-122"/>
<text text-anchor="middle" x="762" y="-99.8" font-family="Times,serif" font-size="14.00" fill="#000000">CoreModule</text>
</g>
<!-- CoreModule&#45;&gt;AppModule -->
<g id="edge4" class="edge">
<title>CoreModule&#45;&gt;AppModule</title>
<path fill="none" stroke="#000000" d="M732.2237,-122.1061C732.2237,-122.1061 732.2237,-140.991 732.2237,-140.991"/>
<polygon fill="#000000" stroke="#000000" points="728.7238,-140.9909 732.2237,-150.991 735.7238,-140.991 728.7238,-140.9909"/>
</g>
<!-- MaterialModule -->
<g id="node6" class="node">
<title>MaterialModule</title>
<polygon fill="#8dd3c7" stroke="#000000" points="700.4706,-122 697.4706,-126 676.4706,-126 673.4706,-122 593.5294,-122 593.5294,-86 700.4706,-86 700.4706,-122"/>
<text text-anchor="middle" x="647" y="-99.8" font-family="Times,serif" font-size="14.00" fill="#000000">MaterialModule</text>
</g>
<!-- MaterialModule&#45;&gt;AppModule -->
<g id="edge5" class="edge">
<title>MaterialModule&#45;&gt;AppModule</title>
<path fill="none" stroke="#000000" d="M681.3285,-122.1061C681.3285,-122.1061 681.3285,-140.991 681.3285,-140.991"/>
<polygon fill="#000000" stroke="#000000" points="677.8286,-140.9909 681.3285,-150.991 684.8286,-140.991 677.8286,-140.9909"/>
</g>
<!-- StellarAccountService -->
<g id="node8" class="node">
<title>StellarAccountService</title>
<ellipse fill="#fdb462" stroke="#000000" cx="472" cy="-104" rx="97.8266" ry="18"/>
<text text-anchor="middle" x="472" y="-99.8" font-family="Times,serif" font-size="14.00" fill="#000000">StellarAccountService</text>
</g>
<!-- StellarAccountService&#45;&gt;AppModule -->
<g id="edge7" class="edge">
<title>StellarAccountService&#45;&gt;AppModule</title>
<path fill="none" stroke="#000000" d="M472,-122.027C472,-138.3976 472,-160 472,-160 472,-160 652.2551,-160 652.2551,-160"/>
<polygon fill="#000000" stroke="#000000" points="652.2551,-163.5001 662.2551,-160 652.2551,-156.5001 652.2551,-163.5001"/>
</g>
<!-- StellarPaymentService -->
<g id="node9" class="node">
<title>StellarPaymentService</title>
<ellipse fill="#fdb462" stroke="#000000" cx="257" cy="-104" rx="98.9878" ry="18"/>
<text text-anchor="middle" x="257" y="-99.8" font-family="Times,serif" font-size="14.00" fill="#000000">StellarPaymentService</text>
</g>
<!-- StellarPaymentService&#45;&gt;AppModule -->
<g id="edge8" class="edge">
<title>StellarPaymentService&#45;&gt;AppModule</title>
<path fill="none" stroke="#000000" d="M257,-122.1061C257,-141.3391 257,-169 257,-169 257,-169 651.9473,-169 651.9473,-169"/>
<polygon fill="#000000" stroke="#000000" points="651.9474,-172.5001 661.9473,-169 651.9473,-165.5001 651.9474,-172.5001"/>
</g>
<!-- UserService -->
<g id="node10" class="node">
<title>UserService</title>
<ellipse fill="#fdb462" stroke="#000000" cx="82" cy="-104" rx="58.4415" ry="18"/>
<text text-anchor="middle" x="82" y="-99.8" font-family="Times,serif" font-size="14.00" fill="#000000">UserService</text>
</g>
<!-- UserService&#45;&gt;AppModule -->
<g id="edge9" class="edge">
<title>UserService&#45;&gt;AppModule</title>
<path fill="none" stroke="#000000" d="M82,-122.2921C82,-144.2057 82,-178 82,-178 82,-178 652.223,-178 652.223,-178"/>
<polygon fill="#000000" stroke="#000000" points="652.223,-181.5001 662.223,-178 652.223,-174.5001 652.223,-181.5001"/>
</g>
</g>
</svg>
