<?xml version="1.0" encoding="UTF-8" standalone="no"?>
<!DOCTYPE svg PUBLIC "-//W3C//DTD SVG 1.1//EN"
 "http://www.w3.org/Graphics/SVG/1.1/DTD/svg11.dtd">
<!-- Generated by graphviz version 2.40.1 (20161225.0304)
 -->
<!-- Title: dependencies Pages: 1 -->
<svg width="1242pt" height="284pt"
 viewBox="0.00 0.00 1242.00 284.00" xmlns="http://www.w3.org/2000/svg" xmlns:xlink="http://www.w3.org/1999/xlink">
<g id="graph0" class="graph" transform="scale(1 1) rotate(0) translate(4 280)">
<title>dependencies</title>
<polygon fill="#ffffff" stroke="transparent" points="-4,4 -4,-280 1238,-280 1238,4 -4,4"/>
<text text-anchor="start" x="596.0091" y="-42.4" font-family="sans-serif" font-weight="bold" font-size="14.00" fill="#000000">Legend</text>
<polygon fill="#ffffb3" stroke="transparent" points="383,-10 383,-30 403,-30 403,-10 383,-10"/>
<text text-anchor="start" x="406.629" y="-15.4" font-family="sans-serif" font-size="14.00" fill="#000000"> &#160;Declarations</text>
<polygon fill="#8dd3c7" stroke="transparent" points="496,-10 496,-30 516,-30 516,-10 496,-10"/>
<text text-anchor="start" x="519.7251" y="-15.4" font-family="sans-serif" font-size="14.00" fill="#000000"> &#160;Module</text>
<polygon fill="#80b1d3" stroke="transparent" points="582,-10 582,-30 602,-30 602,-10 582,-10"/>
<text text-anchor="start" x="605.7812" y="-15.4" font-family="sans-serif" font-size="14.00" fill="#000000"> &#160;Bootstrap</text>
<polygon fill="#fdb462" stroke="transparent" points="679,-10 679,-30 699,-30 699,-10 679,-10"/>
<text text-anchor="start" x="702.6732" y="-15.4" font-family="sans-serif" font-size="14.00" fill="#000000"> &#160;Providers</text>
<polygon fill="#fb8072" stroke="transparent" points="775,-10 775,-30 795,-30 795,-10 775,-10"/>
<text text-anchor="start" x="798.7258" y="-15.4" font-family="sans-serif" font-size="14.00" fill="#000000"> &#160;Exports</text>
<g id="clust1" class="cluster">
<title>cluster_SharedModule</title>
<polygon fill="none" stroke="#000000" stroke-dasharray="1,5" points="8,-70 8,-268 1226,-268 1226,-70 8,-70"/>
</g>
<g id="clust2" class="cluster">
<title>cluster_SharedModule_declarations</title>
<polygon fill="none" stroke="#000000" points="146,-78 146,-130 1218,-130 1218,-78 146,-78"/>
</g>
<g id="clust9" class="cluster">
<title>cluster_SharedModule_imports</title>
<polygon fill="none" stroke="#000000" points="16,-78 16,-130 138,-130 138,-78 16,-78"/>
</g>
<g id="clust10" class="cluster">
<title>cluster_SharedModule_exports</title>
<polygon fill="none" stroke="#000000" points="176,-208 176,-260 1067,-260 1067,-208 176,-208"/>
</g>
<!-- DynamicFormComponent -->
<g id="node1" class="node">
<title>DynamicFormComponent</title>
<polygon fill="#ffffb3" stroke="#000000" points="1210.4832,-122 1047.5168,-122 1047.5168,-86 1210.4832,-86 1210.4832,-122"/>
<text text-anchor="middle" x="1129" y="-99.8" font-family="Times,serif" font-size="14.00" fill="#000000">DynamicFormComponent</text>
</g>
<!-- SharedModule -->
<g id="node7" class="node">
<title>SharedModule</title>
<polygon fill="#8dd3c7" stroke="#000000" points="627.4231,-187 624.4231,-191 603.4231,-191 600.4231,-187 528.5769,-187 528.5769,-151 627.4231,-151 627.4231,-187"/>
<text text-anchor="middle" x="578" y="-164.8" font-family="Times,serif" font-size="14.00" fill="#000000">SharedModule</text>
</g>
<!-- DynamicFormComponent&#45;&gt;SharedModule -->
<g id="edge1" class="edge">
<title>DynamicFormComponent&#45;&gt;SharedModule</title>
<path fill="none" stroke="#000000" d="M1053.375,-122.1061C1053.375,-141.3391 1053.375,-169 1053.375,-169 1053.375,-169 637.5282,-169 637.5282,-169"/>
<polygon fill="#000000" stroke="#000000" points="637.5282,-165.5001 627.5282,-169 637.5281,-172.5001 637.5282,-165.5001"/>
</g>
<!-- DynamicFormQuestionComponent -->
<g id="node2" class="node">
<title>DynamicFormQuestionComponent</title>
<polygon fill="#ffffb3" stroke="#000000" points="1029.5307,-122 816.4693,-122 816.4693,-86 1029.5307,-86 1029.5307,-122"/>
<text text-anchor="middle" x="923" y="-99.8" font-family="Times,serif" font-size="14.00" fill="#000000">DynamicFormQuestionComponent</text>
</g>
<!-- DynamicFormQuestionComponent&#45;&gt;SharedModule -->
<g id="edge2" class="edge">
<title>DynamicFormQuestionComponent&#45;&gt;SharedModule</title>
<path fill="none" stroke="#000000" d="M845.375,-122.0225C845.375,-139.3734 845.375,-163 845.375,-163 845.375,-163 637.3523,-163 637.3523,-163"/>
<polygon fill="#000000" stroke="#000000" points="637.3523,-159.5001 627.3523,-163 637.3523,-166.5001 637.3523,-159.5001"/>
</g>
<!-- DialogComponent -->
<g id="node3" class="node">
<title>DialogComponent</title>
<polygon fill="#ffffb3" stroke="#000000" points="798.9356,-122 679.0644,-122 679.0644,-86 798.9356,-86 798.9356,-122"/>
<text text-anchor="middle" x="739" y="-99.8" font-family="Times,serif" font-size="14.00" fill="#000000">DialogComponent</text>
</g>
<!-- DialogComponent&#45;&gt;SharedModule -->
<g id="edge3" class="edge">
<title>DialogComponent&#45;&gt;SharedModule</title>
<path fill="none" stroke="#000000" d="M739,-122.2396C739,-137.5706 739,-157 739,-157 739,-157 637.619,-157 637.619,-157"/>
<polygon fill="#000000" stroke="#000000" points="637.6191,-153.5001 627.619,-157 637.619,-160.5001 637.6191,-153.5001"/>
</g>
<!-- ConfirmDialogComponent -->
<g id="node4" class="node">
<title>ConfirmDialogComponent</title>
<polygon fill="#ffffb3" stroke="#000000" points="661.3738,-122 494.6262,-122 494.6262,-86 661.3738,-86 661.3738,-122"/>
<text text-anchor="middle" x="578" y="-99.8" font-family="Times,serif" font-size="14.00" fill="#000000">ConfirmDialogComponent</text>
</g>
<!-- ConfirmDialogComponent&#45;&gt;SharedModule -->
<g id="edge4" class="edge">
<title>ConfirmDialogComponent&#45;&gt;SharedModule</title>
<path fill="none" stroke="#000000" d="M578,-122.1061C578,-122.1061 578,-140.991 578,-140.991"/>
<polygon fill="#000000" stroke="#000000" points="574.5001,-140.9909 578,-150.991 581.5001,-140.991 574.5001,-140.9909"/>
</g>
<!-- FileUploadDialogComponent -->
<g id="node5" class="node">
<title>FileUploadDialogComponent</title>
<polygon fill="#ffffb3" stroke="#000000" points="476.4255,-122 293.5745,-122 293.5745,-86 476.4255,-86 476.4255,-122"/>
<text text-anchor="middle" x="385" y="-99.8" font-family="Times,serif" font-size="14.00" fill="#000000">FileUploadDialogComponent</text>
</g>
<!-- FileUploadDialogComponent&#45;&gt;SharedModule -->
<g id="edge5" class="edge">
<title>FileUploadDialogComponent&#45;&gt;SharedModule</title>
<path fill="none" stroke="#000000" d="M402.0128,-122.2396C402.0128,-137.5706 402.0128,-157 402.0128,-157 402.0128,-157 518.5094,-157 518.5094,-157"/>
<polygon fill="#000000" stroke="#000000" points="518.5095,-160.5001 528.5094,-157 518.5094,-153.5001 518.5095,-160.5001"/>
</g>
<!-- DateFormatterPipe -->
<g id="node6" class="node">
<title>DateFormatterPipe</title>
<polygon fill="#ffffb3" stroke="#000000" points="276.0199,-122 153.9801,-122 153.9801,-86 276.0199,-86 276.0199,-122"/>
<text text-anchor="middle" x="215" y="-99.8" font-family="Times,serif" font-size="14.00" fill="#000000">DateFormatterPipe</text>
</g>
<!-- DateFormatterPipe&#45;&gt;SharedModule -->
<g id="edge6" class="edge">
<title>DateFormatterPipe&#45;&gt;SharedModule</title>
<path fill="none" stroke="#000000" d="M230.125,-122.0225C230.125,-139.3734 230.125,-163 230.125,-163 230.125,-163 518.5274,-163 518.5274,-163"/>
<polygon fill="#000000" stroke="#000000" points="518.5275,-166.5001 528.5274,-163 518.5274,-159.5001 518.5275,-166.5001"/>
</g>
<!-- DynamicFormComponent  -->
<g id="node9" class="node">
<title>DynamicFormComponent </title>
<polygon fill="#fb8072" stroke="#000000" points="1059.4839,-252 892.5161,-252 892.5161,-216 1059.4839,-216 1059.4839,-252"/>
<text text-anchor="middle" x="976" y="-229.8" font-family="Times,serif" font-size="14.00" fill="#000000">DynamicFormComponent </text>
</g>
<!-- SharedModule&#45;&gt;DynamicFormComponent  -->
<g id="edge8" class="edge">
<title>SharedModule&#45;&gt;DynamicFormComponent </title>
<path fill="none" stroke="#000000" stroke-dasharray="5,2" d="M627.3202,-175C730.833,-175 961.2618,-175 961.2618,-175 961.2618,-175 961.2618,-205.9775 961.2618,-205.9775"/>
<polygon fill="#000000" stroke="#000000" points="957.7618,-205.9774 961.2618,-215.9775 964.7618,-205.9775 957.7618,-205.9774"/>
</g>
<!-- DynamicFormQuestionComponent  -->
<g id="node10" class="node">
<title>DynamicFormQuestionComponent </title>
<polygon fill="#fb8072" stroke="#000000" points="874.5302,-252 657.4698,-252 657.4698,-216 874.5302,-216 874.5302,-252"/>
<text text-anchor="middle" x="766" y="-229.8" font-family="Times,serif" font-size="14.00" fill="#000000">DynamicFormQuestionComponent </text>
</g>
<!-- SharedModule&#45;&gt;DynamicFormQuestionComponent  -->
<g id="edge9" class="edge">
<title>SharedModule&#45;&gt;DynamicFormQuestionComponent </title>
<path fill="none" stroke="#000000" stroke-dasharray="5,2" d="M627.4245,-181C649.3838,-181 670.3598,-181 670.3598,-181 670.3598,-181 670.3598,-205.7604 670.3598,-205.7604"/>
<polygon fill="#000000" stroke="#000000" points="666.8598,-205.7604 670.3598,-215.7604 673.8598,-205.7604 666.8598,-205.7604"/>
</g>
<!-- DialogComponent  -->
<g id="node11" class="node">
<title>DialogComponent </title>
<polygon fill="#fb8072" stroke="#000000" points="639.4348,-252 516.5652,-252 516.5652,-216 639.4348,-216 639.4348,-252"/>
<text text-anchor="middle" x="578" y="-229.8" font-family="Times,serif" font-size="14.00" fill="#000000">DialogComponent </text>
</g>
<!-- SharedModule&#45;&gt;DialogComponent  -->
<g id="edge10" class="edge">
<title>SharedModule&#45;&gt;DialogComponent </title>
<path fill="none" stroke="#000000" stroke-dasharray="5,2" d="M578,-187.1061C578,-187.1061 578,-205.991 578,-205.991"/>
<polygon fill="#000000" stroke="#000000" points="574.5001,-205.9909 578,-215.991 581.5001,-205.991 574.5001,-205.9909"/>
</g>
<!-- ConfirmDialogComponent  -->
<g id="node12" class="node">
<title>ConfirmDialogComponent </title>
<polygon fill="#fb8072" stroke="#000000" points="498.3742,-252 327.6258,-252 327.6258,-216 498.3742,-216 498.3742,-252"/>
<text text-anchor="middle" x="413" y="-229.8" font-family="Times,serif" font-size="14.00" fill="#000000">ConfirmDialogComponent </text>
</g>
<!-- SharedModule&#45;&gt;ConfirmDialogComponent  -->
<g id="edge11" class="edge">
<title>SharedModule&#45;&gt;ConfirmDialogComponent </title>
<path fill="none" stroke="#000000" stroke-dasharray="5,2" d="M528.7112,-181C506.5939,-181 485.3878,-181 485.3878,-181 485.3878,-181 485.3878,-205.7604 485.3878,-205.7604"/>
<polygon fill="#000000" stroke="#000000" points="481.8879,-205.7604 485.3878,-215.7604 488.8879,-205.7604 481.8879,-205.7604"/>
</g>
<!-- DateFormatterPipe  -->
<g id="node13" class="node">
<title>DateFormatterPipe </title>
<polygon fill="#fb8072" stroke="#000000" points="310.019,-252 183.981,-252 183.981,-216 310.019,-216 310.019,-252"/>
<text text-anchor="middle" x="247" y="-229.8" font-family="Times,serif" font-size="14.00" fill="#000000">DateFormatterPipe </text>
</g>
<!-- SharedModule&#45;&gt;DateFormatterPipe  -->
<g id="edge12" class="edge">
<title>SharedModule&#45;&gt;DateFormatterPipe </title>
<path fill="none" stroke="#000000" stroke-dasharray="5,2" d="M528.6386,-175C449.222,-175 301.8985,-175 301.8985,-175 301.8985,-175 301.8985,-205.9775 301.8985,-205.9775"/>
<polygon fill="#000000" stroke="#000000" points="298.3986,-205.9774 301.8985,-215.9775 305.3986,-205.9775 298.3986,-205.9774"/>
</g>
<!-- MaterialModule -->
<g id="node8" class="node">
<title>MaterialModule</title>
<polygon fill="#8dd3c7" stroke="#000000" points="130.4706,-122 127.4706,-126 106.4706,-126 103.4706,-122 23.5294,-122 23.5294,-86 130.4706,-86 130.4706,-122"/>
<text text-anchor="middle" x="77" y="-99.8" font-family="Times,serif" font-size="14.00" fill="#000000">MaterialModule</text>
</g>
<!-- MaterialModule&#45;&gt;SharedModule -->
<g id="edge7" class="edge">
<title>MaterialModule&#45;&gt;SharedModule</title>
<path fill="none" stroke="#000000" d="M77,-122.1061C77,-141.3391 77,-169 77,-169 77,-169 518.5911,-169 518.5911,-169"/>
<polygon fill="#000000" stroke="#000000" points="518.5911,-172.5001 528.5911,-169 518.591,-165.5001 518.5911,-172.5001"/>
</g>
</g>
</svg>
