<?xml version="1.0" encoding="UTF-8" standalone="no"?>
<!DOCTYPE svg PUBLIC "-//W3C//DTD SVG 1.1//EN"
 "http://www.w3.org/Graphics/SVG/1.1/DTD/svg11.dtd">
<!-- Generated by graphviz version 2.40.1 (20161225.0304)
 -->
<!-- Title: dependencies Pages: 1 -->
<svg width="1135pt" height="284pt"
 viewBox="0.00 0.00 1135.00 284.00" xmlns="http://www.w3.org/2000/svg" xmlns:xlink="http://www.w3.org/1999/xlink">
<g id="graph0" class="graph" transform="scale(1 1) rotate(0) translate(4 280)">
<title>dependencies</title>
<polygon fill="#ffffff" stroke="transparent" points="-4,4 -4,-280 1131,-280 1131,4 -4,4"/>
<text text-anchor="start" x="542.5091" y="-42.4" font-family="sans-serif" font-weight="bold" font-size="14.00" fill="#000000">Legend</text>
<polygon fill="#ffffb3" stroke="transparent" points="329.5,-10 329.5,-30 349.5,-30 349.5,-10 329.5,-10"/>
<text text-anchor="start" x="353.129" y="-15.4" font-family="sans-serif" font-size="14.00" fill="#000000"> &#160;Declarations</text>
<polygon fill="#8dd3c7" stroke="transparent" points="442.5,-10 442.5,-30 462.5,-30 462.5,-10 442.5,-10"/>
<text text-anchor="start" x="466.2251" y="-15.4" font-family="sans-serif" font-size="14.00" fill="#000000"> &#160;Module</text>
<polygon fill="#80b1d3" stroke="transparent" points="528.5,-10 528.5,-30 548.5,-30 548.5,-10 528.5,-10"/>
<text text-anchor="start" x="552.2812" y="-15.4" font-family="sans-serif" font-size="14.00" fill="#000000"> &#160;Bootstrap</text>
<polygon fill="#fdb462" stroke="transparent" points="625.5,-10 625.5,-30 645.5,-30 645.5,-10 625.5,-10"/>
<text text-anchor="start" x="649.1732" y="-15.4" font-family="sans-serif" font-size="14.00" fill="#000000"> &#160;Providers</text>
<polygon fill="#fb8072" stroke="transparent" points="721.5,-10 721.5,-30 741.5,-30 741.5,-10 721.5,-10"/>
<text text-anchor="start" x="745.2258" y="-15.4" font-family="sans-serif" font-size="14.00" fill="#000000"> &#160;Exports</text>
<g id="clust1" class="cluster">
<title>cluster_CoreModule</title>
<polygon fill="none" stroke="#000000" stroke-dasharray="1,5" points="8,-70 8,-268 1119,-268 1119,-70 8,-70"/>
</g>
<g id="clust2" class="cluster">
<title>cluster_CoreModule_declarations</title>
<polygon fill="none" stroke="#000000" points="971,-78 971,-130 1111,-130 1111,-78 971,-78"/>
</g>
<g id="clust4" class="cluster">
<title>cluster_CoreModule_imports</title>
<polygon fill="none" stroke="#000000" points="841,-78 841,-130 963,-130 963,-78 841,-78"/>
</g>
<g id="clust5" class="cluster">
<title>cluster_CoreModule_exports</title>
<polygon fill="none" stroke="#000000" points="409,-208 409,-260 681,-260 681,-208 409,-208"/>
</g>
<g id="clust7" class="cluster">
<title>cluster_CoreModule_providers</title>
<polygon fill="none" stroke="#000000" points="16,-78 16,-130 833,-130 833,-78 16,-78"/>
</g>
<!-- NavBarComponent -->
<g id="node1" class="node">
<title>NavBarComponent</title>
<polygon fill="#ffffb3" stroke="#000000" points="1103.3655,-122 978.6345,-122 978.6345,-86 1103.3655,-86 1103.3655,-122"/>
<text text-anchor="middle" x="1041" y="-99.8" font-family="Times,serif" font-size="14.00" fill="#000000">NavBarComponent</text>
</g>
<!-- CoreModule -->
<g id="node2" class="node">
<title>CoreModule</title>
<polygon fill="#8dd3c7" stroke="#000000" points="592.2619,-187 589.2619,-191 568.2619,-191 565.2619,-187 505.7381,-187 505.7381,-151 592.2619,-151 592.2619,-187"/>
<text text-anchor="middle" x="549" y="-164.8" font-family="Times,serif" font-size="14.00" fill="#000000">CoreModule</text>
</g>
<!-- NavBarComponent&#45;&gt;CoreModule -->
<g id="edge1" class="edge">
<title>NavBarComponent&#45;&gt;CoreModule</title>
<path fill="none" stroke="#000000" d="M1041,-122.2921C1041,-144.2057 1041,-178 1041,-178 1041,-178 602.6617,-178 602.6617,-178"/>
<polygon fill="#000000" stroke="#000000" points="602.6618,-174.5001 592.6617,-178 602.6617,-181.5001 602.6618,-174.5001"/>
</g>
<!-- MaterialModule  -->
<g id="node4" class="node">
<title>MaterialModule </title>
<polygon fill="#fb8072" stroke="#000000" points="673.4716,-252 562.5284,-252 562.5284,-216 673.4716,-216 673.4716,-252"/>
<text text-anchor="middle" x="618" y="-229.8" font-family="Times,serif" font-size="14.00" fill="#000000">MaterialModule </text>
</g>
<!-- CoreModule&#45;&gt;MaterialModule  -->
<g id="edge3" class="edge">
<title>CoreModule&#45;&gt;MaterialModule </title>
<path fill="none" stroke="#000000" stroke-dasharray="5,2" d="M577.5728,-187.1061C577.5728,-187.1061 577.5728,-205.991 577.5728,-205.991"/>
<polygon fill="#000000" stroke="#000000" points="574.0728,-205.9909 577.5728,-215.991 581.0728,-205.991 574.0728,-205.9909"/>
</g>
<!-- NavBarComponent  -->
<g id="node5" class="node">
<title>NavBarComponent </title>
<polygon fill="#fb8072" stroke="#000000" points="545.3659,-252 416.6341,-252 416.6341,-216 545.3659,-216 545.3659,-252"/>
<text text-anchor="middle" x="481" y="-229.8" font-family="Times,serif" font-size="14.00" fill="#000000">NavBarComponent </text>
</g>
<!-- CoreModule&#45;&gt;NavBarComponent  -->
<g id="edge4" class="edge">
<title>CoreModule&#45;&gt;NavBarComponent </title>
<path fill="none" stroke="#000000" stroke-dasharray="5,2" d="M525.401,-187.1061C525.401,-187.1061 525.401,-205.991 525.401,-205.991"/>
<polygon fill="#000000" stroke="#000000" points="521.901,-205.9909 525.401,-215.991 528.901,-205.991 521.901,-205.9909"/>
</g>
<!-- MaterialModule -->
<g id="node3" class="node">
<title>MaterialModule</title>
<polygon fill="#8dd3c7" stroke="#000000" points="955.4706,-122 952.4706,-126 931.4706,-126 928.4706,-122 848.5294,-122 848.5294,-86 955.4706,-86 955.4706,-122"/>
<text text-anchor="middle" x="902" y="-99.8" font-family="Times,serif" font-size="14.00" fill="#000000">MaterialModule</text>
</g>
<!-- MaterialModule&#45;&gt;CoreModule -->
<g id="edge2" class="edge">
<title>MaterialModule&#45;&gt;CoreModule</title>
<path fill="none" stroke="#000000" d="M902,-122.1061C902,-141.3391 902,-169 902,-169 902,-169 602.2847,-169 602.2847,-169"/>
<polygon fill="#000000" stroke="#000000" points="602.2848,-165.5001 592.2847,-169 602.2847,-172.5001 602.2848,-165.5001"/>
</g>
<!-- AuthGuardService -->
<g id="node6" class="node">
<title>AuthGuardService</title>
<ellipse fill="#fdb462" stroke="#000000" cx="742" cy="-104" rx="83.3674" ry="18"/>
<text text-anchor="middle" x="742" y="-99.8" font-family="Times,serif" font-size="14.00" fill="#000000">AuthGuardService</text>
</g>
<!-- AuthGuardService&#45;&gt;CoreModule -->
<g id="edge5" class="edge">
<title>AuthGuardService&#45;&gt;CoreModule</title>
<path fill="none" stroke="#000000" d="M665.9008,-111.7866C665.9008,-127.1738 665.9008,-160 665.9008,-160 665.9008,-160 602.5296,-160 602.5296,-160"/>
<polygon fill="#000000" stroke="#000000" points="602.5296,-156.5001 592.5296,-160 602.5295,-163.5001 602.5296,-156.5001"/>
</g>
<!-- EventEmitterService -->
<g id="node7" class="node">
<title>EventEmitterService</title>
<ellipse fill="#fdb462" stroke="#000000" cx="549" cy="-104" rx="91.4654" ry="18"/>
<text text-anchor="middle" x="549" y="-99.8" font-family="Times,serif" font-size="14.00" fill="#000000">EventEmitterService</text>
</g>
<!-- EventEmitterService&#45;&gt;CoreModule -->
<g id="edge6" class="edge">
<title>EventEmitterService&#45;&gt;CoreModule</title>
<path fill="none" stroke="#000000" d="M549,-122.1061C549,-122.1061 549,-140.991 549,-140.991"/>
<polygon fill="#000000" stroke="#000000" points="545.5001,-140.9909 549,-150.991 552.5001,-140.991 545.5001,-140.9909"/>
</g>
<!-- ProductService -->
<g id="node8" class="node">
<title>ProductService</title>
<ellipse fill="#fdb462" stroke="#000000" cx="369" cy="-104" rx="70.0616" ry="18"/>
<text text-anchor="middle" x="369" y="-99.8" font-family="Times,serif" font-size="14.00" fill="#000000">ProductService</text>
</g>
<!-- ProductService&#45;&gt;CoreModule -->
<g id="edge7" class="edge">
<title>ProductService&#45;&gt;CoreModule</title>
<path fill="none" stroke="#000000" d="M427.924,-113.7545C427.924,-129.7988 427.924,-160 427.924,-160 427.924,-160 495.6308,-160 495.6308,-160"/>
<polygon fill="#000000" stroke="#000000" points="495.6308,-163.5001 505.6308,-160 495.6307,-156.5001 495.6308,-163.5001"/>
</g>
<!-- CartService -->
<g id="node9" class="node">
<title>CartService</title>
<ellipse fill="#fdb462" stroke="#000000" cx="224" cy="-104" rx="56.7348" ry="18"/>
<text text-anchor="middle" x="224" y="-99.8" font-family="Times,serif" font-size="14.00" fill="#000000">CartService</text>
</g>
<!-- CartService&#45;&gt;CoreModule -->
<g id="edge8" class="edge">
<title>CartService&#45;&gt;CoreModule</title>
<path fill="none" stroke="#000000" d="M224,-122.1061C224,-141.3391 224,-169 224,-169 224,-169 495.5063,-169 495.5063,-169"/>
<polygon fill="#000000" stroke="#000000" points="495.5063,-172.5001 505.5063,-169 495.5062,-165.5001 495.5063,-172.5001"/>
</g>
<!-- OrderService -->
<g id="node10" class="node">
<title>OrderService</title>
<ellipse fill="#fdb462" stroke="#000000" cx="87" cy="-104" rx="62.516" ry="18"/>
<text text-anchor="middle" x="87" y="-99.8" font-family="Times,serif" font-size="14.00" fill="#000000">OrderService</text>
</g>
<!-- OrderService&#45;&gt;CoreModule -->
<g id="edge9" class="edge">
<title>OrderService&#45;&gt;CoreModule</title>
<path fill="none" stroke="#000000" d="M87,-122.2921C87,-144.2057 87,-178 87,-178 87,-178 495.5362,-178 495.5362,-178"/>
<polygon fill="#000000" stroke="#000000" points="495.5362,-181.5001 505.5362,-178 495.5361,-174.5001 495.5362,-181.5001"/>
</g>
</g>
</svg>
