<?xml version="1.0" encoding="UTF-8" standalone="no"?>
<!DOCTYPE svg PUBLIC "-//W3C//DTD SVG 1.1//EN"
 "http://www.w3.org/Graphics/SVG/1.1/DTD/svg11.dtd">
<!-- Generated by graphviz version 2.40.1 (20161225.0304)
 -->
<!-- Title: dependencies Pages: 1 -->
<svg width="1403pt" height="284pt"
 viewBox="0.00 0.00 1403.00 284.00" xmlns="http://www.w3.org/2000/svg" xmlns:xlink="http://www.w3.org/1999/xlink">
<g id="graph0" class="graph" transform="scale(1 1) rotate(0) translate(4 280)">
<title>dependencies</title>
<polygon fill="#ffffff" stroke="transparent" points="-4,4 -4,-280 1399,-280 1399,4 -4,4"/>
<text text-anchor="start" x="676.5091" y="-42.4" font-family="sans-serif" font-weight="bold" font-size="14.00" fill="#000000">Legend</text>
<polygon fill="#ffffb3" stroke="transparent" points="463.5,-10 463.5,-30 483.5,-30 483.5,-10 463.5,-10"/>
<text text-anchor="start" x="487.129" y="-15.4" font-family="sans-serif" font-size="14.00" fill="#000000"> &#160;Declarations</text>
<polygon fill="#8dd3c7" stroke="transparent" points="576.5,-10 576.5,-30 596.5,-30 596.5,-10 576.5,-10"/>
<text text-anchor="start" x="600.2251" y="-15.4" font-family="sans-serif" font-size="14.00" fill="#000000"> &#160;Module</text>
<polygon fill="#80b1d3" stroke="transparent" points="662.5,-10 662.5,-30 682.5,-30 682.5,-10 662.5,-10"/>
<text text-anchor="start" x="686.2812" y="-15.4" font-family="sans-serif" font-size="14.00" fill="#000000"> &#160;Bootstrap</text>
<polygon fill="#fdb462" stroke="transparent" points="759.5,-10 759.5,-30 779.5,-30 779.5,-10 759.5,-10"/>
<text text-anchor="start" x="783.1732" y="-15.4" font-family="sans-serif" font-size="14.00" fill="#000000"> &#160;Providers</text>
<polygon fill="#fb8072" stroke="transparent" points="855.5,-10 855.5,-30 875.5,-30 875.5,-10 855.5,-10"/>
<text text-anchor="start" x="879.2258" y="-15.4" font-family="sans-serif" font-size="14.00" fill="#000000"> &#160;Exports</text>
<g id="clust1" class="cluster">
<title>cluster_CoreModule</title>
<polygon fill="none" stroke="#000000" stroke-dasharray="1,5" points="8,-70 8,-268 1387,-268 1387,-70 8,-70"/>
</g>
<g id="clust2" class="cluster">
<title>cluster_CoreModule_declarations</title>
<polygon fill="none" stroke="#000000" points="1239,-78 1239,-130 1379,-130 1379,-78 1239,-78"/>
</g>
<g id="clust4" class="cluster">
<title>cluster_CoreModule_imports</title>
<polygon fill="none" stroke="#000000" points="1109,-78 1109,-130 1231,-130 1231,-78 1109,-78"/>
</g>
<g id="clust5" class="cluster">
<title>cluster_CoreModule_exports</title>
<polygon fill="none" stroke="#000000" points="509,-208 509,-260 781,-260 781,-208 509,-208"/>
</g>
<g id="clust7" class="cluster">
<title>cluster_CoreModule_providers</title>
<polygon fill="none" stroke="#000000" points="16,-78 16,-130 1101,-130 1101,-78 16,-78"/>
</g>
<!-- NavBarComponent -->
<g id="node1" class="node">
<title>NavBarComponent</title>
<polygon fill="#ffffb3" stroke="#000000" points="1371.3655,-122 1246.6345,-122 1246.6345,-86 1371.3655,-86 1371.3655,-122"/>
<text text-anchor="middle" x="1309" y="-99.8" font-family="Times,serif" font-size="14.00" fill="#000000">NavBarComponent</text>
</g>
<!-- CoreModule -->
<g id="node2" class="node">
<title>CoreModule</title>
<polygon fill="#8dd3c7" stroke="#000000" points="692.2619,-187 689.2619,-191 668.2619,-191 665.2619,-187 605.7381,-187 605.7381,-151 692.2619,-151 692.2619,-187"/>
<text text-anchor="middle" x="649" y="-164.8" font-family="Times,serif" font-size="14.00" fill="#000000">CoreModule</text>
</g>
<!-- NavBarComponent&#45;&gt;CoreModule -->
<g id="edge1" class="edge">
<title>NavBarComponent&#45;&gt;CoreModule</title>
<path fill="none" stroke="#000000" d="M1309,-122.0109C1309,-144.4852 1309,-180 1309,-180 1309,-180 702.3044,-180 702.3044,-180"/>
<polygon fill="#000000" stroke="#000000" points="702.3045,-176.5001 692.3044,-180 702.3044,-183.5001 702.3045,-176.5001"/>
</g>
<!-- MaterialModule  -->
<g id="node4" class="node">
<title>MaterialModule </title>
<polygon fill="#fb8072" stroke="#000000" points="773.4716,-252 662.5284,-252 662.5284,-216 773.4716,-216 773.4716,-252"/>
<text text-anchor="middle" x="718" y="-229.8" font-family="Times,serif" font-size="14.00" fill="#000000">MaterialModule </text>
</g>
<!-- CoreModule&#45;&gt;MaterialModule  -->
<g id="edge3" class="edge">
<title>CoreModule&#45;&gt;MaterialModule </title>
<path fill="none" stroke="#000000" stroke-dasharray="5,2" d="M677.5728,-187.1061C677.5728,-187.1061 677.5728,-205.991 677.5728,-205.991"/>
<polygon fill="#000000" stroke="#000000" points="674.0728,-205.9909 677.5728,-215.991 681.0728,-205.991 674.0728,-205.9909"/>
</g>
<!-- NavBarComponent  -->
<g id="node5" class="node">
<title>NavBarComponent </title>
<polygon fill="#fb8072" stroke="#000000" points="645.3659,-252 516.6341,-252 516.6341,-216 645.3659,-216 645.3659,-252"/>
<text text-anchor="middle" x="581" y="-229.8" font-family="Times,serif" font-size="14.00" fill="#000000">NavBarComponent </text>
</g>
<!-- CoreModule&#45;&gt;NavBarComponent  -->
<g id="edge4" class="edge">
<title>CoreModule&#45;&gt;NavBarComponent </title>
<path fill="none" stroke="#000000" stroke-dasharray="5,2" d="M625.401,-187.1061C625.401,-187.1061 625.401,-205.991 625.401,-205.991"/>
<polygon fill="#000000" stroke="#000000" points="621.901,-205.9909 625.401,-215.991 628.901,-205.991 621.901,-205.9909"/>
</g>
<!-- MaterialModule -->
<g id="node3" class="node">
<title>MaterialModule</title>
<polygon fill="#8dd3c7" stroke="#000000" points="1223.4706,-122 1220.4706,-126 1199.4706,-126 1196.4706,-122 1116.5294,-122 1116.5294,-86 1223.4706,-86 1223.4706,-122"/>
<text text-anchor="middle" x="1170" y="-99.8" font-family="Times,serif" font-size="14.00" fill="#000000">MaterialModule</text>
</g>
<!-- MaterialModule&#45;&gt;CoreModule -->
<g id="edge2" class="edge">
<title>MaterialModule&#45;&gt;CoreModule</title>
<path fill="none" stroke="#000000" d="M1170,-122.1289C1170,-142.5724 1170,-173 1170,-173 1170,-173 702.524,-173 702.524,-173"/>
<polygon fill="#000000" stroke="#000000" points="702.5241,-169.5001 692.524,-173 702.524,-176.5001 702.5241,-169.5001"/>
</g>
<!-- AuthGuardService -->
<g id="node6" class="node">
<title>AuthGuardService</title>
<ellipse fill="#fdb462" stroke="#000000" cx="1010" cy="-104" rx="83.3674" ry="18"/>
<text text-anchor="middle" x="1010" y="-99.8" font-family="Times,serif" font-size="14.00" fill="#000000">AuthGuardService</text>
</g>
<!-- AuthGuardService&#45;&gt;CoreModule -->
<g id="edge5" class="edge">
<title>AuthGuardService&#45;&gt;CoreModule</title>
<path fill="none" stroke="#000000" d="M1010,-122.2667C1010,-140.5552 1010,-166 1010,-166 1010,-166 702.545,-166 702.545,-166"/>
<polygon fill="#000000" stroke="#000000" points="702.5451,-162.5001 692.545,-166 702.545,-169.5001 702.5451,-162.5001"/>
</g>
<!-- EventEmitterService -->
<g id="node7" class="node">
<title>EventEmitterService</title>
<ellipse fill="#fdb462" stroke="#000000" cx="817" cy="-104" rx="91.4654" ry="18"/>
<text text-anchor="middle" x="817" y="-99.8" font-family="Times,serif" font-size="14.00" fill="#000000">EventEmitterService</text>
</g>
<!-- EventEmitterService&#45;&gt;CoreModule -->
<g id="edge6" class="edge">
<title>EventEmitterService&#45;&gt;CoreModule</title>
<path fill="none" stroke="#000000" d="M749.3763,-116.2063C749.3763,-132.4097 749.3763,-159 749.3763,-159 749.3763,-159 702.4427,-159 702.4427,-159"/>
<polygon fill="#000000" stroke="#000000" points="702.4427,-155.5001 692.4427,-159 702.4427,-162.5001 702.4427,-155.5001"/>
</g>
<!-- ChatService -->
<g id="node8" class="node">
<title>ChatService</title>
<ellipse fill="#fdb462" stroke="#000000" cx="649" cy="-104" rx="58.4628" ry="18"/>
<text text-anchor="middle" x="649" y="-99.8" font-family="Times,serif" font-size="14.00" fill="#000000">ChatService</text>
</g>
<!-- ChatService&#45;&gt;CoreModule -->
<g id="edge7" class="edge">
<title>ChatService&#45;&gt;CoreModule</title>
<path fill="none" stroke="#000000" d="M649,-122.1061C649,-122.1061 649,-140.991 649,-140.991"/>
<polygon fill="#000000" stroke="#000000" points="645.5001,-140.9909 649,-150.991 652.5001,-140.991 645.5001,-140.9909"/>
</g>
<!-- CartService -->
<g id="node9" class="node">
<title>CartService</title>
<ellipse fill="#fdb462" stroke="#000000" cx="516" cy="-104" rx="56.7348" ry="18"/>
<text text-anchor="middle" x="516" y="-99.8" font-family="Times,serif" font-size="14.00" fill="#000000">CartService</text>
</g>
<!-- CartService&#45;&gt;CoreModule -->
<g id="edge8" class="edge">
<title>CartService&#45;&gt;CoreModule</title>
<path fill="none" stroke="#000000" d="M544.7173,-119.6137C544.7173,-135.8741 544.7173,-159 544.7173,-159 544.7173,-159 595.6807,-159 595.6807,-159"/>
<polygon fill="#000000" stroke="#000000" points="595.6807,-162.5001 605.6807,-159 595.6807,-155.5001 595.6807,-162.5001"/>
</g>
<!-- OrderService -->
<g id="node10" class="node">
<title>OrderService</title>
<ellipse fill="#fdb462" stroke="#000000" cx="379" cy="-104" rx="62.516" ry="18"/>
<text text-anchor="middle" x="379" y="-99.8" font-family="Times,serif" font-size="14.00" fill="#000000">OrderService</text>
</g>
<!-- OrderService&#45;&gt;CoreModule -->
<g id="edge9" class="edge">
<title>OrderService&#45;&gt;CoreModule</title>
<path fill="none" stroke="#000000" d="M379,-122.2667C379,-140.5552 379,-166 379,-166 379,-166 595.6198,-166 595.6198,-166"/>
<polygon fill="#000000" stroke="#000000" points="595.6199,-169.5001 605.6198,-166 595.6198,-162.5001 595.6199,-169.5001"/>
</g>
<!-- ProductService -->
<g id="node11" class="node">
<title>ProductService</title>
<ellipse fill="#fdb462" stroke="#000000" cx="228" cy="-104" rx="70.0616" ry="18"/>
<text text-anchor="middle" x="228" y="-99.8" font-family="Times,serif" font-size="14.00" fill="#000000">ProductService</text>
</g>
<!-- ProductService&#45;&gt;CoreModule -->
<g id="edge10" class="edge">
<title>ProductService&#45;&gt;CoreModule</title>
<path fill="none" stroke="#000000" d="M228,-122.1289C228,-142.5724 228,-173 228,-173 228,-173 595.5313,-173 595.5313,-173"/>
<polygon fill="#000000" stroke="#000000" points="595.5313,-176.5001 605.5313,-173 595.5313,-169.5001 595.5313,-176.5001"/>
</g>
<!-- UserService -->
<g id="node12" class="node">
<title>UserService</title>
<ellipse fill="#fdb462" stroke="#000000" cx="82" cy="-104" rx="58.4415" ry="18"/>
<text text-anchor="middle" x="82" y="-99.8" font-family="Times,serif" font-size="14.00" fill="#000000">UserService</text>
</g>
<!-- UserService&#45;&gt;CoreModule -->
<g id="edge11" class="edge">
<title>UserService&#45;&gt;CoreModule</title>
<path fill="none" stroke="#000000" d="M82,-122.0109C82,-144.4852 82,-180 82,-180 82,-180 595.4499,-180 595.4499,-180"/>
<polygon fill="#000000" stroke="#000000" points="595.45,-183.5001 605.4499,-180 595.4499,-176.5001 595.45,-183.5001"/>
</g>
</g>
</svg>
