<?xml version="1.0" encoding="UTF-8" standalone="no"?>
<!DOCTYPE svg PUBLIC "-//W3C//DTD SVG 1.1//EN"
 "http://www.w3.org/Graphics/SVG/1.1/DTD/svg11.dtd">
<!-- Generated by graphviz version 2.40.1 (20161225.0304)
 -->
<!-- Title: dependencies Pages: 1 -->
<svg width="1041pt" height="284pt"
 viewBox="0.00 0.00 1041.00 284.00" xmlns="http://www.w3.org/2000/svg" xmlns:xlink="http://www.w3.org/1999/xlink">
<g id="graph0" class="graph" transform="scale(1 1) rotate(0) translate(4 280)">
<title>dependencies</title>
<polygon fill="#ffffff" stroke="transparent" points="-4,4 -4,-280 1037,-280 1037,4 -4,4"/>
<text text-anchor="start" x="495.5091" y="-42.4" font-family="sans-serif" font-weight="bold" font-size="14.00" fill="#000000">Legend</text>
<polygon fill="#ffffb3" stroke="transparent" points="282.5,-10 282.5,-30 302.5,-30 302.5,-10 282.5,-10"/>
<text text-anchor="start" x="306.129" y="-15.4" font-family="sans-serif" font-size="14.00" fill="#000000"> &#160;Declarations</text>
<polygon fill="#8dd3c7" stroke="transparent" points="395.5,-10 395.5,-30 415.5,-30 415.5,-10 395.5,-10"/>
<text text-anchor="start" x="419.2251" y="-15.4" font-family="sans-serif" font-size="14.00" fill="#000000"> &#160;Module</text>
<polygon fill="#80b1d3" stroke="transparent" points="481.5,-10 481.5,-30 501.5,-30 501.5,-10 481.5,-10"/>
<text text-anchor="start" x="505.2812" y="-15.4" font-family="sans-serif" font-size="14.00" fill="#000000"> &#160;Bootstrap</text>
<polygon fill="#fdb462" stroke="transparent" points="578.5,-10 578.5,-30 598.5,-30 598.5,-10 578.5,-10"/>
<text text-anchor="start" x="602.1732" y="-15.4" font-family="sans-serif" font-size="14.00" fill="#000000"> &#160;Providers</text>
<polygon fill="#fb8072" stroke="transparent" points="674.5,-10 674.5,-30 694.5,-30 694.5,-10 674.5,-10"/>
<text text-anchor="start" x="698.2258" y="-15.4" font-family="sans-serif" font-size="14.00" fill="#000000"> &#160;Exports</text>
<g id="clust1" class="cluster">
<title>cluster_ProductModule</title>
<polygon fill="none" stroke="#000000" stroke-dasharray="1,5" points="8,-70 8,-268 1025,-268 1025,-70 8,-70"/>
</g>
<g id="clust2" class="cluster">
<title>cluster_ProductModule_declarations</title>
<polygon fill="none" stroke="#000000" points="310,-78 310,-130 1017,-130 1017,-78 310,-78"/>
</g>
<g id="clust7" class="cluster">
<title>cluster_ProductModule_imports</title>
<polygon fill="none" stroke="#000000" points="180,-78 180,-130 302,-130 302,-78 180,-78"/>
</g>
<g id="clust8" class="cluster">
<title>cluster_ProductModule_exports</title>
<polygon fill="none" stroke="#000000" points="111,-208 111,-260 832,-260 832,-208 111,-208"/>
</g>
<g id="clust10" class="cluster">
<title>cluster_ProductModule_providers</title>
<polygon fill="none" stroke="#000000" points="16,-78 16,-130 172,-130 172,-78 16,-78"/>
</g>
<!-- ProductCardComponent -->
<g id="node1" class="node">
<title>ProductCardComponent</title>
<polygon fill="#ffffb3" stroke="#000000" points="1009.0926,-122 856.9074,-122 856.9074,-86 1009.0926,-86 1009.0926,-122"/>
<text text-anchor="middle" x="933" y="-99.8" font-family="Times,serif" font-size="14.00" fill="#000000">ProductCardComponent</text>
</g>
<!-- ProductModule -->
<g id="node5" class="node">
<title>ProductModule</title>
<polygon fill="#8dd3c7" stroke="#000000" points="535.5982,-187 532.5982,-191 511.5982,-191 508.5982,-187 432.4018,-187 432.4018,-151 535.5982,-151 535.5982,-187"/>
<text text-anchor="middle" x="484" y="-164.8" font-family="Times,serif" font-size="14.00" fill="#000000">ProductModule</text>
</g>
<!-- ProductCardComponent&#45;&gt;ProductModule -->
<g id="edge1" class="edge">
<title>ProductCardComponent&#45;&gt;ProductModule</title>
<path fill="none" stroke="#000000" d="M933,-122.1061C933,-141.3391 933,-169 933,-169 933,-169 545.9446,-169 545.9446,-169"/>
<polygon fill="#000000" stroke="#000000" points="545.9447,-165.5001 535.9446,-169 545.9446,-172.5001 545.9447,-165.5001"/>
</g>
<!-- SellerPageComponent -->
<g id="node2" class="node">
<title>SellerPageComponent</title>
<polygon fill="#ffffb3" stroke="#000000" points="838.6979,-122 697.3021,-122 697.3021,-86 838.6979,-86 838.6979,-122"/>
<text text-anchor="middle" x="768" y="-99.8" font-family="Times,serif" font-size="14.00" fill="#000000">SellerPageComponent</text>
</g>
<!-- SellerPageComponent&#45;&gt;ProductModule -->
<g id="edge2" class="edge">
<title>SellerPageComponent&#45;&gt;ProductModule</title>
<path fill="none" stroke="#000000" d="M760.5987,-122.027C760.5987,-138.3976 760.5987,-160 760.5987,-160 760.5987,-160 545.7016,-160 545.7016,-160"/>
<polygon fill="#000000" stroke="#000000" points="545.7017,-156.5001 535.7016,-160 545.7016,-163.5001 545.7017,-156.5001"/>
</g>
<!-- ProductsHomePageComponent -->
<g id="node3" class="node">
<title>ProductsHomePageComponent</title>
<polygon fill="#ffffb3" stroke="#000000" points="679.7492,-122 488.2508,-122 488.2508,-86 679.7492,-86 679.7492,-122"/>
<text text-anchor="middle" x="584" y="-99.8" font-family="Times,serif" font-size="14.00" fill="#000000">ProductsHomePageComponent</text>
</g>
<!-- ProductsHomePageComponent&#45;&gt;ProductModule -->
<g id="edge3" class="edge">
<title>ProductsHomePageComponent&#45;&gt;ProductModule</title>
<path fill="none" stroke="#000000" d="M511.8373,-122.1061C511.8373,-122.1061 511.8373,-140.991 511.8373,-140.991"/>
<polygon fill="#000000" stroke="#000000" points="508.3374,-140.9909 511.8373,-150.991 515.3374,-140.991 508.3374,-140.9909"/>
</g>
<!-- ProductPageComponent -->
<g id="node4" class="node">
<title>ProductPageComponent</title>
<polygon fill="#ffffb3" stroke="#000000" points="470.0926,-122 317.9074,-122 317.9074,-86 470.0926,-86 470.0926,-122"/>
<text text-anchor="middle" x="394" y="-99.8" font-family="Times,serif" font-size="14.00" fill="#000000">ProductPageComponent</text>
</g>
<!-- ProductPageComponent&#45;&gt;ProductModule -->
<g id="edge4" class="edge">
<title>ProductPageComponent&#45;&gt;ProductModule</title>
<path fill="none" stroke="#000000" d="M451.2486,-122.1061C451.2486,-122.1061 451.2486,-140.991 451.2486,-140.991"/>
<polygon fill="#000000" stroke="#000000" points="447.7487,-140.9909 451.2486,-150.991 454.7487,-140.991 447.7487,-140.9909"/>
</g>
<!-- ProductCardComponent  -->
<g id="node7" class="node">
<title>ProductCardComponent </title>
<polygon fill="#fb8072" stroke="#000000" points="823.5931,-252 668.4069,-252 668.4069,-216 823.5931,-216 823.5931,-252"/>
<text text-anchor="middle" x="746" y="-229.8" font-family="Times,serif" font-size="14.00" fill="#000000">ProductCardComponent </text>
</g>
<!-- ProductModule&#45;&gt;ProductCardComponent  -->
<g id="edge6" class="edge">
<title>ProductModule&#45;&gt;ProductCardComponent </title>
<path fill="none" stroke="#000000" stroke-dasharray="5,2" d="M535.678,-178C591.9523,-178 674.0391,-178 674.0391,-178 674.0391,-178 674.0391,-205.973 674.0391,-205.973"/>
<polygon fill="#000000" stroke="#000000" points="670.5392,-205.973 674.0391,-215.973 677.5392,-205.973 670.5392,-205.973"/>
</g>
<!-- SellerPageComponent  -->
<g id="node8" class="node">
<title>SellerPageComponent </title>
<polygon fill="#fb8072" stroke="#000000" points="650.1981,-252 505.8019,-252 505.8019,-216 650.1981,-216 650.1981,-252"/>
<text text-anchor="middle" x="578" y="-229.8" font-family="Times,serif" font-size="14.00" fill="#000000">SellerPageComponent </text>
</g>
<!-- ProductModule&#45;&gt;SellerPageComponent  -->
<g id="edge7" class="edge">
<title>ProductModule&#45;&gt;SellerPageComponent </title>
<path fill="none" stroke="#000000" stroke-dasharray="5,2" d="M520.6001,-187.1061C520.6001,-187.1061 520.6001,-205.991 520.6001,-205.991"/>
<polygon fill="#000000" stroke="#000000" points="517.1002,-205.9909 520.6001,-215.991 524.1002,-205.991 517.1002,-205.9909"/>
</g>
<!-- ProductsHomePageComponent  -->
<g id="node9" class="node">
<title>ProductsHomePageComponent </title>
<polygon fill="#fb8072" stroke="#000000" points="487.7492,-252 292.2508,-252 292.2508,-216 487.7492,-216 487.7492,-252"/>
<text text-anchor="middle" x="390" y="-229.8" font-family="Times,serif" font-size="14.00" fill="#000000">ProductsHomePageComponent </text>
</g>
<!-- ProductModule&#45;&gt;ProductsHomePageComponent  -->
<g id="edge8" class="edge">
<title>ProductModule&#45;&gt;ProductsHomePageComponent </title>
<path fill="none" stroke="#000000" stroke-dasharray="5,2" d="M460.0377,-187.1061C460.0377,-187.1061 460.0377,-205.991 460.0377,-205.991"/>
<polygon fill="#000000" stroke="#000000" points="456.5378,-205.9909 460.0377,-215.991 463.5378,-205.991 456.5378,-205.9909"/>
</g>
<!-- ProductPageComponent  -->
<g id="node10" class="node">
<title>ProductPageComponent </title>
<polygon fill="#fb8072" stroke="#000000" points="274.5931,-252 119.4069,-252 119.4069,-216 274.5931,-216 274.5931,-252"/>
<text text-anchor="middle" x="197" y="-229.8" font-family="Times,serif" font-size="14.00" fill="#000000">ProductPageComponent </text>
</g>
<!-- ProductModule&#45;&gt;ProductPageComponent  -->
<g id="edge9" class="edge">
<title>ProductModule&#45;&gt;ProductPageComponent </title>
<path fill="none" stroke="#000000" stroke-dasharray="5,2" d="M432.223,-178C358.25,-178 231.1555,-178 231.1555,-178 231.1555,-178 231.1555,-205.973 231.1555,-205.973"/>
<polygon fill="#000000" stroke="#000000" points="227.6556,-205.973 231.1555,-215.973 234.6556,-205.973 227.6556,-205.973"/>
</g>
<!-- MaterialModule -->
<g id="node6" class="node">
<title>MaterialModule</title>
<polygon fill="#8dd3c7" stroke="#000000" points="294.4706,-122 291.4706,-126 270.4706,-126 267.4706,-122 187.5294,-122 187.5294,-86 294.4706,-86 294.4706,-122"/>
<text text-anchor="middle" x="241" y="-99.8" font-family="Times,serif" font-size="14.00" fill="#000000">MaterialModule</text>
</g>
<!-- MaterialModule&#45;&gt;ProductModule -->
<g id="edge5" class="edge">
<title>MaterialModule&#45;&gt;ProductModule</title>
<path fill="none" stroke="#000000" d="M283.5859,-122.027C283.5859,-138.3976 283.5859,-160 283.5859,-160 283.5859,-160 422.3884,-160 422.3884,-160"/>
<polygon fill="#000000" stroke="#000000" points="422.3884,-163.5001 432.3884,-160 422.3884,-156.5001 422.3884,-163.5001"/>
</g>
<!-- ProductService -->
<g id="node11" class="node">
<title>ProductService</title>
<ellipse fill="#fdb462" stroke="#000000" cx="94" cy="-104" rx="70.0616" ry="18"/>
<text text-anchor="middle" x="94" y="-99.8" font-family="Times,serif" font-size="14.00" fill="#000000">ProductService</text>
</g>
<!-- ProductService&#45;&gt;ProductModule -->
<g id="edge10" class="edge">
<title>ProductService&#45;&gt;ProductModule</title>
<path fill="none" stroke="#000000" d="M141.6172,-117.468C141.6172,-136.5069 141.6172,-169 141.6172,-169 141.6172,-169 422.3711,-169 422.3711,-169"/>
<polygon fill="#000000" stroke="#000000" points="422.3712,-172.5001 432.3711,-169 422.3711,-165.5001 422.3712,-172.5001"/>
</g>
</g>
</svg>
