<?xml version="1.0" encoding="UTF-8" standalone="no"?>
<!DOCTYPE svg PUBLIC "-//W3C//DTD SVG 1.1//EN"
 "http://www.w3.org/Graphics/SVG/1.1/DTD/svg11.dtd">
<!-- Generated by graphviz version 2.40.1 (20161225.0304)
 -->
<!-- Title: dependencies Pages: 1 -->
<svg width="882pt" height="284pt"
 viewBox="0.00 0.00 882.00 284.00" xmlns="http://www.w3.org/2000/svg" xmlns:xlink="http://www.w3.org/1999/xlink">
<g id="graph0" class="graph" transform="scale(1 1) rotate(0) translate(4 280)">
<title>dependencies</title>
<polygon fill="#ffffff" stroke="transparent" points="-4,4 -4,-280 878,-280 878,4 -4,4"/>
<text text-anchor="start" x="416.0091" y="-42.4" font-family="sans-serif" font-weight="bold" font-size="14.00" fill="#000000">Legend</text>
<polygon fill="#ffffb3" stroke="transparent" points="203,-10 203,-30 223,-30 223,-10 203,-10"/>
<text text-anchor="start" x="226.629" y="-15.4" font-family="sans-serif" font-size="14.00" fill="#000000"> &#160;Declarations</text>
<polygon fill="#8dd3c7" stroke="transparent" points="316,-10 316,-30 336,-30 336,-10 316,-10"/>
<text text-anchor="start" x="339.7251" y="-15.4" font-family="sans-serif" font-size="14.00" fill="#000000"> &#160;Module</text>
<polygon fill="#80b1d3" stroke="transparent" points="402,-10 402,-30 422,-30 422,-10 402,-10"/>
<text text-anchor="start" x="425.7812" y="-15.4" font-family="sans-serif" font-size="14.00" fill="#000000"> &#160;Bootstrap</text>
<polygon fill="#fdb462" stroke="transparent" points="499,-10 499,-30 519,-30 519,-10 499,-10"/>
<text text-anchor="start" x="522.6732" y="-15.4" font-family="sans-serif" font-size="14.00" fill="#000000"> &#160;Providers</text>
<polygon fill="#fb8072" stroke="transparent" points="595,-10 595,-30 615,-30 615,-10 595,-10"/>
<text text-anchor="start" x="618.7258" y="-15.4" font-family="sans-serif" font-size="14.00" fill="#000000"> &#160;Exports</text>
<g id="clust1" class="cluster">
<title>cluster_ProductModule</title>
<polygon fill="none" stroke="#000000" stroke-dasharray="1,5" points="8,-70 8,-268 866,-268 866,-70 8,-70"/>
</g>
<g id="clust2" class="cluster">
<title>cluster_ProductModule_declarations</title>
<polygon fill="none" stroke="#000000" points="310,-78 310,-130 858,-130 858,-78 310,-78"/>
</g>
<g id="clust6" class="cluster">
<title>cluster_ProductModule_imports</title>
<polygon fill="none" stroke="#000000" points="180,-78 180,-130 302,-130 302,-78 180,-78"/>
</g>
<g id="clust7" class="cluster">
<title>cluster_ProductModule_exports</title>
<polygon fill="none" stroke="#000000" points="115,-208 115,-260 673,-260 673,-208 115,-208"/>
</g>
<g id="clust9" class="cluster">
<title>cluster_ProductModule_providers</title>
<polygon fill="none" stroke="#000000" points="16,-78 16,-130 172,-130 172,-78 16,-78"/>
</g>
<!-- ProductCardComponent -->
<g id="node1" class="node">
<title>ProductCardComponent</title>
<polygon fill="#ffffb3" stroke="#000000" points="850.0926,-122 697.9074,-122 697.9074,-86 850.0926,-86 850.0926,-122"/>
<text text-anchor="middle" x="774" y="-99.8" font-family="Times,serif" font-size="14.00" fill="#000000">ProductCardComponent</text>
</g>
<!-- ProductModule -->
<g id="node4" class="node">
<title>ProductModule</title>
<polygon fill="#8dd3c7" stroke="#000000" points="445.5982,-187 442.5982,-191 421.5982,-191 418.5982,-187 342.4018,-187 342.4018,-151 445.5982,-151 445.5982,-187"/>
<text text-anchor="middle" x="394" y="-164.8" font-family="Times,serif" font-size="14.00" fill="#000000">ProductModule</text>
</g>
<!-- ProductCardComponent&#45;&gt;ProductModule -->
<g id="edge1" class="edge">
<title>ProductCardComponent&#45;&gt;ProductModule</title>
<path fill="none" stroke="#000000" d="M774,-122.1061C774,-141.3391 774,-169 774,-169 774,-169 455.644,-169 455.644,-169"/>
<polygon fill="#000000" stroke="#000000" points="455.644,-165.5001 445.644,-169 455.6439,-172.5001 455.644,-165.5001"/>
</g>
<!-- ProductsHomePageComponent -->
<g id="node2" class="node">
<title>ProductsHomePageComponent</title>
<polygon fill="#ffffb3" stroke="#000000" points="679.7492,-122 488.2508,-122 488.2508,-86 679.7492,-86 679.7492,-122"/>
<text text-anchor="middle" x="584" y="-99.8" font-family="Times,serif" font-size="14.00" fill="#000000">ProductsHomePageComponent</text>
</g>
<!-- ProductsHomePageComponent&#45;&gt;ProductModule -->
<g id="edge2" class="edge">
<title>ProductsHomePageComponent&#45;&gt;ProductModule</title>
<path fill="none" stroke="#000000" d="M500.4141,-122.027C500.4141,-138.3976 500.4141,-160 500.4141,-160 500.4141,-160 455.6484,-160 455.6484,-160"/>
<polygon fill="#000000" stroke="#000000" points="455.6485,-156.5001 445.6484,-160 455.6484,-163.5001 455.6485,-156.5001"/>
</g>
<!-- ProductPageComponent -->
<g id="node3" class="node">
<title>ProductPageComponent</title>
<polygon fill="#ffffb3" stroke="#000000" points="470.0926,-122 317.9074,-122 317.9074,-86 470.0926,-86 470.0926,-122"/>
<text text-anchor="middle" x="394" y="-99.8" font-family="Times,serif" font-size="14.00" fill="#000000">ProductPageComponent</text>
</g>
<!-- ProductPageComponent&#45;&gt;ProductModule -->
<g id="edge3" class="edge">
<title>ProductPageComponent&#45;&gt;ProductModule</title>
<path fill="none" stroke="#000000" d="M394,-122.1061C394,-122.1061 394,-140.991 394,-140.991"/>
<polygon fill="#000000" stroke="#000000" points="390.5001,-140.9909 394,-150.991 397.5001,-140.991 390.5001,-140.9909"/>
</g>
<!-- ProductCardComponent  -->
<g id="node6" class="node">
<title>ProductCardComponent </title>
<polygon fill="#fb8072" stroke="#000000" points="664.5931,-252 509.4069,-252 509.4069,-216 664.5931,-216 664.5931,-252"/>
<text text-anchor="middle" x="587" y="-229.8" font-family="Times,serif" font-size="14.00" fill="#000000">ProductCardComponent </text>
</g>
<!-- ProductModule&#45;&gt;ProductCardComponent  -->
<g id="edge5" class="edge">
<title>ProductModule&#45;&gt;ProductCardComponent </title>
<path fill="none" stroke="#000000" stroke-dasharray="5,2" d="M445.7205,-178C502.8894,-178 587,-178 587,-178 587,-178 587,-205.973 587,-205.973"/>
<polygon fill="#000000" stroke="#000000" points="583.5001,-205.973 587,-215.973 590.5001,-205.973 583.5001,-205.973"/>
</g>
<!-- ProductsHomePageComponent  -->
<g id="node7" class="node">
<title>ProductsHomePageComponent </title>
<polygon fill="#fb8072" stroke="#000000" points="491.7492,-252 296.2508,-252 296.2508,-216 491.7492,-216 491.7492,-252"/>
<text text-anchor="middle" x="394" y="-229.8" font-family="Times,serif" font-size="14.00" fill="#000000">ProductsHomePageComponent </text>
</g>
<!-- ProductModule&#45;&gt;ProductsHomePageComponent  -->
<g id="edge6" class="edge">
<title>ProductModule&#45;&gt;ProductsHomePageComponent </title>
<path fill="none" stroke="#000000" stroke-dasharray="5,2" d="M394,-187.1061C394,-187.1061 394,-205.991 394,-205.991"/>
<polygon fill="#000000" stroke="#000000" points="390.5001,-205.9909 394,-215.991 397.5001,-205.991 390.5001,-205.9909"/>
</g>
<!-- ProductPageComponent  -->
<g id="node8" class="node">
<title>ProductPageComponent </title>
<polygon fill="#fb8072" stroke="#000000" points="278.5931,-252 123.4069,-252 123.4069,-216 278.5931,-216 278.5931,-252"/>
<text text-anchor="middle" x="201" y="-229.8" font-family="Times,serif" font-size="14.00" fill="#000000">ProductPageComponent </text>
</g>
<!-- ProductModule&#45;&gt;ProductPageComponent  -->
<g id="edge7" class="edge">
<title>ProductModule&#45;&gt;ProductPageComponent </title>
<path fill="none" stroke="#000000" stroke-dasharray="5,2" d="M342.2224,-178C295.2025,-178 233.1555,-178 233.1555,-178 233.1555,-178 233.1555,-205.973 233.1555,-205.973"/>
<polygon fill="#000000" stroke="#000000" points="229.6556,-205.973 233.1555,-215.973 236.6556,-205.973 229.6556,-205.973"/>
</g>
<!-- MaterialModule -->
<g id="node5" class="node">
<title>MaterialModule</title>
<polygon fill="#8dd3c7" stroke="#000000" points="294.4706,-122 291.4706,-126 270.4706,-126 267.4706,-122 187.5294,-122 187.5294,-86 294.4706,-86 294.4706,-122"/>
<text text-anchor="middle" x="241" y="-99.8" font-family="Times,serif" font-size="14.00" fill="#000000">MaterialModule</text>
</g>
<!-- MaterialModule&#45;&gt;ProductModule -->
<g id="edge4" class="edge">
<title>MaterialModule&#45;&gt;ProductModule</title>
<path fill="none" stroke="#000000" d="M286.6408,-122.027C286.6408,-138.3976 286.6408,-160 286.6408,-160 286.6408,-160 332.2072,-160 332.2072,-160"/>
<polygon fill="#000000" stroke="#000000" points="332.2073,-163.5001 342.2072,-160 332.2072,-156.5001 332.2073,-163.5001"/>
</g>
<!-- ProductService -->
<g id="node9" class="node">
<title>ProductService</title>
<ellipse fill="#fdb462" stroke="#000000" cx="94" cy="-104" rx="70.0616" ry="18"/>
<text text-anchor="middle" x="94" y="-99.8" font-family="Times,serif" font-size="14.00" fill="#000000">ProductService</text>
</g>
<!-- ProductService&#45;&gt;ProductModule -->
<g id="edge8" class="edge">
<title>ProductService&#45;&gt;ProductModule</title>
<path fill="none" stroke="#000000" d="M143.6172,-116.8419C143.6172,-135.7849 143.6172,-169 143.6172,-169 143.6172,-169 332.4241,-169 332.4241,-169"/>
<polygon fill="#000000" stroke="#000000" points="332.4242,-172.5001 342.4241,-169 332.4241,-165.5001 332.4242,-172.5001"/>
</g>
</g>
</svg>
