<?xml version="1.0" encoding="UTF-8" standalone="no"?>
<!DOCTYPE svg PUBLIC "-//W3C//DTD SVG 1.1//EN"
 "http://www.w3.org/Graphics/SVG/1.1/DTD/svg11.dtd">
<!-- Generated by graphviz version 2.40.1 (20161225.0304)
 -->
<!-- Title: dependencies Pages: 1 -->
<svg width="778pt" height="284pt"
 viewBox="0.00 0.00 778.00 284.00" xmlns="http://www.w3.org/2000/svg" xmlns:xlink="http://www.w3.org/1999/xlink">
<g id="graph0" class="graph" transform="scale(1 1) rotate(0) translate(4 280)">
<title>dependencies</title>
<polygon fill="#ffffff" stroke="transparent" points="-4,4 -4,-280 774,-280 774,4 -4,4"/>
<text text-anchor="start" x="364.0091" y="-42.4" font-family="sans-serif" font-weight="bold" font-size="14.00" fill="#000000">Legend</text>
<polygon fill="#ffffb3" stroke="transparent" points="151,-10 151,-30 171,-30 171,-10 151,-10"/>
<text text-anchor="start" x="174.629" y="-15.4" font-family="sans-serif" font-size="14.00" fill="#000000"> &#160;Declarations</text>
<polygon fill="#8dd3c7" stroke="transparent" points="264,-10 264,-30 284,-30 284,-10 264,-10"/>
<text text-anchor="start" x="287.7251" y="-15.4" font-family="sans-serif" font-size="14.00" fill="#000000"> &#160;Module</text>
<polygon fill="#80b1d3" stroke="transparent" points="350,-10 350,-30 370,-30 370,-10 350,-10"/>
<text text-anchor="start" x="373.7812" y="-15.4" font-family="sans-serif" font-size="14.00" fill="#000000"> &#160;Bootstrap</text>
<polygon fill="#fdb462" stroke="transparent" points="447,-10 447,-30 467,-30 467,-10 447,-10"/>
<text text-anchor="start" x="470.6732" y="-15.4" font-family="sans-serif" font-size="14.00" fill="#000000"> &#160;Providers</text>
<polygon fill="#fb8072" stroke="transparent" points="543,-10 543,-30 563,-30 563,-10 543,-10"/>
<text text-anchor="start" x="566.7258" y="-15.4" font-family="sans-serif" font-size="14.00" fill="#000000"> &#160;Exports</text>
<g id="clust1" class="cluster">
<title>cluster_ChatModule</title>
<polygon fill="none" stroke="#000000" stroke-dasharray="1,5" points="8,-70 8,-268 762,-268 762,-70 8,-70"/>
</g>
<g id="clust2" class="cluster">
<title>cluster_ChatModule_declarations</title>
<polygon fill="none" stroke="#000000" points="263,-78 263,-130 754,-130 754,-78 263,-78"/>
</g>
<g id="clust6" class="cluster">
<title>cluster_ChatModule_imports</title>
<polygon fill="none" stroke="#000000" points="16,-78 16,-130 255,-130 255,-78 16,-78"/>
</g>
<g id="clust7" class="cluster">
<title>cluster_ChatModule_exports</title>
<polygon fill="none" stroke="#000000" points="88,-208 88,-260 589,-260 589,-208 88,-208"/>
</g>
<!-- ChatPageComponent -->
<g id="node1" class="node">
<title>ChatPageComponent</title>
<polygon fill="#ffffb3" stroke="#000000" points="746.486,-122 611.514,-122 611.514,-86 746.486,-86 746.486,-122"/>
<text text-anchor="middle" x="679" y="-99.8" font-family="Times,serif" font-size="14.00" fill="#000000">ChatPageComponent</text>
</g>
<!-- ChatModule -->
<g id="node4" class="node">
<title>ChatModule</title>
<polygon fill="#8dd3c7" stroke="#000000" points="387.9916,-187 384.9916,-191 363.9916,-191 360.9916,-187 302.0084,-187 302.0084,-151 387.9916,-151 387.9916,-187"/>
<text text-anchor="middle" x="345" y="-164.8" font-family="Times,serif" font-size="14.00" fill="#000000">ChatModule</text>
</g>
<!-- ChatPageComponent&#45;&gt;ChatModule -->
<g id="edge1" class="edge">
<title>ChatPageComponent&#45;&gt;ChatModule</title>
<path fill="none" stroke="#000000" d="M679,-122.1061C679,-141.3391 679,-169 679,-169 679,-169 398.3223,-169 398.3223,-169"/>
<polygon fill="#000000" stroke="#000000" points="398.3223,-165.5001 388.3223,-169 398.3222,-172.5001 398.3223,-165.5001"/>
</g>
<!-- ChatMessageComponent -->
<g id="node2" class="node">
<title>ChatMessageComponent</title>
<polygon fill="#ffffb3" stroke="#000000" points="593.252,-122 436.748,-122 436.748,-86 593.252,-86 593.252,-122"/>
<text text-anchor="middle" x="515" y="-99.8" font-family="Times,serif" font-size="14.00" fill="#000000">ChatMessageComponent</text>
</g>
<!-- ChatMessageComponent&#45;&gt;ChatModule -->
<g id="edge2" class="edge">
<title>ChatMessageComponent&#45;&gt;ChatModule</title>
<path fill="none" stroke="#000000" d="M488.919,-122.027C488.919,-138.3976 488.919,-160 488.919,-160 488.919,-160 398.1804,-160 398.1804,-160"/>
<polygon fill="#000000" stroke="#000000" points="398.1805,-156.5001 388.1804,-160 398.1804,-163.5001 398.1805,-156.5001"/>
</g>
<!-- ChatThreadComponent -->
<g id="node3" class="node">
<title>ChatThreadComponent</title>
<polygon fill="#ffffb3" stroke="#000000" points="418.9172,-122 271.0828,-122 271.0828,-86 418.9172,-86 418.9172,-122"/>
<text text-anchor="middle" x="345" y="-99.8" font-family="Times,serif" font-size="14.00" fill="#000000">ChatThreadComponent</text>
</g>
<!-- ChatThreadComponent&#45;&gt;ChatModule -->
<g id="edge3" class="edge">
<title>ChatThreadComponent&#45;&gt;ChatModule</title>
<path fill="none" stroke="#000000" d="M345,-122.1061C345,-122.1061 345,-140.991 345,-140.991"/>
<polygon fill="#000000" stroke="#000000" points="341.5001,-140.9909 345,-150.991 348.5001,-140.991 341.5001,-140.9909"/>
</g>
<!-- ChatPageComponent  -->
<g id="node7" class="node">
<title>ChatPageComponent </title>
<polygon fill="#fb8072" stroke="#000000" points="581.4869,-252 442.5131,-252 442.5131,-216 581.4869,-216 581.4869,-252"/>
<text text-anchor="middle" x="512" y="-229.8" font-family="Times,serif" font-size="14.00" fill="#000000">ChatPageComponent </text>
</g>
<!-- ChatModule&#45;&gt;ChatPageComponent  -->
<g id="edge6" class="edge">
<title>ChatModule&#45;&gt;ChatPageComponent </title>
<path fill="none" stroke="#000000" stroke-dasharray="5,2" d="M388.1323,-178C444.2142,-178 535.081,-178 535.081,-178 535.081,-178 535.081,-205.973 535.081,-205.973"/>
<polygon fill="#000000" stroke="#000000" points="531.5811,-205.973 535.081,-215.973 538.5811,-205.973 531.5811,-205.973"/>
</g>
<!-- ChatMessageComponent  -->
<g id="node8" class="node">
<title>ChatMessageComponent </title>
<polygon fill="#fb8072" stroke="#000000" points="425.252,-252 264.748,-252 264.748,-216 425.252,-216 425.252,-252"/>
<text text-anchor="middle" x="345" y="-229.8" font-family="Times,serif" font-size="14.00" fill="#000000">ChatMessageComponent </text>
</g>
<!-- ChatModule&#45;&gt;ChatMessageComponent  -->
<g id="edge7" class="edge">
<title>ChatModule&#45;&gt;ChatMessageComponent </title>
<path fill="none" stroke="#000000" stroke-dasharray="5,2" d="M345,-187.1061C345,-187.1061 345,-205.991 345,-205.991"/>
<polygon fill="#000000" stroke="#000000" points="341.5001,-205.9909 345,-215.991 348.5001,-205.991 341.5001,-205.9909"/>
</g>
<!-- ChatThreadComponent  -->
<g id="node9" class="node">
<title>ChatThreadComponent </title>
<polygon fill="#fb8072" stroke="#000000" points="246.4166,-252 95.5834,-252 95.5834,-216 246.4166,-216 246.4166,-252"/>
<text text-anchor="middle" x="171" y="-229.8" font-family="Times,serif" font-size="14.00" fill="#000000">ChatThreadComponent </text>
</g>
<!-- ChatModule&#45;&gt;ChatThreadComponent  -->
<g id="edge8" class="edge">
<title>ChatModule&#45;&gt;ChatThreadComponent </title>
<path fill="none" stroke="#000000" stroke-dasharray="5,2" d="M301.8734,-178C251.7523,-178 175.8292,-178 175.8292,-178 175.8292,-178 175.8292,-205.973 175.8292,-205.973"/>
<polygon fill="#000000" stroke="#000000" points="172.3293,-205.973 175.8292,-215.973 179.3293,-205.973 172.3293,-205.973"/>
</g>
<!-- MaterialModule -->
<g id="node5" class="node">
<title>MaterialModule</title>
<polygon fill="#8dd3c7" stroke="#000000" points="247.4706,-122 244.4706,-126 223.4706,-126 220.4706,-122 140.5294,-122 140.5294,-86 247.4706,-86 247.4706,-122"/>
<text text-anchor="middle" x="194" y="-99.8" font-family="Times,serif" font-size="14.00" fill="#000000">MaterialModule</text>
</g>
<!-- MaterialModule&#45;&gt;ChatModule -->
<g id="edge4" class="edge">
<title>MaterialModule&#45;&gt;ChatModule</title>
<path fill="none" stroke="#000000" d="M211.1438,-122.027C211.1438,-138.3976 211.1438,-160 211.1438,-160 211.1438,-160 291.9102,-160 291.9102,-160"/>
<polygon fill="#000000" stroke="#000000" points="291.9103,-163.5001 301.9102,-160 291.9102,-156.5001 291.9103,-163.5001"/>
</g>
<!-- SharedModule -->
<g id="node6" class="node">
<title>SharedModule</title>
<polygon fill="#8dd3c7" stroke="#000000" points="122.4231,-122 119.4231,-126 98.4231,-126 95.4231,-122 23.5769,-122 23.5769,-86 122.4231,-86 122.4231,-122"/>
<text text-anchor="middle" x="73" y="-99.8" font-family="Times,serif" font-size="14.00" fill="#000000">SharedModule</text>
</g>
<!-- SharedModule&#45;&gt;ChatModule -->
<g id="edge5" class="edge">
<title>SharedModule&#45;&gt;ChatModule</title>
<path fill="none" stroke="#000000" d="M108.8764,-122.1061C108.8764,-141.3391 108.8764,-169 108.8764,-169 108.8764,-169 291.9659,-169 291.9659,-169"/>
<polygon fill="#000000" stroke="#000000" points="291.9659,-172.5001 301.9659,-169 291.9658,-165.5001 291.9659,-172.5001"/>
</g>
</g>
</svg>
