<?xml version="1.0" encoding="UTF-8" standalone="no"?>
<!DOCTYPE svg PUBLIC "-//W3C//DTD SVG 1.1//EN"
 "http://www.w3.org/Graphics/SVG/1.1/DTD/svg11.dtd">
<!-- Generated by graphviz version 2.40.1 (20161225.0304)
 -->
<!-- Title: dependencies Pages: 1 -->
<svg width="924pt" height="211pt"
 viewBox="0.00 0.00 924.00 211.00" xmlns="http://www.w3.org/2000/svg" xmlns:xlink="http://www.w3.org/1999/xlink">
<g id="graph0" class="graph" transform="scale(1 1) rotate(0) translate(4 207)">
<title>dependencies</title>
<polygon fill="#ffffff" stroke="transparent" points="-4,4 -4,-207 920,-207 920,4 -4,4"/>
<text text-anchor="start" x="437.0091" y="-42.4" font-family="sans-serif" font-weight="bold" font-size="14.00" fill="#000000">Legend</text>
<polygon fill="#ffffb3" stroke="transparent" points="224,-10 224,-30 244,-30 244,-10 224,-10"/>
<text text-anchor="start" x="247.629" y="-15.4" font-family="sans-serif" font-size="14.00" fill="#000000"> &#160;Declarations</text>
<polygon fill="#8dd3c7" stroke="transparent" points="337,-10 337,-30 357,-30 357,-10 337,-10"/>
<text text-anchor="start" x="360.7251" y="-15.4" font-family="sans-serif" font-size="14.00" fill="#000000"> &#160;Module</text>
<polygon fill="#80b1d3" stroke="transparent" points="423,-10 423,-30 443,-30 443,-10 423,-10"/>
<text text-anchor="start" x="446.7812" y="-15.4" font-family="sans-serif" font-size="14.00" fill="#000000"> &#160;Bootstrap</text>
<polygon fill="#fdb462" stroke="transparent" points="520,-10 520,-30 540,-30 540,-10 520,-10"/>
<text text-anchor="start" x="543.6732" y="-15.4" font-family="sans-serif" font-size="14.00" fill="#000000"> &#160;Providers</text>
<polygon fill="#fb8072" stroke="transparent" points="616,-10 616,-30 636,-30 636,-10 616,-10"/>
<text text-anchor="start" x="639.7258" y="-15.4" font-family="sans-serif" font-size="14.00" fill="#000000"> &#160;Exports</text>
<g id="clust1" class="cluster">
<title>cluster_CategoryModule</title>
<polygon fill="none" stroke="#000000" stroke-dasharray="1,5" points="8,-70 8,-195 908,-195 908,-70 8,-70"/>
</g>
<g id="clust2" class="cluster">
<title>cluster_CategoryModule_declarations</title>
<polygon fill="none" stroke="#000000" points="146,-78 146,-130 900,-130 900,-78 146,-78"/>
</g>
<g id="clust7" class="cluster">
<title>cluster_CategoryModule_imports</title>
<polygon fill="none" stroke="#000000" points="16,-78 16,-130 138,-130 138,-78 16,-78"/>
</g>
<!-- CategoryFeedComponent -->
<g id="node1" class="node">
<title>CategoryFeedComponent</title>
<polygon fill="#ffffb3" stroke="#000000" points="891.8613,-122 732.1387,-122 732.1387,-86 891.8613,-86 891.8613,-122"/>
<text text-anchor="middle" x="812" y="-99.8" font-family="Times,serif" font-size="14.00" fill="#000000">CategoryFeedComponent</text>
</g>
<!-- CategoryModule -->
<g id="node5" class="node">
<title>CategoryModule</title>
<polygon fill="#8dd3c7" stroke="#000000" points="511.3669,-187 508.3669,-191 487.3669,-191 484.3669,-187 400.6331,-187 400.6331,-151 511.3669,-151 511.3669,-187"/>
<text text-anchor="middle" x="456" y="-164.8" font-family="Times,serif" font-size="14.00" fill="#000000">CategoryModule</text>
</g>
<!-- CategoryFeedComponent&#45;&gt;CategoryModule -->
<g id="edge1" class="edge">
<title>CategoryFeedComponent&#45;&gt;CategoryModule</title>
<path fill="none" stroke="#000000" d="M812,-122.2843C812,-143.3211 812,-175 812,-175 812,-175 521.625,-175 521.625,-175"/>
<polygon fill="#000000" stroke="#000000" points="521.625,-171.5001 511.625,-175 521.625,-178.5001 521.625,-171.5001"/>
</g>
<!-- CategoryPageComponent -->
<g id="node2" class="node">
<title>CategoryPageComponent</title>
<polygon fill="#ffffb3" stroke="#000000" points="713.8613,-122 554.1387,-122 554.1387,-86 713.8613,-86 713.8613,-122"/>
<text text-anchor="middle" x="634" y="-99.8" font-family="Times,serif" font-size="14.00" fill="#000000">CategoryPageComponent</text>
</g>
<!-- CategoryPageComponent&#45;&gt;CategoryModule -->
<g id="edge2" class="edge">
<title>CategoryPageComponent&#45;&gt;CategoryModule</title>
<path fill="none" stroke="#000000" d="M634,-122.0225C634,-139.3734 634,-163 634,-163 634,-163 521.8319,-163 521.8319,-163"/>
<polygon fill="#000000" stroke="#000000" points="521.832,-159.5001 511.8319,-163 521.8319,-166.5001 521.832,-159.5001"/>
</g>
<!-- CategoryCardComponent -->
<g id="node3" class="node">
<title>CategoryCardComponent</title>
<polygon fill="#ffffb3" stroke="#000000" points="535.8613,-122 376.1387,-122 376.1387,-86 535.8613,-86 535.8613,-122"/>
<text text-anchor="middle" x="456" y="-99.8" font-family="Times,serif" font-size="14.00" fill="#000000">CategoryCardComponent</text>
</g>
<!-- CategoryCardComponent&#45;&gt;CategoryModule -->
<g id="edge3" class="edge">
<title>CategoryCardComponent&#45;&gt;CategoryModule</title>
<path fill="none" stroke="#000000" d="M456,-122.1061C456,-122.1061 456,-140.991 456,-140.991"/>
<polygon fill="#000000" stroke="#000000" points="452.5001,-140.9909 456,-150.991 459.5001,-140.991 452.5001,-140.9909"/>
</g>
<!-- CategoryProductCardComponent -->
<g id="node4" class="node">
<title>CategoryProductCardComponent</title>
<polygon fill="#ffffb3" stroke="#000000" points="357.91,-122 154.09,-122 154.09,-86 357.91,-86 357.91,-122"/>
<text text-anchor="middle" x="256" y="-99.8" font-family="Times,serif" font-size="14.00" fill="#000000">CategoryProductCardComponent</text>
</g>
<!-- CategoryProductCardComponent&#45;&gt;CategoryModule -->
<g id="edge4" class="edge">
<title>CategoryProductCardComponent&#45;&gt;CategoryModule</title>
<path fill="none" stroke="#000000" d="M256,-122.0225C256,-139.3734 256,-163 256,-163 256,-163 390.5544,-163 390.5544,-163"/>
<polygon fill="#000000" stroke="#000000" points="390.5545,-166.5001 400.5544,-163 390.5544,-159.5001 390.5545,-166.5001"/>
</g>
<!-- MaterialModule -->
<g id="node6" class="node">
<title>MaterialModule</title>
<polygon fill="#8dd3c7" stroke="#000000" points="130.4706,-122 127.4706,-126 106.4706,-126 103.4706,-122 23.5294,-122 23.5294,-86 130.4706,-86 130.4706,-122"/>
<text text-anchor="middle" x="77" y="-99.8" font-family="Times,serif" font-size="14.00" fill="#000000">MaterialModule</text>
</g>
<!-- MaterialModule&#45;&gt;CategoryModule -->
<g id="edge5" class="edge">
<title>MaterialModule&#45;&gt;CategoryModule</title>
<path fill="none" stroke="#000000" d="M77,-122.2843C77,-143.3211 77,-175 77,-175 77,-175 390.4843,-175 390.4843,-175"/>
<polygon fill="#000000" stroke="#000000" points="390.4843,-178.5001 400.4843,-175 390.4842,-171.5001 390.4843,-178.5001"/>
</g>
</g>
</svg>
