<?xml version="1.0" encoding="UTF-8" standalone="no"?>
<!DOCTYPE svg PUBLIC "-//W3C//DTD SVG 1.1//EN"
 "http://www.w3.org/Graphics/SVG/1.1/DTD/svg11.dtd">
<!-- Generated by graphviz version 2.40.1 (20161225.0304)
 -->
<!-- Title: dependencies Pages: 1 -->
<svg width="1098pt" height="211pt"
 viewBox="0.00 0.00 1098.00 211.00" xmlns="http://www.w3.org/2000/svg" xmlns:xlink="http://www.w3.org/1999/xlink">
<g id="graph0" class="graph" transform="scale(1 1) rotate(0) translate(4 207)">
<title>dependencies</title>
<polygon fill="#ffffff" stroke="transparent" points="-4,4 -4,-207 1094,-207 1094,4 -4,4"/>
<text text-anchor="start" x="524.0091" y="-42.4" font-family="sans-serif" font-weight="bold" font-size="14.00" fill="#000000">Legend</text>
<polygon fill="#ffffb3" stroke="transparent" points="311,-10 311,-30 331,-30 331,-10 311,-10"/>
<text text-anchor="start" x="334.629" y="-15.4" font-family="sans-serif" font-size="14.00" fill="#000000"> &#160;Declarations</text>
<polygon fill="#8dd3c7" stroke="transparent" points="424,-10 424,-30 444,-30 444,-10 424,-10"/>
<text text-anchor="start" x="447.7251" y="-15.4" font-family="sans-serif" font-size="14.00" fill="#000000"> &#160;Module</text>
<polygon fill="#80b1d3" stroke="transparent" points="510,-10 510,-30 530,-30 530,-10 510,-10"/>
<text text-anchor="start" x="533.7812" y="-15.4" font-family="sans-serif" font-size="14.00" fill="#000000"> &#160;Bootstrap</text>
<polygon fill="#fdb462" stroke="transparent" points="607,-10 607,-30 627,-30 627,-10 607,-10"/>
<text text-anchor="start" x="630.6732" y="-15.4" font-family="sans-serif" font-size="14.00" fill="#000000"> &#160;Providers</text>
<polygon fill="#fb8072" stroke="transparent" points="703,-10 703,-30 723,-30 723,-10 703,-10"/>
<text text-anchor="start" x="726.7258" y="-15.4" font-family="sans-serif" font-size="14.00" fill="#000000"> &#160;Exports</text>
<g id="clust1" class="cluster">
<title>cluster_CategoryModule</title>
<polygon fill="none" stroke="#000000" stroke-dasharray="1,5" points="8,-70 8,-195 1082,-195 1082,-70 8,-70"/>
</g>
<g id="clust2" class="cluster">
<title>cluster_CategoryModule_declarations</title>
<polygon fill="none" stroke="#000000" points="320,-78 320,-130 1074,-130 1074,-78 320,-78"/>
</g>
<g id="clust7" class="cluster">
<title>cluster_CategoryModule_imports</title>
<polygon fill="none" stroke="#000000" points="16,-78 16,-130 312,-130 312,-78 16,-78"/>
</g>
<!-- CategoryFeedComponent -->
<g id="node1" class="node">
<title>CategoryFeedComponent</title>
<polygon fill="#ffffb3" stroke="#000000" points="1065.8613,-122 906.1387,-122 906.1387,-86 1065.8613,-86 1065.8613,-122"/>
<text text-anchor="middle" x="986" y="-99.8" font-family="Times,serif" font-size="14.00" fill="#000000">CategoryFeedComponent</text>
</g>
<!-- CategoryModule -->
<g id="node5" class="node">
<title>CategoryModule</title>
<polygon fill="#8dd3c7" stroke="#000000" points="585.3669,-187 582.3669,-191 561.3669,-191 558.3669,-187 474.6331,-187 474.6331,-151 585.3669,-151 585.3669,-187"/>
<text text-anchor="middle" x="530" y="-164.8" font-family="Times,serif" font-size="14.00" fill="#000000">CategoryModule</text>
</g>
<!-- CategoryFeedComponent&#45;&gt;CategoryModule -->
<g id="edge1" class="edge">
<title>CategoryFeedComponent&#45;&gt;CategoryModule</title>
<path fill="none" stroke="#000000" d="M986,-122.2843C986,-143.3211 986,-175 986,-175 986,-175 595.4587,-175 595.4587,-175"/>
<polygon fill="#000000" stroke="#000000" points="595.4587,-171.5001 585.4587,-175 595.4586,-178.5001 595.4587,-171.5001"/>
</g>
<!-- CategoryPageComponent -->
<g id="node2" class="node">
<title>CategoryPageComponent</title>
<polygon fill="#ffffb3" stroke="#000000" points="887.8613,-122 728.1387,-122 728.1387,-86 887.8613,-86 887.8613,-122"/>
<text text-anchor="middle" x="808" y="-99.8" font-family="Times,serif" font-size="14.00" fill="#000000">CategoryPageComponent</text>
</g>
<!-- CategoryPageComponent&#45;&gt;CategoryModule -->
<g id="edge2" class="edge">
<title>CategoryPageComponent&#45;&gt;CategoryModule</title>
<path fill="none" stroke="#000000" d="M808,-122.0225C808,-139.3734 808,-163 808,-163 808,-163 595.5893,-163 595.5893,-163"/>
<polygon fill="#000000" stroke="#000000" points="595.5893,-159.5001 585.5893,-163 595.5893,-166.5001 595.5893,-159.5001"/>
</g>
<!-- CategoryCardComponent -->
<g id="node3" class="node">
<title>CategoryCardComponent</title>
<polygon fill="#ffffb3" stroke="#000000" points="709.8613,-122 550.1387,-122 550.1387,-86 709.8613,-86 709.8613,-122"/>
<text text-anchor="middle" x="630" y="-99.8" font-family="Times,serif" font-size="14.00" fill="#000000">CategoryCardComponent</text>
</g>
<!-- CategoryCardComponent&#45;&gt;CategoryModule -->
<g id="edge3" class="edge">
<title>CategoryCardComponent&#45;&gt;CategoryModule</title>
<path fill="none" stroke="#000000" d="M567.7514,-122.1061C567.7514,-122.1061 567.7514,-140.991 567.7514,-140.991"/>
<polygon fill="#000000" stroke="#000000" points="564.2515,-140.9909 567.7514,-150.991 571.2515,-140.991 564.2515,-140.9909"/>
</g>
<!-- CategoryProductCardComponent -->
<g id="node4" class="node">
<title>CategoryProductCardComponent</title>
<polygon fill="#ffffb3" stroke="#000000" points="531.91,-122 328.09,-122 328.09,-86 531.91,-86 531.91,-122"/>
<text text-anchor="middle" x="430" y="-99.8" font-family="Times,serif" font-size="14.00" fill="#000000">CategoryProductCardComponent</text>
</g>
<!-- CategoryProductCardComponent&#45;&gt;CategoryModule -->
<g id="edge4" class="edge">
<title>CategoryProductCardComponent&#45;&gt;CategoryModule</title>
<path fill="none" stroke="#000000" d="M503.1357,-122.1061C503.1357,-122.1061 503.1357,-140.991 503.1357,-140.991"/>
<polygon fill="#000000" stroke="#000000" points="499.6358,-140.9909 503.1357,-150.991 506.6358,-140.991 499.6358,-140.9909"/>
</g>
<!-- CategoryRoutingModule -->
<g id="node6" class="node">
<title>CategoryRoutingModule</title>
<polygon fill="#8dd3c7" stroke="#000000" points="303.9846,-122 300.9846,-126 279.9846,-126 276.9846,-122 148.0154,-122 148.0154,-86 303.9846,-86 303.9846,-122"/>
<text text-anchor="middle" x="226" y="-99.8" font-family="Times,serif" font-size="14.00" fill="#000000">CategoryRoutingModule</text>
</g>
<!-- CategoryRoutingModule&#45;&gt;CategoryModule -->
<g id="edge5" class="edge">
<title>CategoryRoutingModule&#45;&gt;CategoryModule</title>
<path fill="none" stroke="#000000" d="M226,-122.0225C226,-139.3734 226,-163 226,-163 226,-163 464.5952,-163 464.5952,-163"/>
<polygon fill="#000000" stroke="#000000" points="464.5952,-166.5001 474.5952,-163 464.5952,-159.5001 464.5952,-166.5001"/>
</g>
<!-- MaterialModule -->
<g id="node7" class="node">
<title>MaterialModule</title>
<polygon fill="#8dd3c7" stroke="#000000" points="130.4706,-122 127.4706,-126 106.4706,-126 103.4706,-122 23.5294,-122 23.5294,-86 130.4706,-86 130.4706,-122"/>
<text text-anchor="middle" x="77" y="-99.8" font-family="Times,serif" font-size="14.00" fill="#000000">MaterialModule</text>
</g>
<!-- MaterialModule&#45;&gt;CategoryModule -->
<g id="edge6" class="edge">
<title>MaterialModule&#45;&gt;CategoryModule</title>
<path fill="none" stroke="#000000" d="M77,-122.2843C77,-143.3211 77,-175 77,-175 77,-175 464.4533,-175 464.4533,-175"/>
<polygon fill="#000000" stroke="#000000" points="464.4533,-178.5001 474.4533,-175 464.4533,-171.5001 464.4533,-178.5001"/>
</g>
</g>
</svg>
