<?xml version="1.0" encoding="UTF-8" standalone="no"?>
<!DOCTYPE svg PUBLIC "-//W3C//DTD SVG 1.1//EN"
 "http://www.w3.org/Graphics/SVG/1.1/DTD/svg11.dtd">
<!-- Generated by graphviz version 2.40.1 (20161225.0304)
 -->
<!-- Title: dependencies Pages: 1 -->
<svg width="504pt" height="284pt"
 viewBox="0.00 0.00 504.00 284.00" xmlns="http://www.w3.org/2000/svg" xmlns:xlink="http://www.w3.org/1999/xlink">
<g id="graph0" class="graph" transform="scale(1 1) rotate(0) translate(4 280)">
<title>dependencies</title>
<polygon fill="#ffffff" stroke="transparent" points="-4,4 -4,-280 500,-280 500,4 -4,4"/>
<text text-anchor="start" x="227.0091" y="-42.4" font-family="sans-serif" font-weight="bold" font-size="14.00" fill="#000000">Legend</text>
<polygon fill="#ffffb3" stroke="transparent" points="14,-10 14,-30 34,-30 34,-10 14,-10"/>
<text text-anchor="start" x="37.629" y="-15.4" font-family="sans-serif" font-size="14.00" fill="#000000"> &#160;Declarations</text>
<polygon fill="#8dd3c7" stroke="transparent" points="127,-10 127,-30 147,-30 147,-10 127,-10"/>
<text text-anchor="start" x="150.7251" y="-15.4" font-family="sans-serif" font-size="14.00" fill="#000000"> &#160;Module</text>
<polygon fill="#80b1d3" stroke="transparent" points="213,-10 213,-30 233,-30 233,-10 213,-10"/>
<text text-anchor="start" x="236.7812" y="-15.4" font-family="sans-serif" font-size="14.00" fill="#000000"> &#160;Bootstrap</text>
<polygon fill="#fdb462" stroke="transparent" points="310,-10 310,-30 330,-30 330,-10 310,-10"/>
<text text-anchor="start" x="333.6732" y="-15.4" font-family="sans-serif" font-size="14.00" fill="#000000"> &#160;Providers</text>
<polygon fill="#fb8072" stroke="transparent" points="406,-10 406,-30 426,-30 426,-10 406,-10"/>
<text text-anchor="start" x="429.7258" y="-15.4" font-family="sans-serif" font-size="14.00" fill="#000000"> &#160;Exports</text>
<g id="clust1" class="cluster">
<title>cluster_HomeModule</title>
<polygon fill="none" stroke="#000000" stroke-dasharray="1,5" points="100,-70 100,-268 396,-268 396,-70 100,-70"/>
</g>
<g id="clust2" class="cluster">
<title>cluster_HomeModule_declarations</title>
<polygon fill="none" stroke="#000000" points="238,-78 238,-130 388,-130 388,-78 238,-78"/>
</g>
<g id="clust4" class="cluster">
<title>cluster_HomeModule_imports</title>
<polygon fill="none" stroke="#000000" points="108,-78 108,-130 230,-130 230,-78 108,-78"/>
</g>
<g id="clust5" class="cluster">
<title>cluster_HomeModule_exports</title>
<polygon fill="none" stroke="#000000" points="171,-208 171,-260 325,-260 325,-208 171,-208"/>
</g>
<!-- WelcomeComponent -->
<g id="node1" class="node">
<title>WelcomeComponent</title>
<polygon fill="#ffffb3" stroke="#000000" points="380.472,-122 245.528,-122 245.528,-86 380.472,-86 380.472,-122"/>
<text text-anchor="middle" x="313" y="-99.8" font-family="Times,serif" font-size="14.00" fill="#000000">WelcomeComponent</text>
</g>
<!-- HomeModule -->
<g id="node2" class="node">
<title>HomeModule</title>
<polygon fill="#8dd3c7" stroke="#000000" points="294.7619,-187 291.7619,-191 270.7619,-191 267.7619,-187 201.2381,-187 201.2381,-151 294.7619,-151 294.7619,-187"/>
<text text-anchor="middle" x="248" y="-164.8" font-family="Times,serif" font-size="14.00" fill="#000000">HomeModule</text>
</g>
<!-- WelcomeComponent&#45;&gt;HomeModule -->
<g id="edge1" class="edge">
<title>WelcomeComponent&#45;&gt;HomeModule</title>
<path fill="none" stroke="#000000" d="M270.1974,-122.1061C270.1974,-122.1061 270.1974,-140.991 270.1974,-140.991"/>
<polygon fill="#000000" stroke="#000000" points="266.6975,-140.9909 270.1974,-150.991 273.6975,-140.991 266.6975,-140.9909"/>
</g>
<!-- WelcomeComponent  -->
<g id="node4" class="node">
<title>WelcomeComponent </title>
<polygon fill="#fb8072" stroke="#000000" points="317.4728,-252 178.5272,-252 178.5272,-216 317.4728,-216 317.4728,-252"/>
<text text-anchor="middle" x="248" y="-229.8" font-family="Times,serif" font-size="14.00" fill="#000000">WelcomeComponent </text>
</g>
<!-- HomeModule&#45;&gt;WelcomeComponent  -->
<g id="edge3" class="edge">
<title>HomeModule&#45;&gt;WelcomeComponent </title>
<path fill="none" stroke="#000000" stroke-dasharray="5,2" d="M248,-187.1061C248,-187.1061 248,-205.991 248,-205.991"/>
<polygon fill="#000000" stroke="#000000" points="244.5001,-205.9909 248,-215.991 251.5001,-205.991 244.5001,-205.9909"/>
</g>
<!-- MaterialModule -->
<g id="node3" class="node">
<title>MaterialModule</title>
<polygon fill="#8dd3c7" stroke="#000000" points="222.4706,-122 219.4706,-126 198.4706,-126 195.4706,-122 115.5294,-122 115.5294,-86 222.4706,-86 222.4706,-122"/>
<text text-anchor="middle" x="169" y="-99.8" font-family="Times,serif" font-size="14.00" fill="#000000">MaterialModule</text>
</g>
<!-- MaterialModule&#45;&gt;HomeModule -->
<g id="edge2" class="edge">
<title>MaterialModule&#45;&gt;HomeModule</title>
<path fill="none" stroke="#000000" d="M211.8023,-122.1061C211.8023,-122.1061 211.8023,-140.991 211.8023,-140.991"/>
<polygon fill="#000000" stroke="#000000" points="208.3023,-140.9909 211.8023,-150.991 215.3023,-140.991 208.3023,-140.9909"/>
</g>
</g>
</svg>
