<?xml version="1.0" encoding="UTF-8" standalone="no"?>
<!DOCTYPE svg PUBLIC "-//W3C//DTD SVG 1.1//EN"
 "http://www.w3.org/Graphics/SVG/1.1/DTD/svg11.dtd">
<!-- Generated by graphviz version 2.40.1 (20161225.0304)
 -->
<!-- Title: dependencies Pages: 1 -->
<svg width="854pt" height="284pt"
 viewBox="0.00 0.00 854.00 284.00" xmlns="http://www.w3.org/2000/svg" xmlns:xlink="http://www.w3.org/1999/xlink">
<g id="graph0" class="graph" transform="scale(1 1) rotate(0) translate(4 280)">
<title>dependencies</title>
<polygon fill="#ffffff" stroke="transparent" points="-4,4 -4,-280 850,-280 850,4 -4,4"/>
<text text-anchor="start" x="402.0091" y="-42.4" font-family="sans-serif" font-weight="bold" font-size="14.00" fill="#000000">Legend</text>
<polygon fill="#ffffb3" stroke="transparent" points="189,-10 189,-30 209,-30 209,-10 189,-10"/>
<text text-anchor="start" x="212.629" y="-15.4" font-family="sans-serif" font-size="14.00" fill="#000000"> &#160;Declarations</text>
<polygon fill="#8dd3c7" stroke="transparent" points="302,-10 302,-30 322,-30 322,-10 302,-10"/>
<text text-anchor="start" x="325.7251" y="-15.4" font-family="sans-serif" font-size="14.00" fill="#000000"> &#160;Module</text>
<polygon fill="#80b1d3" stroke="transparent" points="388,-10 388,-30 408,-30 408,-10 388,-10"/>
<text text-anchor="start" x="411.7812" y="-15.4" font-family="sans-serif" font-size="14.00" fill="#000000"> &#160;Bootstrap</text>
<polygon fill="#fdb462" stroke="transparent" points="485,-10 485,-30 505,-30 505,-10 485,-10"/>
<text text-anchor="start" x="508.6732" y="-15.4" font-family="sans-serif" font-size="14.00" fill="#000000"> &#160;Providers</text>
<polygon fill="#fb8072" stroke="transparent" points="581,-10 581,-30 601,-30 601,-10 581,-10"/>
<text text-anchor="start" x="604.7258" y="-15.4" font-family="sans-serif" font-size="14.00" fill="#000000"> &#160;Exports</text>
<g id="clust1" class="cluster">
<title>cluster_UIModule</title>
<polygon fill="none" stroke="#000000" stroke-dasharray="1,5" points="8,-70 8,-268 838,-268 838,-70 8,-70"/>
</g>
<g id="clust2" class="cluster">
<title>cluster_UIModule_declarations</title>
<polygon fill="none" stroke="#000000" points="26,-78 26,-130 821,-130 821,-78 26,-78"/>
</g>
<g id="clust9" class="cluster">
<title>cluster_UIModule_exports</title>
<polygon fill="none" stroke="#000000" points="16,-208 16,-260 830,-260 830,-208 16,-208"/>
</g>
<!-- AbstractFormComponent -->
<g id="node1" class="node">
<title>AbstractFormComponent</title>
<polygon fill="#ffffb3" stroke="#000000" points="812.5884,-122 653.4116,-122 653.4116,-86 812.5884,-86 812.5884,-122"/>
<text text-anchor="middle" x="733" y="-99.8" font-family="Times,serif" font-size="14.00" fill="#000000">AbstractFormComponent</text>
</g>
<!-- UIModule -->
<g id="node6" class="node">
<title>UIModule</title>
<polygon fill="#8dd3c7" stroke="#000000" points="468.3177,-187 465.3177,-191 444.3177,-191 441.3177,-187 393.6823,-187 393.6823,-151 468.3177,-151 468.3177,-187"/>
<text text-anchor="middle" x="431" y="-164.8" font-family="Times,serif" font-size="14.00" fill="#000000">UIModule</text>
</g>
<!-- AbstractFormComponent&#45;&gt;UIModule -->
<g id="edge1" class="edge">
<title>AbstractFormComponent&#45;&gt;UIModule</title>
<path fill="none" stroke="#000000" d="M761.5981,-122.2667C761.5981,-140.5552 761.5981,-166 761.5981,-166 761.5981,-166 478.2812,-166 478.2812,-166"/>
<polygon fill="#000000" stroke="#000000" points="478.2812,-162.5001 468.2812,-166 478.2811,-169.5001 478.2812,-162.5001"/>
</g>
<!-- ProfileComponent -->
<g id="node2" class="node">
<title>ProfileComponent</title>
<polygon fill="#ffffb3" stroke="#000000" points="635.9328,-122 516.0672,-122 516.0672,-86 635.9328,-86 635.9328,-122"/>
<text text-anchor="middle" x="576" y="-99.8" font-family="Times,serif" font-size="14.00" fill="#000000">ProfileComponent</text>
</g>
<!-- ProfileComponent&#45;&gt;UIModule -->
<g id="edge2" class="edge">
<title>ProfileComponent&#45;&gt;UIModule</title>
<path fill="none" stroke="#000000" d="M596.6553,-122.0091C596.6553,-138.0494 596.6553,-159 596.6553,-159 596.6553,-159 478.1763,-159 478.1763,-159"/>
<polygon fill="#000000" stroke="#000000" points="478.1763,-155.5001 468.1763,-159 478.1763,-162.5001 478.1763,-155.5001"/>
</g>
<!-- WelcomeComponent -->
<g id="node3" class="node">
<title>WelcomeComponent</title>
<polygon fill="#ffffb3" stroke="#000000" points="498.472,-122 363.528,-122 363.528,-86 498.472,-86 498.472,-122"/>
<text text-anchor="middle" x="431" y="-99.8" font-family="Times,serif" font-size="14.00" fill="#000000">WelcomeComponent</text>
</g>
<!-- WelcomeComponent&#45;&gt;UIModule -->
<g id="edge3" class="edge">
<title>WelcomeComponent&#45;&gt;UIModule</title>
<path fill="none" stroke="#000000" d="M431,-122.1061C431,-122.1061 431,-140.991 431,-140.991"/>
<polygon fill="#000000" stroke="#000000" points="427.5001,-140.9909 431,-150.991 434.5001,-140.991 427.5001,-140.9909"/>
</g>
<!-- RegisterComponent -->
<g id="node4" class="node">
<title>RegisterComponent</title>
<polygon fill="#ffffb3" stroke="#000000" points="345.9846,-122 218.0154,-122 218.0154,-86 345.9846,-86 345.9846,-122"/>
<text text-anchor="middle" x="282" y="-99.8" font-family="Times,serif" font-size="14.00" fill="#000000">RegisterComponent</text>
</g>
<!-- RegisterComponent&#45;&gt;UIModule -->
<g id="edge4" class="edge">
<title>RegisterComponent&#45;&gt;UIModule</title>
<path fill="none" stroke="#000000" d="M301.8308,-122.0091C301.8308,-138.0494 301.8308,-159 301.8308,-159 301.8308,-159 383.6389,-159 383.6389,-159"/>
<polygon fill="#000000" stroke="#000000" points="383.6389,-162.5001 393.6389,-159 383.6389,-155.5001 383.6389,-162.5001"/>
</g>
<!-- ConfirmDialogComponent -->
<g id="node5" class="node">
<title>ConfirmDialogComponent</title>
<polygon fill="#ffffb3" stroke="#000000" points="200.3738,-122 33.6262,-122 33.6262,-86 200.3738,-86 200.3738,-122"/>
<text text-anchor="middle" x="117" y="-99.8" font-family="Times,serif" font-size="14.00" fill="#000000">ConfirmDialogComponent</text>
</g>
<!-- ConfirmDialogComponent&#45;&gt;UIModule -->
<g id="edge5" class="edge">
<title>ConfirmDialogComponent&#45;&gt;UIModule</title>
<path fill="none" stroke="#000000" d="M140.6456,-122.2667C140.6456,-140.5552 140.6456,-166 140.6456,-166 140.6456,-166 383.6357,-166 383.6357,-166"/>
<polygon fill="#000000" stroke="#000000" points="383.6357,-169.5001 393.6357,-166 383.6356,-162.5001 383.6357,-169.5001"/>
</g>
<!-- AbstractFormComponent  -->
<g id="node7" class="node">
<title>AbstractFormComponent </title>
<polygon fill="#fb8072" stroke="#000000" points="822.0889,-252 659.9111,-252 659.9111,-216 822.0889,-216 822.0889,-252"/>
<text text-anchor="middle" x="741" y="-229.8" font-family="Times,serif" font-size="14.00" fill="#000000">AbstractFormComponent </text>
</g>
<!-- UIModule&#45;&gt;AbstractFormComponent  -->
<g id="edge6" class="edge">
<title>UIModule&#45;&gt;AbstractFormComponent </title>
<path fill="none" stroke="#000000" stroke-dasharray="5,2" d="M468.4249,-173C544.6275,-173 710.6519,-173 710.6519,-173 710.6519,-173 710.6519,-205.698 710.6519,-205.698"/>
<polygon fill="#000000" stroke="#000000" points="707.152,-205.698 710.6519,-215.698 714.152,-205.698 707.152,-205.698"/>
</g>
<!-- ProfileComponent  -->
<g id="node8" class="node">
<title>ProfileComponent </title>
<polygon fill="#fb8072" stroke="#000000" points="641.432,-252 518.568,-252 518.568,-216 641.432,-216 641.432,-252"/>
<text text-anchor="middle" x="580" y="-229.8" font-family="Times,serif" font-size="14.00" fill="#000000">ProfileComponent </text>
</g>
<!-- UIModule&#45;&gt;ProfileComponent  -->
<g id="edge7" class="edge">
<title>UIModule&#45;&gt;ProfileComponent </title>
<path fill="none" stroke="#000000" stroke-dasharray="5,2" d="M468.2979,-180C505.6402,-180 557.5947,-180 557.5947,-180 557.5947,-180 557.5947,-205.7181 557.5947,-205.7181"/>
<polygon fill="#000000" stroke="#000000" points="554.0948,-205.718 557.5947,-215.7181 561.0948,-205.7181 554.0948,-205.718"/>
</g>
<!-- WelcomeComponent  -->
<g id="node9" class="node">
<title>WelcomeComponent </title>
<polygon fill="#fb8072" stroke="#000000" points="500.4728,-252 361.5272,-252 361.5272,-216 500.4728,-216 500.4728,-252"/>
<text text-anchor="middle" x="431" y="-229.8" font-family="Times,serif" font-size="14.00" fill="#000000">WelcomeComponent </text>
</g>
<!-- UIModule&#45;&gt;WelcomeComponent  -->
<g id="edge8" class="edge">
<title>UIModule&#45;&gt;WelcomeComponent </title>
<path fill="none" stroke="#000000" stroke-dasharray="5,2" d="M431,-187.1061C431,-187.1061 431,-205.991 431,-205.991"/>
<polygon fill="#000000" stroke="#000000" points="427.5001,-205.9909 431,-215.991 434.5001,-205.991 427.5001,-205.9909"/>
</g>
<!-- RegisterComponent  -->
<g id="node10" class="node">
<title>RegisterComponent </title>
<polygon fill="#fb8072" stroke="#000000" points="343.9855,-252 212.0145,-252 212.0145,-216 343.9855,-216 343.9855,-252"/>
<text text-anchor="middle" x="278" y="-229.8" font-family="Times,serif" font-size="14.00" fill="#000000">RegisterComponent </text>
</g>
<!-- UIModule&#45;&gt;RegisterComponent  -->
<g id="edge9" class="edge">
<title>UIModule&#45;&gt;RegisterComponent </title>
<path fill="none" stroke="#000000" stroke-dasharray="5,2" d="M393.4556,-180C343.0952,-180 259.9192,-180 259.9192,-180 259.9192,-180 259.9192,-205.7181 259.9192,-205.7181"/>
<polygon fill="#000000" stroke="#000000" points="256.4193,-205.718 259.9192,-215.7181 263.4193,-205.7181 256.4193,-205.718"/>
</g>
<!-- ConfirmDialogComponent  -->
<g id="node11" class="node">
<title>ConfirmDialogComponent </title>
<polygon fill="#fb8072" stroke="#000000" points="194.3742,-252 23.6258,-252 23.6258,-216 194.3742,-216 194.3742,-252"/>
<text text-anchor="middle" x="109" y="-229.8" font-family="Times,serif" font-size="14.00" fill="#000000">ConfirmDialogComponent </text>
</g>
<!-- UIModule&#45;&gt;ConfirmDialogComponent  -->
<g id="edge10" class="edge">
<title>UIModule&#45;&gt;ConfirmDialogComponent </title>
<path fill="none" stroke="#000000" stroke-dasharray="5,2" d="M393.5425,-173C304.4123,-173 87.1044,-173 87.1044,-173 87.1044,-173 87.1044,-205.698 87.1044,-205.698"/>
<polygon fill="#000000" stroke="#000000" points="83.6045,-205.698 87.1044,-215.698 90.6045,-205.698 83.6045,-205.698"/>
</g>
</g>
</svg>
