<?xml version="1.0" encoding="UTF-8" standalone="no"?>
<!DOCTYPE svg PUBLIC "-//W3C//DTD SVG 1.1//EN"
 "http://www.w3.org/Graphics/SVG/1.1/DTD/svg11.dtd">
<!-- Generated by graphviz version 2.40.1 (20161225.0304)
 -->
<!-- Title: dependencies Pages: 1 -->
<svg width="1006pt" height="211pt"
 viewBox="0.00 0.00 1006.00 211.00" xmlns="http://www.w3.org/2000/svg" xmlns:xlink="http://www.w3.org/1999/xlink">
<g id="graph0" class="graph" transform="scale(1 1) rotate(0) translate(4 207)">
<title>dependencies</title>
<polygon fill="#ffffff" stroke="transparent" points="-4,4 -4,-207 1002,-207 1002,4 -4,4"/>
<text text-anchor="start" x="478.0091" y="-42.4" font-family="sans-serif" font-weight="bold" font-size="14.00" fill="#000000">Legend</text>
<polygon fill="#ffffb3" stroke="transparent" points="265,-10 265,-30 285,-30 285,-10 265,-10"/>
<text text-anchor="start" x="288.629" y="-15.4" font-family="sans-serif" font-size="14.00" fill="#000000"> &#160;Declarations</text>
<polygon fill="#8dd3c7" stroke="transparent" points="378,-10 378,-30 398,-30 398,-10 378,-10"/>
<text text-anchor="start" x="401.7251" y="-15.4" font-family="sans-serif" font-size="14.00" fill="#000000"> &#160;Module</text>
<polygon fill="#80b1d3" stroke="transparent" points="464,-10 464,-30 484,-30 484,-10 464,-10"/>
<text text-anchor="start" x="487.7812" y="-15.4" font-family="sans-serif" font-size="14.00" fill="#000000"> &#160;Bootstrap</text>
<polygon fill="#fdb462" stroke="transparent" points="561,-10 561,-30 581,-30 581,-10 561,-10"/>
<text text-anchor="start" x="584.6732" y="-15.4" font-family="sans-serif" font-size="14.00" fill="#000000"> &#160;Providers</text>
<polygon fill="#fb8072" stroke="transparent" points="657,-10 657,-30 677,-30 677,-10 657,-10"/>
<text text-anchor="start" x="680.7258" y="-15.4" font-family="sans-serif" font-size="14.00" fill="#000000"> &#160;Exports</text>
<g id="clust1" class="cluster">
<title>cluster_CheckoutModule</title>
<polygon fill="none" stroke="#000000" stroke-dasharray="1,5" points="8,-70 8,-195 990,-195 990,-70 8,-70"/>
</g>
<g id="clust2" class="cluster">
<title>cluster_CheckoutModule_declarations</title>
<polygon fill="none" stroke="#000000" points="323,-78 323,-130 982,-130 982,-78 323,-78"/>
</g>
<g id="clust7" class="cluster">
<title>cluster_CheckoutModule_imports</title>
<polygon fill="none" stroke="#000000" points="16,-78 16,-130 315,-130 315,-78 16,-78"/>
</g>
<!-- CartComponent -->
<g id="node1" class="node">
<title>CartComponent</title>
<polygon fill="#ffffb3" stroke="#000000" points="973.9357,-122 868.0643,-122 868.0643,-86 973.9357,-86 973.9357,-122"/>
<text text-anchor="middle" x="921" y="-99.8" font-family="Times,serif" font-size="14.00" fill="#000000">CartComponent</text>
</g>
<!-- CheckoutModule -->
<g id="node5" class="node">
<title>CheckoutModule</title>
<polygon fill="#8dd3c7" stroke="#000000" points="572.7064,-187 569.7064,-191 548.7064,-191 545.7064,-187 459.2936,-187 459.2936,-151 572.7064,-151 572.7064,-187"/>
<text text-anchor="middle" x="516" y="-164.8" font-family="Times,serif" font-size="14.00" fill="#000000">CheckoutModule</text>
</g>
<!-- CartComponent&#45;&gt;CheckoutModule -->
<g id="edge1" class="edge">
<title>CartComponent&#45;&gt;CheckoutModule</title>
<path fill="none" stroke="#000000" d="M921,-122.2843C921,-143.3211 921,-175 921,-175 921,-175 582.74,-175 582.74,-175"/>
<polygon fill="#000000" stroke="#000000" points="582.74,-171.5001 572.74,-175 582.7399,-178.5001 582.74,-171.5001"/>
</g>
<!-- CartItemCardComponent -->
<g id="node2" class="node">
<title>CartItemCardComponent</title>
<polygon fill="#ffffb3" stroke="#000000" points="850.3033,-122 691.6967,-122 691.6967,-86 850.3033,-86 850.3033,-122"/>
<text text-anchor="middle" x="771" y="-99.8" font-family="Times,serif" font-size="14.00" fill="#000000">CartItemCardComponent</text>
</g>
<!-- CartItemCardComponent&#45;&gt;CheckoutModule -->
<g id="edge2" class="edge">
<title>CartItemCardComponent&#45;&gt;CheckoutModule</title>
<path fill="none" stroke="#000000" d="M771,-122.0225C771,-139.3734 771,-163 771,-163 771,-163 582.9096,-163 582.9096,-163"/>
<polygon fill="#000000" stroke="#000000" points="582.9096,-159.5001 572.9096,-163 582.9096,-166.5001 582.9096,-159.5001"/>
</g>
<!-- CheckoutComponent -->
<g id="node3" class="node">
<title>CheckoutComponent</title>
<polygon fill="#ffffb3" stroke="#000000" points="673.4888,-122 538.5112,-122 538.5112,-86 673.4888,-86 673.4888,-122"/>
<text text-anchor="middle" x="606" y="-99.8" font-family="Times,serif" font-size="14.00" fill="#000000">CheckoutComponent</text>
</g>
<!-- CheckoutComponent&#45;&gt;CheckoutModule -->
<g id="edge3" class="edge">
<title>CheckoutComponent&#45;&gt;CheckoutModule</title>
<path fill="none" stroke="#000000" d="M555.5544,-122.1061C555.5544,-122.1061 555.5544,-140.991 555.5544,-140.991"/>
<polygon fill="#000000" stroke="#000000" points="552.0544,-140.9909 555.5544,-150.991 559.0544,-140.991 552.0544,-140.9909"/>
</g>
<!-- OrderConfirmationComponent -->
<g id="node4" class="node">
<title>OrderConfirmationComponent</title>
<polygon fill="#ffffb3" stroke="#000000" points="520.91,-122 331.09,-122 331.09,-86 520.91,-86 520.91,-122"/>
<text text-anchor="middle" x="426" y="-99.8" font-family="Times,serif" font-size="14.00" fill="#000000">OrderConfirmationComponent</text>
</g>
<!-- OrderConfirmationComponent&#45;&gt;CheckoutModule -->
<g id="edge4" class="edge">
<title>OrderConfirmationComponent&#45;&gt;CheckoutModule</title>
<path fill="none" stroke="#000000" d="M490.0509,-122.1061C490.0509,-122.1061 490.0509,-140.991 490.0509,-140.991"/>
<polygon fill="#000000" stroke="#000000" points="486.5509,-140.9909 490.0509,-150.991 493.5509,-140.991 486.5509,-140.9909"/>
</g>
<!-- MaterialModule -->
<g id="node6" class="node">
<title>MaterialModule</title>
<polygon fill="#8dd3c7" stroke="#000000" points="307.4706,-122 304.4706,-126 283.4706,-126 280.4706,-122 200.5294,-122 200.5294,-86 307.4706,-86 307.4706,-122"/>
<text text-anchor="middle" x="254" y="-99.8" font-family="Times,serif" font-size="14.00" fill="#000000">MaterialModule</text>
</g>
<!-- MaterialModule&#45;&gt;CheckoutModule -->
<g id="edge5" class="edge">
<title>MaterialModule&#45;&gt;CheckoutModule</title>
<path fill="none" stroke="#000000" d="M254,-122.0225C254,-139.3734 254,-163 254,-163 254,-163 449.1499,-163 449.1499,-163"/>
<polygon fill="#000000" stroke="#000000" points="449.1499,-166.5001 459.1499,-163 449.1499,-159.5001 449.1499,-166.5001"/>
</g>
<!-- CheckoutRoutingModule -->
<g id="node7" class="node">
<title>CheckoutRoutingModule</title>
<polygon fill="#8dd3c7" stroke="#000000" points="182.3243,-122 179.3243,-126 158.3243,-126 155.3243,-122 23.6757,-122 23.6757,-86 182.3243,-86 182.3243,-122"/>
<text text-anchor="middle" x="103" y="-99.8" font-family="Times,serif" font-size="14.00" fill="#000000">CheckoutRoutingModule</text>
</g>
<!-- CheckoutRoutingModule&#45;&gt;CheckoutModule -->
<g id="edge6" class="edge">
<title>CheckoutRoutingModule&#45;&gt;CheckoutModule</title>
<path fill="none" stroke="#000000" d="M103,-122.2843C103,-143.3211 103,-175 103,-175 103,-175 449.0077,-175 449.0077,-175"/>
<polygon fill="#000000" stroke="#000000" points="449.0078,-178.5001 459.0077,-175 449.0077,-171.5001 449.0078,-178.5001"/>
</g>
</g>
</svg>
