<?xml version="1.0" encoding="UTF-8" standalone="no"?>
<!DOCTYPE svg PUBLIC "-//W3C//DTD SVG 1.1//EN"
 "http://www.w3.org/Graphics/SVG/1.1/DTD/svg11.dtd">
<!-- Generated by graphviz version 2.40.1 (20161225.0304)
 -->
<!-- Title: dependencies Pages: 1 -->
<svg width="946pt" height="211pt"
 viewBox="0.00 0.00 946.00 211.00" xmlns="http://www.w3.org/2000/svg" xmlns:xlink="http://www.w3.org/1999/xlink">
<g id="graph0" class="graph" transform="scale(1 1) rotate(0) translate(4 207)">
<title>dependencies</title>
<polygon fill="#ffffff" stroke="transparent" points="-4,4 -4,-207 942,-207 942,4 -4,4"/>
<text text-anchor="start" x="448.0091" y="-42.4" font-family="sans-serif" font-weight="bold" font-size="14.00" fill="#000000">Legend</text>
<polygon fill="#ffffb3" stroke="transparent" points="235,-10 235,-30 255,-30 255,-10 235,-10"/>
<text text-anchor="start" x="258.629" y="-15.4" font-family="sans-serif" font-size="14.00" fill="#000000"> &#160;Declarations</text>
<polygon fill="#8dd3c7" stroke="transparent" points="348,-10 348,-30 368,-30 368,-10 348,-10"/>
<text text-anchor="start" x="371.7251" y="-15.4" font-family="sans-serif" font-size="14.00" fill="#000000"> &#160;Module</text>
<polygon fill="#80b1d3" stroke="transparent" points="434,-10 434,-30 454,-30 454,-10 434,-10"/>
<text text-anchor="start" x="457.7812" y="-15.4" font-family="sans-serif" font-size="14.00" fill="#000000"> &#160;Bootstrap</text>
<polygon fill="#fdb462" stroke="transparent" points="531,-10 531,-30 551,-30 551,-10 531,-10"/>
<text text-anchor="start" x="554.6732" y="-15.4" font-family="sans-serif" font-size="14.00" fill="#000000"> &#160;Providers</text>
<polygon fill="#fb8072" stroke="transparent" points="627,-10 627,-30 647,-30 647,-10 627,-10"/>
<text text-anchor="start" x="650.7258" y="-15.4" font-family="sans-serif" font-size="14.00" fill="#000000"> &#160;Exports</text>
<g id="clust1" class="cluster">
<title>cluster_CheckoutModule</title>
<polygon fill="none" stroke="#000000" stroke-dasharray="1,5" points="8,-70 8,-195 930,-195 930,-70 8,-70"/>
</g>
<g id="clust2" class="cluster">
<title>cluster_CheckoutModule_declarations</title>
<polygon fill="none" stroke="#000000" points="263,-78 263,-130 922,-130 922,-78 263,-78"/>
</g>
<g id="clust7" class="cluster">
<title>cluster_CheckoutModule_imports</title>
<polygon fill="none" stroke="#000000" points="16,-78 16,-130 255,-130 255,-78 16,-78"/>
</g>
<!-- CartComponent -->
<g id="node1" class="node">
<title>CartComponent</title>
<polygon fill="#ffffb3" stroke="#000000" points="913.9357,-122 808.0643,-122 808.0643,-86 913.9357,-86 913.9357,-122"/>
<text text-anchor="middle" x="861" y="-99.8" font-family="Times,serif" font-size="14.00" fill="#000000">CartComponent</text>
</g>
<!-- CheckoutModule -->
<g id="node5" class="node">
<title>CheckoutModule</title>
<polygon fill="#8dd3c7" stroke="#000000" points="512.7064,-187 509.7064,-191 488.7064,-191 485.7064,-187 399.2936,-187 399.2936,-151 512.7064,-151 512.7064,-187"/>
<text text-anchor="middle" x="456" y="-164.8" font-family="Times,serif" font-size="14.00" fill="#000000">CheckoutModule</text>
</g>
<!-- CartComponent&#45;&gt;CheckoutModule -->
<g id="edge1" class="edge">
<title>CartComponent&#45;&gt;CheckoutModule</title>
<path fill="none" stroke="#000000" d="M861,-122.2843C861,-143.3211 861,-175 861,-175 861,-175 522.74,-175 522.74,-175"/>
<polygon fill="#000000" stroke="#000000" points="522.74,-171.5001 512.74,-175 522.7399,-178.5001 522.74,-171.5001"/>
</g>
<!-- CartItemCardComponent -->
<g id="node2" class="node">
<title>CartItemCardComponent</title>
<polygon fill="#ffffb3" stroke="#000000" points="790.3033,-122 631.6967,-122 631.6967,-86 790.3033,-86 790.3033,-122"/>
<text text-anchor="middle" x="711" y="-99.8" font-family="Times,serif" font-size="14.00" fill="#000000">CartItemCardComponent</text>
</g>
<!-- CartItemCardComponent&#45;&gt;CheckoutModule -->
<g id="edge2" class="edge">
<title>CartItemCardComponent&#45;&gt;CheckoutModule</title>
<path fill="none" stroke="#000000" d="M711,-122.0225C711,-139.3734 711,-163 711,-163 711,-163 522.9096,-163 522.9096,-163"/>
<polygon fill="#000000" stroke="#000000" points="522.9096,-159.5001 512.9096,-163 522.9096,-166.5001 522.9096,-159.5001"/>
</g>
<!-- CheckoutComponent -->
<g id="node3" class="node">
<title>CheckoutComponent</title>
<polygon fill="#ffffb3" stroke="#000000" points="613.4888,-122 478.5112,-122 478.5112,-86 613.4888,-86 613.4888,-122"/>
<text text-anchor="middle" x="546" y="-99.8" font-family="Times,serif" font-size="14.00" fill="#000000">CheckoutComponent</text>
</g>
<!-- CheckoutComponent&#45;&gt;CheckoutModule -->
<g id="edge3" class="edge">
<title>CheckoutComponent&#45;&gt;CheckoutModule</title>
<path fill="none" stroke="#000000" d="M495.5544,-122.1061C495.5544,-122.1061 495.5544,-140.991 495.5544,-140.991"/>
<polygon fill="#000000" stroke="#000000" points="492.0544,-140.9909 495.5544,-150.991 499.0544,-140.991 492.0544,-140.9909"/>
</g>
<!-- OrderConfirmationComponent -->
<g id="node4" class="node">
<title>OrderConfirmationComponent</title>
<polygon fill="#ffffb3" stroke="#000000" points="460.91,-122 271.09,-122 271.09,-86 460.91,-86 460.91,-122"/>
<text text-anchor="middle" x="366" y="-99.8" font-family="Times,serif" font-size="14.00" fill="#000000">OrderConfirmationComponent</text>
</g>
<!-- OrderConfirmationComponent&#45;&gt;CheckoutModule -->
<g id="edge4" class="edge">
<title>OrderConfirmationComponent&#45;&gt;CheckoutModule</title>
<path fill="none" stroke="#000000" d="M430.0509,-122.1061C430.0509,-122.1061 430.0509,-140.991 430.0509,-140.991"/>
<polygon fill="#000000" stroke="#000000" points="426.5509,-140.9909 430.0509,-150.991 433.5509,-140.991 426.5509,-140.9909"/>
</g>
<!-- MaterialModule -->
<g id="node6" class="node">
<title>MaterialModule</title>
<polygon fill="#8dd3c7" stroke="#000000" points="247.4706,-122 244.4706,-126 223.4706,-126 220.4706,-122 140.5294,-122 140.5294,-86 247.4706,-86 247.4706,-122"/>
<text text-anchor="middle" x="194" y="-99.8" font-family="Times,serif" font-size="14.00" fill="#000000">MaterialModule</text>
</g>
<!-- MaterialModule&#45;&gt;CheckoutModule -->
<g id="edge5" class="edge">
<title>MaterialModule&#45;&gt;CheckoutModule</title>
<path fill="none" stroke="#000000" d="M194,-122.0225C194,-139.3734 194,-163 194,-163 194,-163 389.1499,-163 389.1499,-163"/>
<polygon fill="#000000" stroke="#000000" points="389.1499,-166.5001 399.1499,-163 389.1499,-159.5001 389.1499,-166.5001"/>
</g>
<!-- SharedModule -->
<g id="node7" class="node">
<title>SharedModule</title>
<polygon fill="#8dd3c7" stroke="#000000" points="122.4231,-122 119.4231,-126 98.4231,-126 95.4231,-122 23.5769,-122 23.5769,-86 122.4231,-86 122.4231,-122"/>
<text text-anchor="middle" x="73" y="-99.8" font-family="Times,serif" font-size="14.00" fill="#000000">SharedModule</text>
</g>
<!-- SharedModule&#45;&gt;CheckoutModule -->
<g id="edge6" class="edge">
<title>SharedModule&#45;&gt;CheckoutModule</title>
<path fill="none" stroke="#000000" d="M73,-122.2843C73,-143.3211 73,-175 73,-175 73,-175 389.0746,-175 389.0746,-175"/>
<polygon fill="#000000" stroke="#000000" points="389.0746,-178.5001 399.0746,-175 389.0746,-171.5001 389.0746,-178.5001"/>
</g>
</g>
</svg>
